<?xml version="1.0" encoding="utf-8"?>
<!-- Generator: Adobe Illustrator 24.1.2, SVG Export Plug-In . SVG Version: 6.00 Build 0)  -->
<svg version="1.1" id="Layer_1" xmlns="http://www.w3.org/2000/svg" xmlns:xlink="http://www.w3.org/1999/xlink" x="0px" y="0px"
	 viewBox="0 0 664 778" style="enable-background:new 0 0 664 778;" xml:space="preserve">
<style type="text/css">
	.st0{fill:#F57410;}
	.st1{fill:#3BB3A6;}
	.st2{opacity:0.15;fill:#FFFFFF;enable-background:new    ;}
	.st3{opacity:5.000000e-02;fill:#FFFFFF;enable-background:new    ;}
	.st4{opacity:0.2;}
	.st5{fill:#FFFFFF;}
	.st6{enable-background:new    ;}
	.st7{clip-path:url(#SVGID_2_);}
	.st8{clip-path:url(#SVGID_4_);}
	.st9{clip-path:url(#SVGID_6_);}
	.st10{clip-path:url(#SVGID_8_);}
	.st11{clip-path:url(#SVGID_10_);}
	.st12{clip-path:url(#SVGID_12_);}
</style>
<g>
	<rect id="Rectangle_50_1_" class="st0" width="664" height="778"/>
	<rect id="Rectangle_57_1_" class="st1" width="664" height="150"/>
</g>
<g>
	<path id="Path_491" class="st2" d="M82.1,423.9l-15.8-43.4l43.4-15.8c16.9-6.1,35.6,2.6,41.8,19.5l15.8,43.4l-43.4,15.8
		C106.9,449.4,88.3,440.7,82.1,423.9 M137.8,481.6l81.7-29.7l-6.9-19.1l-22.8-62.6c-13.9-38-55.9-57.6-94-43.9l-81.7,29.7l7,19.1
		l6.9,19.1l15.8,43.4C57.7,475.8,99.7,495.4,137.8,481.6"/>
	<path id="Path_502" class="st3" d="M211.3,167.1l-18.1-6.3l6.3-18.1c2.4-7.1,10.1-10.8,17.2-8.4l18.1,6.3l-6.3,18.1
		C226.1,165.7,218.4,169.4,211.3,167.1 M244.5,164.1l11.8-34.1l-8-2.8l-26.1-9c-15.9-5.5-33.2,3-38.7,18.9l-11.8,34.2l8,2.8l8,2.8
		l18.1,6.3C221.7,188.5,239,180.1,244.5,164.1"/>
	<path id="Path_499" class="st2" d="M360.9,287.1L343.2,303l-15.9-17.7c-6.2-6.9-5.6-17.5,1.2-23.7l17.7-15.9l15.9,17.7
		C368.3,270.3,367.7,280.9,360.9,287.1 M377.7,249.3l-30-33.3l-7.8,7L314.5,246c-15.5,14-16.7,37.8-2.8,53.4l30,33.3l7.8-7l7.8-7
		l17.7-15.9C390.4,288.7,391.6,264.8,377.7,249.3"/>
	<path id="Path_497" class="st2" d="M281.6,205.7l-11.9-7.7l7.7-11.9c3-4.6,9.2-5.9,13.8-2.9l11.9,7.7l-7.7,11.9
		C292.4,207.4,286.3,208.7,281.6,205.7 M305.9,209.6l14.5-22.3l-5.2-3.4l-17.1-11.1c-10.4-6.7-24.3-3.8-31.1,6.6l-14.5,22.3l5.2,3.4
		l5.2,3.4l11.9,7.7C285.3,222.9,299.2,220,305.9,209.6"/>
	<g id="Group_83" transform="translate(-1060 -3995)" class="st4">
		<path id="Path_506" class="st5" d="M1334.2,4583.4l-26.4-39.1l39.1-26.4c15.2-10.2,35.9-6.2,46.2,9l26.3,39.1l-39.1,26.4
			C1365.1,4602.6,1344.5,4598.6,1334.2,4583.4 M1403.6,4626.8l73.5-49.6l-11.6-17.2l-38-56.3c-23.1-34.2-69.6-43.2-103.8-20.2
			l-73.5,49.6l11.6,17.2l11.6,17.2l26.4,39.1C1322.9,4640.8,1369.3,4649.8,1403.6,4626.8"/>
		<path id="Path_507" class="st5" d="M1519.4,4394.9l0.5-27l27,0.5c10.5,0.2,18.9,8.9,18.7,19.4l-0.5,27l-27-0.5
			C1527.6,4414,1519.2,4405.4,1519.4,4394.9 M1537.7,4438.1l50.8,0.9l0.2-11.9l0.7-38.9c0.4-23.7-18.5-43.2-42.1-43.6l-50.8-0.9
			l-0.2,11.9l-0.2,11.9l-0.5,27C1495.2,4418.1,1514,4437.6,1537.7,4438.1"/>
		<path id="Path_508" class="st5" d="M1296.8,4399.2l8.3-11.8l11.8,8.3c4.6,3.2,5.7,9.6,2.5,14.2l-8.3,11.8l-11.8-8.3
			C1294.7,4410.1,1293.6,4403.8,1296.8,4399.2 M1292,4423.8l22.2,15.6l3.7-5.2l11.9-17c7.2-10.4,4.7-24.6-5.6-31.9l-22.2-15.6
			l-3.7,5.2l-3.7,5.2l-8.3,11.8C1279.2,4402.3,1281.7,4416.5,1292,4423.8"/>
		<path id="Path_509" class="st5" d="M1575.9,4513.6l12.4-9.7l9.7,12.5c3.8,4.9,2.9,11.9-1.9,15.7l-12.4,9.7l-9.7-12.5
			C1570.2,4524.4,1571.1,4517.4,1575.9,4513.6 M1563,4537.8l18.3,23.4l5.5-4.3l17.9-14c10.9-8.5,12.8-24.3,4.3-35.2l-18.3-23.4
			l-5.5,4.3l-5.5,4.3l-12.4,9.7C1556.4,4511.1,1554.5,4526.9,1563,4537.8"/>
	</g>
	<g class="st6">
		<path class="st5" d="M109.9,67.8v16c0,1.3-0.4,2.4-1.2,3.3c-1,1.2-2.2,1.8-3.8,1.8H79.2c-2,0-3.7-0.6-5.1-1.9
			c-1.9-1.6-2.9-3.7-2.9-6.3v-7.2l2.8-2.3h2.8v9.5c0,1.1,0.4,1.9,1.1,2.6c0.7,0.6,1.5,1,2.4,1h22.8c0.8,0,1.1-0.4,1.1-1.1V67.8
			H109.9z M87.1,66.6c0.8,0,1.5,0.3,2.1,0.9c0.6,0.6,0.9,1.3,0.9,2.1c0,0.8-0.3,1.5-0.9,2.1s-1.3,0.9-2.1,0.9
			c-0.8,0-1.5-0.3-2.1-0.9c-0.6-0.6-0.9-1.3-0.9-2.1c0-0.8,0.3-1.5,0.9-2.1C85.6,66.9,86.3,66.6,87.1,66.6z M94.1,66.6
			c0.8,0,1.5,0.3,2.1,0.9c0.6,0.6,0.9,1.3,0.9,2.1c0,0.8-0.3,1.5-0.9,2.1s-1.3,0.9-2.1,0.9c-0.8,0-1.5-0.3-2.1-0.9
			c-0.6-0.6-0.9-1.3-0.9-2.1c0-0.8,0.3-1.5,0.9-2.1C92.6,66.9,93.3,66.6,94.1,66.6z"/>
		<path class="st5" d="M121.8,56.1v27c0,0.3,0.1,0.5,0.3,0.7c0.2,0.3,0.5,0.4,0.9,0.4h1.2v4.7h-3c-1.3,0-2.4-0.4-3.3-1.3
			c-1.1-1-1.6-2.2-1.6-3.7V56.1H121.8z"/>
		<path class="st5" d="M137.6,75.5c4.1-5.5,9.2-8.3,15.2-8.3c3.7,0,6.7,1.1,9.1,3.4c2.2,2.1,3.3,4.7,3.3,7.9v5.3
			c0,1.4-0.5,2.5-1.4,3.5c-0.9,1-2.1,1.6-3.5,1.6h-36.4v-4.7h8.3V67.8h5.5V75.5z M159.5,78.8c0-1.9-0.6-3.4-1.8-4.6
			c-1.5-1.5-3.4-2.2-5.8-2.2c-2.4,0-4.7,0.8-6.9,2.3c-3,2.1-5.5,5.4-7.4,9.9h20.8c0.8,0,1.1-0.4,1.1-1.1L159.5,78.8L159.5,78.8z"/>
		<path class="st5" d="M180.5,88.9c-3.4,0-6-1.1-7.9-3.4c-1.6-2-2.4-4.4-2.4-7.2c0-3.4,1-6.1,2.9-8c2-2,4.6-2.9,7.8-2.9
			c2.3,0,4.3,0.6,6,1.7c2.2,1.6,3.3,3.9,3.3,6.8v8.5h1.5v4.7H190c-0.2,3.3-1.4,5.9-3.5,7.8c-1.5,1.3-3.2,2.2-5.3,2.7
			c-1.4,0.3-2.8,0.5-4.2,0.5c-0.5,0-1.1,0-2-0.1h-0.1l-2.3-2.9v-2c1.3,0.2,2.4,0.3,3.5,0.3c5,0,7.8-2.1,8.2-6.3H180.5z M184.5,75.8
			c0-1.2-0.4-2.2-1.2-2.9c-0.7-0.6-1.5-0.9-2.5-0.9c-1.6,0-2.8,0.5-3.7,1.6c-0.9,1.1-1.4,2.6-1.4,4.5c0,1.9,0.5,3.4,1.5,4.4
			c1,1.1,2.4,1.6,4.1,1.6h3.1L184.5,75.8L184.5,75.8z"/>
		<path class="st5" d="M197.3,68.6c2.9-0.9,5.5-1.3,7.9-1.3c3.7,0,6.7,1.2,8.9,3.5c2.1,2.1,3.1,4.7,3.1,7.9v4.9v0.7h1.5v4.7h-1
			l-1.5-1.9h-0.1c-1,1.3-2.3,1.9-3.9,1.9h-21.1v-4.7h19.3c0.8,0,1.1-0.4,1.1-1.1V79c0-2.1-0.7-3.8-2.1-5c-1.4-1.3-3.2-1.9-5.5-1.9
			c-1.5,0-3.8,0.3-6.8,1L197.3,68.6L197.3,68.6z"/>
		<path class="st5" d="M227.5,84.2c-1.4-1.8-2.1-4.1-2.1-6.6c0-2.4,0.6-4.4,1.8-6.1c1.9-2.8,4.7-4.2,8.3-4.2c2.8,0,5.1,0.9,6.9,2.6
			c2.2,2,3.3,4.6,3.3,7.8c0,2.5-0.7,4.7-2.1,6.6h3.2v4.7H240c-2,0-3.4-0.2-4.3-0.6h-0.2c-0.9,0.4-2.3,0.6-4.3,0.6h-12.8v-4.7H227.5z
			 M235.6,84.2c1.4-0.2,2.5-0.8,3.3-1.9c0.8-1.1,1.3-2.5,1.3-4.3c0-1.8-0.4-3.3-1.2-4.4c-0.8-1.1-1.9-1.6-3.4-1.6
			c-1.4,0-2.5,0.5-3.3,1.6c-0.8,1.1-1.3,2.6-1.3,4.4c0,1.7,0.4,3.2,1.3,4.3C233.1,83.4,234.2,84,235.6,84.2z M235.7,57.7
			c0.8,0,1.5,0.3,2.1,0.9c0.6,0.6,0.9,1.3,0.9,2.1c0,0.8-0.3,1.5-0.9,2.1s-1.3,0.9-2.1,0.9c-0.8,0-1.5-0.3-2.1-0.9
			c-0.6-0.6-0.9-1.3-0.9-2.1c0-0.8,0.3-1.5,0.9-2.1S234.9,57.7,235.7,57.7z"/>
		<path class="st5" d="M260.4,56.1v27.8c0,1.3-0.4,2.4-1.2,3.3c-0.9,1.2-2.2,1.7-3.7,1.7h-8.9v-4.7h7.1c0.3,0,0.6-0.1,0.9-0.4
			c0.2-0.2,0.3-0.5,0.3-0.8v-27H260.4z"/>
		<path class="st5" d="M272.3,56.1v31.7l-2.8,2.3h-2.8v-34H272.3z"/>
		<path class="st5" d="M292.2,88.7c-1.3,0.4-2.6,0.5-3.9,0.5c-3.2,0-5.9-1.3-7.9-3.8c-1.6-2.1-2.5-4.6-2.5-7.5
			c0-3.1,0.9-5.7,2.8-7.7c1.9-2.1,4.5-3.1,7.8-3.1c2.4,0,4.5,0.6,6.1,1.9c2.1,1.5,3.1,3.7,3.1,6.6v12.1c0,3.9-1.3,7-3.8,9.1
			c-1.4,1.2-3.2,2.1-5.4,2.6c-1.1,0.2-2.3,0.4-3.6,0.4c-0.3,0-0.9,0-1.6-0.1l-2.2-2.8v-2c1,0.2,1.9,0.2,2.9,0.2
			C289.2,95.2,291.8,93,292.2,88.7z M292.3,75.8c0-1.3-0.4-2.3-1.3-3c-0.6-0.5-1.4-0.8-2.3-0.8c-1.6,0-2.8,0.5-3.7,1.6
			c-0.9,1.1-1.4,2.6-1.4,4.5c0,2,0.5,3.5,1.5,4.7c1,1.1,2.4,1.7,4.2,1.7c1,0,2-0.2,3-0.5L292.3,75.8L292.3,75.8z"/>
		<path class="st5" d="M331.3,66.6v16.5c0,0.4,0.1,0.6,0.3,0.8c0.2,0.2,0.4,0.3,0.7,0.3h1.3v4.7h-2.9c-1.4,0-2.7-0.6-3.8-1.7
			c-1.7,1.4-3.7,2.2-5.8,2.2c-2.4,0-4.5-0.8-6.2-2.3c-2.3-2.2-3.5-5.1-3.5-8.7c0-3.3,1.1-6.1,3.2-8.3c2-2,4.4-3,7.2-3
			c1.6,0,3.2,0.3,4.8,1l2-1.5L331.3,66.6L331.3,66.6z M325.7,72.5c-1.1-0.4-2.1-0.6-3.1-0.6c-1.6,0-3,0.6-4.1,1.8
			c-1.1,1.2-1.6,2.8-1.6,4.7c0,1.9,0.5,3.5,1.4,4.6c1,1.2,2.2,1.7,3.9,1.7c1.1,0,2.2-0.2,3.4-0.7V72.5z M321.3,57.7
			c0.8,0,1.5,0.3,2.1,0.9s0.9,1.3,0.9,2.1c0,0.8-0.3,1.5-0.9,2.1s-1.3,0.9-2.1,0.9c-0.8,0-1.5-0.3-2.1-0.9c-0.6-0.6-0.9-1.3-0.9-2.1
			c0-0.8,0.3-1.5,0.9-2.1C319.8,58,320.5,57.7,321.3,57.7z M328.3,57.7c0.8,0,1.5,0.3,2.1,0.9s0.9,1.3,0.9,2.1
			c0,0.8-0.3,1.5-0.9,2.1s-1.3,0.9-2.1,0.9c-0.8,0-1.5-0.3-2.1-0.9c-0.6-0.6-0.9-1.3-0.9-2.1c0-0.8,0.3-1.5,0.9-2.1
			C326.8,58,327.5,57.7,328.3,57.7z"/>
		<path class="st5" d="M347.1,67.8v15.7v0.7h2.3v4.7h-1.6l-1.7-1.9h-0.1c-1,1.3-2.3,1.9-3.9,1.9h-8.9v-4.7h6.9
			c0.4,0,0.7-0.1,0.9-0.4c0.3-0.2,0.4-0.5,0.4-0.9V67.8H347.1z M337.2,92.3c0.8,0,1.5,0.3,2.1,0.9c0.6,0.6,0.9,1.3,0.9,2.1
			s-0.3,1.5-0.9,2.1s-1.3,0.9-2.1,0.9c-0.8,0-1.5-0.3-2.1-0.9c-0.6-0.6-0.9-1.3-0.9-2.1s0.3-1.5,0.9-2.1
			C335.6,92.6,336.3,92.3,337.2,92.3z M344.1,92.3c0.8,0,1.5,0.3,2.1,0.9c0.6,0.6,0.9,1.3,0.9,2.1s-0.3,1.5-0.9,2.1
			s-1.3,0.9-2.1,0.9c-0.8,0-1.5-0.3-2.1-0.9c-0.6-0.6-0.9-1.3-0.9-2.1s0.3-1.5,0.9-2.1C342.6,92.6,343.3,92.3,344.1,92.3z"/>
		<path class="st5" d="M362.9,67.8v15.7v0.7h2.3v4.7h-1.6L362,87h-0.1c-1,1.3-2.3,1.9-3.9,1.9h-8.9v-4.7h6.9c0.4,0,0.7-0.1,0.9-0.4
			c0.3-0.2,0.4-0.5,0.4-0.9V67.8H362.9z M360,92.3c0.8,0,1.5,0.3,2.1,0.9c0.6,0.6,0.9,1.3,0.9,2.1s-0.3,1.5-0.9,2.1
			s-1.3,0.9-2.1,0.9c-0.8,0-1.5-0.3-2.1-0.9c-0.6-0.6-0.9-1.3-0.9-2.1s0.3-1.5,0.9-2.1C358.5,92.6,359.2,92.3,360,92.3z"/>
		<path class="st5" d="M378.7,56.1v19.4c4.2-5.5,9.2-8.3,15.2-8.3c3.7,0,6.7,1.2,9,3.5c2.2,2.1,3.3,4.7,3.3,7.8v4.4
			c0,0.1,0,0.3,0,0.7c0,0.3,0,0.5,0,0.6h1.5v4.7h-0.9l-1.5-1.9h-0.1c-1,1.3-2.3,1.9-3.9,1.9h-36.4v-4.7h8.3V56.1H378.7z M400.7,78.8
			c0-2.3-0.9-4.1-2.7-5.3c-1.3-1-3-1.5-4.9-1.5c-2.3,0-4.4,0.7-6.6,2.1c-3.1,2.1-5.7,5.4-7.8,10.1h20.8c0.8,0,1.1-0.4,1.1-1.1
			L400.7,78.8L400.7,78.8z"/>
		<path class="st5" d="M421.2,56.1v27.8c0,1.3-0.4,2.4-1.2,3.3c-0.9,1.2-2.2,1.7-3.7,1.7h-8.9v-4.7h7.1c0.3,0,0.6-0.1,0.9-0.4
			c0.2-0.2,0.3-0.5,0.3-0.8v-27H421.2z"/>
		<path class="st5" d="M433.1,56.1v31.7l-2.8,2.3h-2.8v-34H433.1z"/>
		<path class="st5" d="M478.5,56.1v28.2h2.3v4.7h-2.3c-0.2,3.4-1.5,6-3.8,8c-2.4,2-5.4,2.9-9.2,2.9H461c-4.1,0-7.4-1.1-9.7-3.4
			c-2.2-2.1-3.3-5-3.3-8.7v-8.2l2.8-2.3h2.8v10c0,2.9,0.7,4.9,2.2,6.1c1.5,1.2,4,1.8,7.5,1.8c3.4,0,5.9-0.5,7.3-1.6
			c1.6-1.2,2.4-3.3,2.4-6.3V56.1L478.5,56.1L478.5,56.1z"/>
		<path class="st5" d="M494.3,67.8v15.7v0.7h2.3v4.7H495l-1.7-1.9h-0.1c-1,1.3-2.3,1.9-3.9,1.9h-8.9v-4.7h6.9c0.4,0,0.7-0.1,0.9-0.4
			c0.3-0.2,0.4-0.5,0.4-0.9V67.8H494.3z M484.3,92.3c0.8,0,1.5,0.3,2.1,0.9c0.6,0.6,0.9,1.3,0.9,2.1s-0.3,1.5-0.9,2.1
			s-1.3,0.9-2.1,0.9c-0.8,0-1.5-0.3-2.1-0.9s-0.9-1.3-0.9-2.1s0.3-1.5,0.9-2.1C482.8,92.6,483.5,92.3,484.3,92.3z M491.3,92.3
			c0.8,0,1.5,0.3,2.1,0.9c0.6,0.6,0.9,1.3,0.9,2.1s-0.3,1.5-0.9,2.1s-1.3,0.9-2.1,0.9c-0.8,0-1.5-0.3-2.1-0.9
			c-0.6-0.6-0.9-1.3-0.9-2.1s0.3-1.5,0.9-2.1C489.8,92.6,490.5,92.3,491.3,92.3z"/>
		<path class="st5" d="M510.1,56.1v27.8c0,1.3-0.4,2.4-1.2,3.3c-0.9,1.2-2.2,1.7-3.7,1.7h-8.9v-4.7h7.1c0.3,0,0.6-0.1,0.9-0.4
			c0.2-0.2,0.3-0.5,0.3-0.8v-27H510.1z"/>
		<path class="st5" d="M522,56.1v27c0,0.3,0.1,0.5,0.3,0.7c0.2,0.3,0.5,0.4,0.9,0.4h1.2v4.7h-3c-1.3,0-2.4-0.4-3.3-1.3
			c-1.1-1-1.6-2.2-1.6-3.7V56.1H522z"/>
		<path class="st5" d="M530.1,68.6c2.9-0.9,5.5-1.3,7.9-1.3c3.7,0,6.7,1.2,8.9,3.5c2.1,2.1,3.1,4.7,3.1,7.9v4.9v0.7h1.5v4.7h-1
			l-1.5-1.9H549c-1,1.3-2.3,1.9-3.9,1.9H524v-4.7h19.3c0.8,0,1.1-0.4,1.1-1.1V79c0-2.1-0.7-3.8-2.1-5c-1.4-1.3-3.2-1.9-5.5-1.9
			c-1.5,0-3.8,0.3-6.8,1V68.6z"/>
		<path class="st5" d="M565,67.8v15.7v0.7h2.3v4.7h-1.6l-1.7-1.9H564c-1,1.3-2.3,1.9-3.9,1.9h-8.9v-4.7h6.9c0.4,0,0.7-0.1,0.9-0.4
			c0.3-0.2,0.4-0.5,0.4-0.9V67.8H565z M555.7,57.7c0.8,0,1.5,0.3,2.1,0.9c0.6,0.6,0.9,1.3,0.9,2.1c0,0.8-0.3,1.5-0.9,2.1
			s-1.3,0.9-2.1,0.9s-1.5-0.3-2.1-0.9c-0.6-0.6-0.9-1.3-0.9-2.1c0-0.8,0.3-1.5,0.9-2.1C554.2,58,554.9,57.7,555.7,57.7z M562.6,57.7
			c0.8,0,1.5,0.3,2.1,0.9c0.6,0.6,0.9,1.3,0.9,2.1c0,0.8-0.3,1.5-0.9,2.1s-1.3,0.9-2.1,0.9c-0.8,0-1.5-0.3-2.1-0.9
			c-0.6-0.6-0.9-1.3-0.9-2.1c0-0.8,0.3-1.5,0.9-2.1C561.2,58,561.9,57.7,562.6,57.7z"/>
		<path class="st5" d="M580.9,56.1v27.8c0,1.3-0.4,2.4-1.2,3.3c-0.9,1.2-2.2,1.7-3.7,1.7h-8.9v-4.7h7.1c0.3,0,0.6-0.1,0.9-0.4
			c0.2-0.2,0.3-0.5,0.3-0.8v-27H580.9z"/>
		<path class="st5" d="M592.8,56.1v31.7l-2.8,2.3h-2.8v-34H592.8z"/>
	</g>
	<g id="Group_244" transform="translate(-43.947 -243.315)">
		<g id="Group_233" transform="translate(449.355 779.664)">
			<g>
				<g>
					<defs>
						<path id="SVGID_1_" d="M126.1-28.3c0,9.9,8.1,18,18,18c9.9,0,18-8.1,18-18c0-9.9-8.1-18-18-18
							C134.1-46.3,126.1-38.2,126.1-28.3C126.1-28.3,126.1-28.3,126.1-28.3"/>
					</defs>
					<clipPath id="SVGID_2_">
						<use xlink:href="#SVGID_1_"  style="overflow:visible;"/>
					</clipPath>
					<g id="Group_232" class="st7">
						<rect id="Rectangle_121" x="126.1" y="-46.3" class="st5" width="36" height="36"/>
					</g>
				</g>
			</g>
		</g>
		<g id="Group_235" transform="translate(360.212 819.59)">
			<g>
				<g>
					<defs>
						<path id="SVGID_3_" d="M128.1-41.2l-4.1,4.8c-1.1,1.3-1,3.2,0.1,4.5l4.2,4.4c1.2,1.2,1.1,3.1-0.1,4.3l-10.8,10.9
							c-1.2,1.1-1.2,3-0.1,4.2c0,0,0,0,0.1,0.1l13.7,13.7c1.2,1.2,3,3,4.3,3c0.8,0,1.6-0.3,2.1-0.9l10.4-10.4c1.1-1.2,3-1.2,4.1,0
							c0,0,0.1,0.1,0.1,0.1l5.1,5.4c1.2,1.2,3.1,1.3,4.3,0.1l5.5-5.3c1-0.9,1-2.4,0.1-3.4c0,0,0,0,0,0l-35.7-35.7
							c-0.4-0.4-1-0.7-1.6-0.7C129.1-42,128.5-41.7,128.1-41.2"/>
					</defs>
					<clipPath id="SVGID_4_">
						<use xlink:href="#SVGID_3_"  style="overflow:visible;"/>
					</clipPath>
					<g id="Group_234" class="st8">
						<rect id="Rectangle_122" x="116.2" y="-42" class="st5" width="51.8" height="50.7"/>
					</g>
				</g>
			</g>
		</g>
		<g id="Group_237" transform="translate(309.568 799.746)">
			<g>
				<g>
					<defs>
						<path id="SVGID_5_" d="M286.8,80.8c0-5.6,4.6-10.2,10.2-10.2c5.6,0,10.2,4.6,10.2,10.2c0,5.6-4.6,10.2-10.2,10.2c0,0,0,0,0,0
							C291.3,91,286.8,86.4,286.8,80.8C286.8,80.8,286.8,80.8,286.8,80.8 M283.8-23h-0.3c26,43.6,11.6,100-32,125.9
							c-30.8,18.3-69.4,17.1-98.9-3.2c2,9.9-4.3,19.6-14.3,21.7c-1.2,0.2-2.4,0.4-3.6,0.4c-5.3,0,21.1,18.6,41.3,23.3
							c2.6,0.6,2.6,1.3,0,1.8c-24.7,4.2-46.4,13.9-62.6,27.1c-4.2,3.4-2.9,6.5,2.5,6.5h177.3c5.4,0,6.6-3.1,2.5-6.5
							c-16.2-13.2-37.9-22.8-62.6-27.1c-2.6-0.5-2.6-1.1,0-1.8c66.9-15.8,108.4-82.8,92.7-149.7c-3.3-14.1-9-27.4-16.9-39.5
							C306.8-31.9,296.2-23,283.8-23"/>
					</defs>
					<clipPath id="SVGID_6_">
						<use xlink:href="#SVGID_5_"  style="overflow:visible;"/>
					</clipPath>
					<g id="Group_236" class="st9">
						<rect id="Rectangle_123" x="109.3" y="-44.1" class="st5" width="219.8" height="224.6"/>
					</g>
				</g>
			</g>
		</g>
		<g id="Group_239" transform="translate(290.447 849.907)">
			<g>
				<g>
					<defs>
						<path id="SVGID_7_" d="M112.4-37.4l-3.2,7.5c-0.5,1.3-0.1,2.7,1.1,3.5l28.1,18.2c1.1,0.7,1.9,1.3,1.8,1.3
							c-0.3,0.8-0.4,1.6-0.3,2.4v46.1c5.7-6.7,15.3-8.5,23-4.2V10.1c0-1.3,0.9-1.8,2-1.1l50.7,32.9c0.9,0.6,2.1,0.4,2.7-0.5
							c0.1-0.1,0.2-0.3,0.2-0.4l3.1-7.5c0.5-1.3,0-2.8-1.1-3.5L115.3-38.3c-0.3-0.2-0.7-0.4-1.2-0.4
							C113.3-38.7,112.6-38.2,112.4-37.4"/>
					</defs>
					<clipPath id="SVGID_8_">
						<use xlink:href="#SVGID_7_"  style="overflow:visible;"/>
					</clipPath>
					<g id="Group_238" class="st10">
						<rect id="Rectangle_124" x="108.7" y="-38.7" class="st5" width="113.6" height="81.2"/>
					</g>
				</g>
			</g>
		</g>
		<g id="Group_241" transform="translate(320.286 922.288)">
			<g>
				<g>
					<defs>
						<path id="SVGID_9_" d="M112.2-19c0,6.6,5.3,11.9,11.9,11.9c6.6,0,11.9-5.3,11.9-11.9s-5.3-11.9-11.9-11.9
							C117.5-30.9,112.2-25.6,112.2-19"/>
					</defs>
					<clipPath id="SVGID_10_">
						<use xlink:href="#SVGID_9_"  style="overflow:visible;"/>
					</clipPath>
					<g id="Group_240" class="st11">
						<rect id="Rectangle_125" x="112.2" y="-30.9" class="st5" width="23.8" height="23.8"/>
					</g>
				</g>
			</g>
		</g>
		<g id="Group_243" transform="translate(375.877 722.748)">
			<g>
				<g>
					<defs>
						<path id="SVGID_11_" d="M200.1-48.9l-81.4,96.8c-0.8,1.1-0.8,2.6,0.2,3.6l36.2,36.2c1,1,2.5,1,3.5,0.1l37.9-36.2l4.1-4.1
							c-10.4-9.3-11.2-25.3-1.8-35.7c9.3-10.4,25.3-11.2,35.7-1.8c0.7,0.6,1.3,1.2,1.9,1.9l5.1-5.1l6.9-7.3
							c2.4-2.9,3.6-6.6,3.2-10.4l-1.2-7.2c-0.6-3.3-1.8-6.8-2.8-7.8l-1.8-1.8l3-3c0.7-0.7,0.7-1.8,0.1-2.5c0,0,0,0-0.1-0.1
							l-15.8-15.8c-0.7-0.7-1.8-0.7-2.6,0l0,0l-3,3l-1.5-1.5c-0.8-0.8-4.2-2.1-7.4-2.8l-8.3-1.7c-0.6-0.1-1.1-0.2-1.7-0.2
							C205.2-52.4,202.3-51.1,200.1-48.9"/>
					</defs>
					<clipPath id="SVGID_12_">
						<use xlink:href="#SVGID_11_"  style="overflow:visible;"/>
					</clipPath>
					<g id="Group_242" class="st12">
						<rect id="Rectangle_126" x="117.9" y="-52.4" class="st5" width="134.1" height="141.1"/>
					</g>
				</g>
			</g>
		</g>
	</g>
	<g id="Rectangle_127" transform="translate(13 654)">
		<rect x="42.6" y="-24" class="st5" width="230" height="105"/>
		<rect x="43.1" y="-23.5" class="st5" width="229" height="104"/>
	</g>
	<g>
		<path class="st0" d="M89,677.8c0.9-0.2,1.8-0.2,2.8-0.2c2.7,0,5,0.8,6.6,2.5c1.5,1.5,2.3,3.5,2.3,5.8v5.7c0,0.3,0,0.6-0.1,0.9h1
			v2.6h-0.6l-1-1.3H100c-0.2,0.3-0.4,0.5-0.7,0.7c-0.6,0.4-1.2,0.6-1.9,0.6H85.2v-2.6h10.9c0.9,0,1.4-0.5,1.4-1.4v-4.7
			c0-1.8-0.5-3.2-1.6-4.4c-1.1-1.2-2.9-1.8-5.3-1.8c-0.7,0-1.3,0-1.7,0.2C89,680.2,89,677.8,89,677.8z"/>
		<path class="st0" d="M111.2,678v13.5c0,0.9-0.3,1.7-0.9,2.4c-0.7,0.8-1.5,1.2-2.5,1.2h-6.4v-2.6h5.2c0.4,0,0.8-0.2,1-0.4
			c0.3-0.3,0.4-0.6,0.4-1v-13H111.2z M104.5,698.8c0.5,0,0.9,0.2,1.3,0.5s0.5,0.8,0.5,1.3c0,0.5-0.2,1-0.5,1.3
			c-0.4,0.4-0.8,0.5-1.3,0.5c-0.5,0-1-0.2-1.3-0.5c-0.4-0.4-0.5-0.8-0.5-1.3c0-0.5,0.2-0.9,0.5-1.3C103.6,699,104,698.8,104.5,698.8
			z M109,698.8c0.5,0,0.9,0.2,1.3,0.5c0.3,0.4,0.5,0.8,0.5,1.3c0,0.5-0.2,1-0.5,1.3c-0.3,0.4-0.8,0.5-1.3,0.5
			c-0.5,0-0.9-0.2-1.3-0.5s-0.5-0.8-0.5-1.3c0-0.5,0.2-0.9,0.5-1.3C108.1,699,108.5,698.8,109,698.8z"/>
		<path class="st0" d="M126,678v14.4h1.9v2.6H126c-0.1,2.6-0.8,4.6-2.3,6.1c-1.2,1.2-2.9,2-5,2.4c-0.8,0.2-1.6,0.2-2.5,0.2
			c-0.6,0-1.2,0-1.7,0l-1.2-1.5v-1.2c0.7,0.1,1.5,0.2,2.3,0.2c4.8,0,7.3-2.2,7.3-6.7V678L126,678L126,678z M124.5,669.8
			c0.5,0,0.9,0.2,1.3,0.5s0.5,0.8,0.5,1.3c0,0.5-0.2,1-0.5,1.3c-0.4,0.4-0.8,0.5-1.3,0.5c-0.5,0-0.9-0.2-1.3-0.5s-0.5-0.8-0.5-1.3
			c0-0.5,0.2-0.9,0.5-1.3C123.5,670,124,669.8,124.5,669.8z"/>
		<path class="st0" d="M134.9,692.4c-1-1.7-1.5-3.5-1.5-5.7c0-3,0.8-5.3,2.5-6.9c1.5-1.4,3.5-2.2,6-2.2c1.8,0,3.2,0.4,4.4,1.2
			c1.8,1.2,2.7,3,2.7,5.5v6.7c0,0.3,0.1,0.6,0.3,0.9c0.2,0.3,0.5,0.5,0.9,0.5h0.1v2.6h-0.9c-1.1,0-2-0.4-2.7-1.3
			c-1.3,1.6-3,2.4-5.1,2.4c-2.2,0-4-0.8-5.6-2.4h-0.1l-1,1.3h-7.2v-2.6H134.9z M145.8,684.3c0-1.3-0.4-2.3-1.2-3.1
			c-0.7-0.7-1.6-1-2.8-1c-1.6,0-2.9,0.6-3.8,1.8c-1,1.2-1.4,2.7-1.4,4.6c0,2,0.5,3.7,1.5,5c1,1.3,2.2,1.9,3.6,1.9
			c1.4,0,2.8-0.7,4.1-2L145.8,684.3L145.8,684.3z"/>
		<path class="st0" d="M159.7,668.5v23c0,1-0.3,1.8-1,2.4c-0.7,0.7-1.5,1.1-2.4,1.1h-6.4v-2.6h5.3c0.5,0,0.8-0.2,1.1-0.5
			c0.2-0.3,0.3-0.6,0.3-0.9v-22.5H159.7z"/>
		<path class="st0" d="M167.9,668.5v26.1l-1.6,1.3h-1.6v-27.4L167.9,668.5L167.9,668.5z"/>
		<path class="st0" d="M198.7,692.4c-1.7-1.6-2.6-3.7-2.6-6.3c0-2.9,0.9-5.1,2.8-6.7c1.6-1.3,3.5-1.9,6-1.9c2.1,0,3.8,0.6,5,1.8
			c1.3,1.2,1.9,2.8,2,5v7.3c0,1-0.4,1.8-1.1,2.5c-0.6,0.6-1.4,0.9-2.2,0.9h-22.9c-1.2,0-2.4-0.4-3.4-1.1c-1.6-1.2-2.4-2.9-2.4-5v-7
			l1.6-1.3h1.6v8.3c0,1,0.4,1.9,1.2,2.6c0.6,0.6,1.4,0.9,2.4,0.9L198.7,692.4L198.7,692.4z M208.7,684.3c0-1.3-0.4-2.3-1-3
			c-0.7-0.7-1.6-1.1-2.8-1.1c-1.8,0-3.1,0.5-4.1,1.6s-1.4,2.5-1.4,4.4s0.6,3.4,1.9,4.6c1.1,1.1,2.5,1.6,4.1,1.6h2
			c0.9,0,1.4-0.5,1.4-1.4L208.7,684.3L208.7,684.3z M204.9,669.8c0.5,0,0.9,0.2,1.3,0.5s0.5,0.8,0.5,1.3c0,0.5-0.2,1-0.5,1.3
			c-0.4,0.4-0.8,0.5-1.3,0.5c-0.5,0-1-0.2-1.3-0.5c-0.4-0.4-0.5-0.8-0.5-1.3c0-0.5,0.2-0.9,0.5-1.3
			C203.9,670,204.3,669.8,204.9,669.8z"/>
		<path class="st0" d="M224.5,678v14.4h1.9v2.6h-1.9c-0.1,3.1-1.2,5.4-3.3,6.9c-1.7,1.3-3.9,1.9-6.6,1.9c-0.4,0-0.9,0-1.6,0
			l-1.2-1.5v-1.2c0.7,0.1,1.5,0.2,2.3,0.2c4.8,0,7.3-2.2,7.3-6.7V678L224.5,678L224.5,678z"/>
		<path class="st0" d="M234.2,692.4c-1.6-1.7-2.4-3.8-2.4-6.4c0-2.8,0.9-4.9,2.7-6.5c1.5-1.3,3.5-2,5.9-2c1.3,0,2.7,0.2,4.1,0.6v2.5
			c-1.5-0.4-2.7-0.5-3.8-0.5c-1.8,0-3.3,0.6-4.3,1.7s-1.5,2.7-1.5,4.6c0,1.6,0.5,3,1.6,4.3c1,1.1,2.2,1.7,3.5,1.7h7.5v1l-1.3,1.6
			h-20.2v-2.6H234.2z"/>
		<path class="st0" d="M254.8,668.5v26.1l-1.6,1.3h-1.6v-27.4L254.8,668.5L254.8,668.5z"/>
	</g>
</g>
<g class="st6">
	<path class="st5" d="M107.4,215.5v14c0,0.4,0.1,0.8,0.4,1c0.2,0.3,0.5,0.4,0.7,0.4h0.7v2.6h-1.6c-1.1,0-2-0.4-2.7-1.3
		c-1.6,1.1-3.3,1.7-5.2,1.7c-2.6,0-4.6-1-6.1-3c-1.2-1.6-1.8-3.6-1.8-5.9c0-2.7,0.9-4.9,2.7-6.7c1.6-1.6,3.5-2.4,5.8-2.4
		c1.3,0,2.6,0.3,4,0.9l1.6-1.3L107.4,215.5L107.4,215.5z M104.2,219.3c-1.1-0.5-2.2-0.8-3.3-0.8c-1.9,0-3.4,0.7-4.6,2.2
		c-1,1.2-1.4,2.6-1.4,4.3c0,2,0.5,3.5,1.4,4.7c0.9,1,2.2,1.6,3.7,1.6c1.3,0,2.7-0.4,4.2-1.1L104.2,219.3L104.2,219.3z M101.1,208.3
		c0.5,0,0.9,0.2,1.3,0.5s0.5,0.8,0.5,1.3c0,0.5-0.2,1-0.5,1.3c-0.4,0.4-0.8,0.5-1.3,0.5c-0.5,0-0.9-0.2-1.3-0.5s-0.5-0.8-0.5-1.3
		c0-0.5,0.2-0.9,0.5-1.3S100.6,208.3,101.1,208.3z M105.5,208.3c0.5,0,1,0.2,1.3,0.5c0.4,0.4,0.5,0.8,0.5,1.3c0,0.5-0.2,1-0.5,1.3
		c-0.4,0.4-0.8,0.5-1.3,0.5c-0.5,0-0.9-0.2-1.3-0.5s-0.5-0.8-0.5-1.3c0-0.5,0.2-0.9,0.5-1.3S105,208.3,105.5,208.3z"/>
	<path class="st5" d="M115.6,222.8c0-2.5,0.9-4.4,2.7-5.6c1.2-0.8,2.7-1.1,4.6-1.1c2.3,0,4.3,0.8,5.9,2.4c1.6,1.6,2.4,3.9,2.4,6.7
		c0,2.7-0.8,5-2.4,6.8c-1.5,1.7-3.3,2.6-5.6,2.6c-2.1,0-3.8-0.8-5.2-2.4c-0.7,0.9-1.6,1.3-2.7,1.3H109v-2.6h5.3c0.4,0,0.7-0.1,1-0.4
		s0.4-0.6,0.4-1L115.6,222.8L115.6,222.8z M118.8,230c1.3,1.3,2.7,2,4.3,2c1.5,0,2.7-0.6,3.6-1.8s1.4-2.8,1.4-4.8
		c0-2.2-0.5-3.9-1.6-5.1c-0.9-1-2.1-1.6-3.6-1.6c-1.1,0-2.1,0.3-2.8,1c-0.8,0.8-1.2,1.8-1.2,3.1C118.8,222.8,118.8,230,118.8,230z"
		/>
	<path class="st5" d="M138.1,216.2c0.9-0.1,1.8-0.2,2.9-0.2c2.7,0,4.9,0.8,6.6,2.5c1.5,1.5,2.3,3.5,2.3,5.8v5.7c0,0.3,0,0.6-0.1,0.9
		h1v2.6h-0.6l-1-1.3h-0.1c-0.2,0.3-0.4,0.5-0.7,0.7c-0.6,0.4-1.2,0.6-1.9,0.6h-12.1v-2.6h10.9c0.9,0,1.4-0.5,1.4-1.4v-4.7
		c0-1.8-0.5-3.2-1.6-4.4c-1.1-1.2-2.9-1.8-5.3-1.8c-0.7,0-1.3,0.1-1.7,0.1L138.1,216.2L138.1,216.2z"/>
	<path class="st5" d="M155.4,217.1c2.3-0.7,4.4-1.1,6.4-1.1c3.1,0,5.4,0.9,7,2.9c1.4,1.6,2.1,3.8,2.1,6.4v4.7c0,0.8-0.3,1.6-0.8,2.2
		c-0.6,0.9-1.5,1.3-2.6,1.3h-17v-2.6h15.8c0.9,0,1.4-0.5,1.4-1.4v-4.3c0-1.9-0.5-3.4-1.5-4.6c-1.1-1.2-2.7-1.9-4.9-1.9
		c-1.3,0-3.3,0.3-5.9,0.8L155.4,217.1L155.4,217.1z M162.2,208.3c0.5,0,0.9,0.2,1.3,0.5c0.4,0.4,0.5,0.8,0.5,1.3
		c0,0.5-0.2,1-0.5,1.3c-0.4,0.4-0.8,0.5-1.3,0.5c-0.5,0-0.9-0.2-1.3-0.5s-0.5-0.8-0.5-1.3c0-0.5,0.2-0.9,0.5-1.3
		C161.3,208.5,161.7,208.3,162.2,208.3z"/>
	<path class="st5" d="M185.4,207v22.5c0,0.4,0.1,0.7,0.4,1c0.3,0.3,0.6,0.4,1,0.4h0.5v2.6h-1.7c-0.8,0-1.5-0.3-2.1-0.8
		c-0.8-0.7-1.3-1.6-1.3-2.7v-23L185.4,207L185.4,207z"/>
	<path class="st5" d="M196.2,216.9c2.6-1.2,5.4-1.8,8.2-1.8c6.5,0,9.7,3.7,9.7,11.1v3.9c0,0.3,0,0.6-0.1,0.9h1.3v2.6h-0.8l-1-1.3
		h-0.1c-0.2,0.3-0.4,0.5-0.7,0.7c-0.6,0.4-1.2,0.6-1.9,0.6h-8.9c-1.4,0-2.4-0.1-2.9-0.3h-0.1c-0.5,0.2-1.5,0.3-2.9,0.3H187v-2.6h7.2
		c-0.6-0.6-1-1.4-1.3-2.3c-0.3-0.9-0.5-1.9-0.5-3c0-1.9,0.4-3.4,1.2-4.6c0.6-0.9,1.5-1.6,2.6-2L196.2,216.9L196.2,216.9z
		 M202.7,225.5c0-1.5-0.3-2.6-1-3.5c-0.7-0.9-1.6-1.3-2.8-1.3s-2.1,0.4-2.8,1.3s-1,2-1,3.5c0,1.5,0.4,2.7,1.1,3.6
		c0.7,1,1.6,1.5,2.7,1.5c1.1-0.1,2-0.6,2.7-1.5C202.3,228.2,202.7,226.9,202.7,225.5z M210.9,226.6c0-3.2-0.6-5.4-1.7-6.8
		c-1.2-1.4-3-2.1-5.6-2.1c-1.6,0-3.2,0.2-4.7,0.7c2.4,0,4.1,0.9,5.2,2.6c0.8,1.2,1.2,2.7,1.2,4.5c0,0.9-0.1,1.8-0.4,2.7
		c-0.3,1-0.8,1.9-1.4,2.6h6c0.4,0,0.8-0.2,1.1-0.5c0.2-0.3,0.3-0.5,0.3-0.9L210.9,226.6L210.9,226.6z"/>
	<path class="st5" d="M223.1,230.9c-1.6-1.6-2.4-3.8-2.4-6.4c0-2.8,0.9-4.9,2.7-6.5c1.5-1.3,3.5-2,5.9-2c1.3,0,2.7,0.2,4.1,0.6v2.5
		c-1.5-0.4-2.7-0.6-3.8-0.6c-1.8,0-3.3,0.6-4.3,1.7s-1.5,2.7-1.5,4.6c0,1.6,0.5,3,1.6,4.3c1,1.1,2.2,1.7,3.5,1.7h7.5v1l-1.3,1.6H215
		v-2.6L223.1,230.9L223.1,230.9z"/>
	<path class="st5" d="M252.5,233.1c-1.3,0.5-2.6,0.7-4,0.7c-2.7,0-4.8-0.9-6.3-2.8c-1.4-1.6-2.1-3.8-2.1-6.3c0-2.6,0.7-4.7,2.2-6.2
		c1.6-1.6,3.6-2.4,6.3-2.4c2,0,3.6,0.5,4.9,1.5c1.5,1.2,2.3,2.9,2.3,5.2v10.4c0,3.2-1.1,5.5-3.1,7.1c-1,0.8-2.3,1.4-3.7,1.7
		c-1,0.2-2,0.3-3,0.3c-0.6,0-1.2,0-1.7,0l-1.2-1.5v-1.2c0.7,0.1,1.5,0.1,2.3,0.1C250.1,239.7,252.5,237.5,252.5,233.1z M252.5,222.8
		c0-1.5-0.5-2.7-1.6-3.4c-0.6-0.4-1.4-0.6-2.3-0.6c-1.6,0-2.9,0.6-3.9,1.7c-0.9,1.1-1.4,2.6-1.4,4.6c0,1.9,0.5,3.4,1.6,4.4
		c1,1,2.2,1.5,3.9,1.5c1.4,0,2.7-0.2,3.8-0.7L252.5,222.8L252.5,222.8z"/>
	<path class="st5" d="M270,216.5v14.4h1.9v2.6H270c-0.1,3.1-1.2,5.4-3.3,6.9c-1.7,1.3-3.9,1.9-6.6,1.9c-0.4,0-1,0-1.6,0l-1.2-1.5
		v-1.2c0.7,0.1,1.5,0.1,2.3,0.1c4.8,0,7.3-2.2,7.3-6.7v-16.6H270z"/>
	<path class="st5" d="M279.9,230.9c-0.9-0.9-1.6-1.9-2.1-3.2c-0.4-1-0.5-2.1-0.5-3.1c0-2.6,0.8-4.7,2.4-6.3c1.5-1.5,3.7-2.3,6.3-2.3
		c2,0,3.6,0.5,4.9,1.6c1.4,1.2,2.1,2.9,2.2,5.2v7.2c0,1-0.3,1.8-1,2.5c-0.6,0.7-1.4,1-2.3,1h-18.1v-2.6L279.9,230.9L279.9,230.9z
		 M289.9,222.8c0-1.4-0.4-2.4-1.2-3.2c-0.6-0.6-1.5-0.9-2.6-0.9c-2,0-3.5,0.7-4.5,2.1c-0.7,1-1,2.3-1,3.9c0,1.7,0.6,3.1,1.6,4.3
		c1.1,1.3,2.6,1.9,4.4,1.9h2c0.9,0,1.4-0.5,1.4-1.4L289.9,222.8L289.9,222.8z M286,208.3c0.5,0,1,0.2,1.3,0.5
		c0.4,0.4,0.5,0.8,0.5,1.3c0,0.5-0.2,1-0.5,1.3c-0.4,0.4-0.8,0.5-1.3,0.5c-0.5,0-0.9-0.2-1.3-0.5s-0.5-0.8-0.5-1.3
		c0-0.5,0.2-0.9,0.5-1.3S285.5,208.3,286,208.3z"/>
	<path class="st5" d="M305.5,222.5c0.9-2.2,2.3-3.9,4.3-5.1c1.6-0.9,3.3-1.4,5.1-1.4s3.4,0.5,5.1,1.4c2,1.2,3.5,2.9,4.3,5.1
		l-0.4,0.9c-1.7,0.7-3.1,1.7-4.1,2.9c-1.1,1.3-1.9,2.8-2.1,4.6h7v2.6h-7.5c-0.8,0-1.5-0.4-2.1-1.1h-0.1c-0.6,0.7-1.3,1-1.9,1.1
		c-2.5,0.1-4.2,0.9-5.1,2.3c-0.5,0.8-0.8,1.8-0.8,3c0,2.2,0.9,3.8,2.4,4.9c1.2,0.8,2.9,1.2,4.9,1.2c1.5,0,3.1-0.2,4.9-0.6v1
		l-1.4,1.8c-0.9,0.3-2.2,0.4-3.7,0.4c-2.9,0-5.1-0.6-6.8-1.8c-2.2-1.5-3.3-3.8-3.3-6.8c0-2,0.5-3.6,1.5-4.9c1.4-1.8,3.6-2.8,6.7-3
		c-0.3-1.5-0.9-2.9-1.9-4.3c-1.1-1.4-2.6-2.4-4.4-3.2L305.5,222.5z M320.8,222.1c-0.8-1.2-1.7-2.1-2.8-2.7c-1-0.5-2-0.8-3.2-0.8
		c-1.1,0-2.1,0.2-3,0.7c-1.1,0.5-2.1,1.5-2.9,2.7c1.3,0.6,2.4,1.4,3.3,2.4c1.1,1.3,2,2.9,2.6,4.8h0.1c0.6-2,1.5-3.6,2.7-4.9
		C318.5,223.4,319.6,222.7,320.8,222.1z"/>
	<path class="st5" d="M334.1,216.5V230c0,0.3,0,0.6-0.1,0.9h2v2.6h-1.4l-1.1-1.3h-0.1c-0.7,0.9-1.5,1.3-2.6,1.3h-6.4v-2.6h5.3
		c0.4,0,0.7-0.1,1-0.4c0.3-0.3,0.4-0.6,0.4-1v-13L334.1,216.5L334.1,216.5z M327.8,237.3c0.5,0,0.9,0.2,1.3,0.5s0.5,0.8,0.5,1.3
		c0,0.5-0.2,1-0.5,1.3c-0.4,0.4-0.8,0.5-1.3,0.5c-0.5,0-0.9-0.2-1.3-0.5s-0.5-0.8-0.5-1.3c0-0.5,0.2-0.9,0.5-1.3
		C326.9,237.5,327.3,237.3,327.8,237.3z M332.3,237.3c0.5,0,1,0.2,1.3,0.5c0.4,0.4,0.5,0.8,0.5,1.3c0,0.5-0.2,1-0.5,1.3
		c-0.4,0.4-0.8,0.5-1.3,0.5c-0.5,0-0.9-0.2-1.3-0.5s-0.5-0.8-0.5-1.3c0-0.5,0.2-0.9,0.5-1.3S331.8,237.3,332.3,237.3z"/>
	<path class="st5" d="M343,230.9c-1-1.6-1.5-3.5-1.5-5.7c0-3,0.8-5.3,2.5-6.9c1.5-1.4,3.5-2.2,6-2.2c1.8,0,3.2,0.4,4.4,1.1
		c1.8,1.2,2.7,3,2.7,5.6v6.7c0,0.4,0.1,0.6,0.3,0.9c0.2,0.3,0.5,0.5,0.9,0.5h0.1v2.6h-0.9c-1.1,0-2-0.4-2.7-1.3
		c-1.3,1.6-3,2.4-5.1,2.4c-2.1,0-4-0.8-5.6-2.4h-0.1l-1,1.3h-7.2v-2.6L343,230.9L343,230.9z M353.9,222.8c0-1.3-0.4-2.3-1.2-3.1
		c-0.7-0.7-1.6-1-2.8-1c-1.6,0-2.9,0.6-3.8,1.8s-1.4,2.7-1.4,4.6c0,2,0.5,3.7,1.5,5c1,1.3,2.2,1.9,3.6,1.9c1.4,0,2.8-0.6,4.1-2
		L353.9,222.8L353.9,222.8z"/>
	<path class="st5" d="M362.9,217.1c2.3-0.7,4.4-1.1,6.4-1.1c3.1,0,5.4,0.9,7,2.9c1.4,1.6,2.1,3.8,2.1,6.4v4.7c0,0.8-0.3,1.6-0.8,2.2
		c-0.6,0.9-1.5,1.3-2.5,1.3h-17v-2.6h15.8c0.9,0,1.4-0.5,1.4-1.4v-4.3c0-1.9-0.5-3.4-1.5-4.6c-1.1-1.2-2.7-1.9-4.9-1.9
		c-1.3,0-3.3,0.3-5.9,0.8L362.9,217.1L362.9,217.1z M367.3,237.3c0.5,0,1,0.2,1.3,0.5c0.4,0.4,0.5,0.8,0.5,1.3c0,0.5-0.2,1-0.5,1.3
		c-0.4,0.4-0.8,0.5-1.3,0.5c-0.5,0-0.9-0.2-1.3-0.5s-0.5-0.8-0.5-1.3c0-0.5,0.2-0.9,0.5-1.3S366.8,237.3,367.3,237.3z"/>
	<path class="st5" d="M392.9,227v6c0,2.4,0.6,4.2,1.9,5.1c1.3,1,3.5,1.5,6.7,1.5c3.1,0,5.2-0.4,6.4-1.1c1.5-0.9,2.4-2.6,2.4-5.1
		h-2.8l-1.3-1.6v-1h8.3v2.6h-1c-0.1,3-1.1,5.3-3.1,6.8c-1.7,1.4-4,2-6.7,2h-4.1c-3.1,0-5.5-0.8-7.3-2.5c-1.7-1.6-2.5-3.8-2.5-6.7
		v-4.8l1.6-1.3L392.9,227L392.9,227z M399.4,244.5c0.5,0,0.9,0.2,1.3,0.5s0.5,0.8,0.5,1.3c0,0.5-0.2,0.9-0.5,1.3s-0.8,0.5-1.3,0.5
		c-0.5,0-0.9-0.2-1.3-0.5s-0.5-0.8-0.5-1.3c0-0.5,0.2-1,0.5-1.3S398.9,244.5,399.4,244.5z M403.9,244.5c0.5,0,0.9,0.2,1.3,0.5
		s0.5,0.8,0.5,1.3c0,0.5-0.2,0.9-0.5,1.3s-0.8,0.5-1.3,0.5c-0.5,0-1-0.2-1.3-0.5s-0.5-0.8-0.5-1.3c0-0.5,0.2-1,0.5-1.3
		S403.4,244.5,403.9,244.5z"/>
	<path class="st5" d="M420.1,230.9c-0.9-0.9-1.6-1.9-2.1-3.2c-0.4-1-0.5-2.1-0.5-3.1c0-2.6,0.8-4.7,2.4-6.3c1.5-1.5,3.7-2.3,6.3-2.3
		c2,0,3.6,0.5,4.9,1.6c1.4,1.2,2.1,2.9,2.2,5.2v7.2c0,1-0.3,1.8-1,2.5c-0.6,0.7-1.4,1-2.3,1h-18.1v-2.6L420.1,230.9L420.1,230.9z
		 M430,222.8c0-1.4-0.4-2.4-1.2-3.2c-0.6-0.6-1.5-0.9-2.6-0.9c-2,0-3.5,0.7-4.5,2.1c-0.7,1-1,2.3-1,3.9c0,1.7,0.6,3.1,1.6,4.3
		c1.1,1.3,2.6,1.9,4.4,1.9h2c0.9,0,1.4-0.5,1.4-1.4L430,222.8L430,222.8z M426.2,208.3c0.5,0,1,0.2,1.3,0.5s0.5,0.8,0.5,1.3
		c0,0.5-0.2,1-0.5,1.3s-0.8,0.5-1.3,0.5c-0.5,0-0.9-0.2-1.3-0.5s-0.5-0.8-0.5-1.3c0-0.5,0.2-0.9,0.5-1.3S425.7,208.3,426.2,208.3z"
		/>
	<path class="st5" d="M447.8,233.1c0,2.4,0.6,4.1,1.9,5.1c1.3,1,3.6,1.5,6.8,1.5c2.8,0,4.8-0.3,6-0.8c1.8-0.8,2.7-2.1,2.7-4
		c0-1.3-0.3-2.2-1-2.9c-0.7-0.6-2-1.2-4-1.8c-2.5-0.7-4.2-1.5-5.1-2.4c-1.2-1.1-1.7-2.7-1.7-4.7c0-2.5,0.8-4.4,2.3-5.6
		c1.3-1,3-1.6,5.1-1.6c1.4,0,2.9,0.2,4.4,0.7v2.4c-1.6-0.4-3-0.6-4-0.6c-3.2,0-4.7,1.5-4.7,4.6c0,1.2,0.3,2.1,1,2.7s2,1.2,3.9,1.8
		c2.5,0.7,4.2,1.6,5.1,2.6c1.1,1.1,1.7,2.7,1.7,4.7c0,2.7-1.1,4.7-3.4,6c-1.7,0.9-3.8,1.4-6.3,1.4h-4.1c-3.1,0-5.5-0.8-7.3-2.5
		c-1.7-1.6-2.5-3.8-2.5-6.7v-4.8l1.6-1.3h1.5L447.8,233.1L447.8,233.1z M454.2,244.5c0.5,0,0.9,0.2,1.3,0.5s0.5,0.8,0.5,1.3
		c0,0.5-0.2,0.9-0.5,1.3s-0.8,0.5-1.3,0.5c-0.5,0-0.9-0.2-1.3-0.5s-0.5-0.8-0.5-1.3c0-0.5,0.2-1,0.5-1.3S453.7,244.5,454.2,244.5z
		 M458.7,244.5c0.5,0,0.9,0.2,1.3,0.5s0.5,0.8,0.5,1.3c0,0.5-0.2,0.9-0.5,1.3c-0.4,0.4-0.8,0.5-1.3,0.5c-0.5,0-1-0.2-1.3-0.5
		s-0.5-0.8-0.5-1.3c0-0.5,0.2-1,0.5-1.3S458.2,244.5,458.7,244.5z"/>
	<path class="st5" d="M484.4,233.1c-1.3,0.5-2.6,0.7-4,0.7c-2.7,0-4.8-0.9-6.3-2.8c-1.4-1.6-2.1-3.8-2.1-6.3c0-2.6,0.7-4.7,2.2-6.2
		c1.5-1.6,3.6-2.4,6.3-2.4c2,0,3.6,0.5,4.9,1.5c1.5,1.2,2.3,2.9,2.3,5.2v10.4c0,3.2-1.1,5.5-3.1,7.1c-1,0.8-2.3,1.4-3.7,1.7
		c-1,0.2-2,0.3-3,0.3c-0.6,0-1.2,0-1.7,0l-1.2-1.5v-1.2c0.7,0.1,1.5,0.1,2.3,0.1C482,239.7,484.4,237.5,484.4,233.1z M484.4,222.8
		c0-1.5-0.5-2.7-1.6-3.4c-0.6-0.4-1.4-0.6-2.3-0.6c-1.6,0-3,0.6-3.9,1.7c-1,1.1-1.4,2.6-1.4,4.6c0,1.9,0.5,3.4,1.6,4.4
		c1,1,2.3,1.5,3.9,1.5c1.4,0,2.7-0.2,3.8-0.7L484.4,222.8L484.4,222.8z"/>
	<path class="st5" d="M495.3,207v26.1l-1.6,1.3h-1.5V207L495.3,207L495.3,207z"/>
	<path class="st5" d="M503.1,216.2c0.9-0.1,1.8-0.2,2.9-0.2c2.7,0,5,0.8,6.6,2.5c1.5,1.5,2.3,3.5,2.3,5.8v5.7c0,1-0.3,1.8-0.9,2.4
		c-0.6,0.7-1.4,1.1-2.4,1.1h-12.2v-2.6h11c0.9,0,1.4-0.5,1.4-1.4v-4.7c0-1.8-0.5-3.2-1.6-4.4c-1.1-1.2-2.9-1.8-5.3-1.8
		c-0.7,0-1.3,0.1-1.7,0.1L503.1,216.2L503.1,216.2z"/>
	<path class="st5" d="M530.7,230.9c-1.3-1.4-2-3.3-2-5.7c0-2.9,0.8-5.1,2.5-6.8c1.5-1.5,3.5-2.2,6-2.3c2.1,0,3.7,0.5,5,1.6
		c1.4,1.2,2.2,2.9,2.2,5.1v7.2c0,1-0.3,1.8-1,2.5c-0.6,0.7-1.4,1-2.3,1h-10.6c-0.9,0-1.4,0.5-1.4,1.4V246l-1.6,1.3h-1.5v-12.9
		c0-0.9,0.3-1.8,1-2.4s1.5-1,2.4-1L530.7,230.9L530.7,230.9z M541.1,222.8c0-1.1-0.3-2.1-0.9-2.8c-0.7-0.8-1.8-1.3-3.1-1.3
		c-1.5,0-2.8,0.6-3.8,1.7s-1.5,2.6-1.5,4.4c0,1.9,0.5,3.4,1.4,4.6c0.9,1,1.9,1.5,3.2,1.5h3.3c0.9,0,1.4-0.5,1.4-1.4V222.8z"/>
	<path class="st5" d="M551.5,216.2c0.9-0.1,1.8-0.2,2.8-0.2c2.7,0,5,0.8,6.6,2.5c1.5,1.5,2.3,3.5,2.3,5.8v5.7c0,0.3,0,0.6-0.1,0.9h1
		v2.6h-0.5l-1-1.3h-0.1c-0.2,0.3-0.4,0.5-0.7,0.7c-0.6,0.4-1.2,0.6-1.9,0.6h-12.1v-2.6h11c0.9,0,1.4-0.5,1.4-1.4v-4.7
		c0-1.8-0.5-3.2-1.6-4.4c-1.1-1.2-2.9-1.8-5.3-1.8c-0.7,0-1.3,0.1-1.7,0.1L551.5,216.2L551.5,216.2z"/>
	<path class="st5" d="M572,230.9c-1.5-1.7-2.3-3.8-2.3-6.3c0-2.4,0.7-4.4,2-5.9c1.5-1.8,3.5-2.7,6-2.7c2,0,3.7,0.6,5.1,1.8
		c1.9,1.6,2.9,3.9,2.9,6.8c0,2.5-0.8,4.6-2.3,6.3h3.2v2.6h-5.3h-0.4c-1.5,0-2.5-0.1-3.1-0.3h-0.2c-0.6,0.2-1.6,0.3-3.1,0.3H574
		h-10.1v-2.6L572,230.9L572,230.9z M577.6,218.7c-1.5,0-2.7,0.5-3.5,1.6s-1.3,2.5-1.3,4.4c0,1.7,0.5,3.1,1.4,4.3
		c0.9,1.2,2.1,1.8,3.4,1.9c1.4-0.1,2.5-0.7,3.4-1.9c0.9-1.2,1.4-2.6,1.4-4.3c0-1.9-0.4-3.3-1.3-4.4
		C580.3,219.2,579.1,218.7,577.6,218.7z M575.5,208.3c0.5,0,0.9,0.2,1.3,0.5s0.5,0.8,0.5,1.3c0,0.5-0.2,1-0.5,1.3s-0.8,0.5-1.3,0.5
		c-0.5,0-0.9-0.2-1.3-0.5s-0.5-0.8-0.5-1.3c0-0.5,0.2-0.9,0.5-1.3S575,208.3,575.5,208.3z M580,208.3c0.5,0,1,0.2,1.3,0.5
		s0.5,0.8,0.5,1.3c0,0.5-0.2,1-0.5,1.3s-0.8,0.5-1.3,0.5c-0.5,0-0.9-0.2-1.3-0.5s-0.5-0.8-0.5-1.3c0-0.5,0.2-0.9,0.5-1.3
		S579.5,208.3,580,208.3z"/>
	<path class="st5" d="M596,216.5V230c0,0.9-0.3,1.7-0.9,2.4c-0.7,0.8-1.5,1.1-2.5,1.1h-6.4v-2.6h5.3c0.4,0,0.8-0.1,1-0.4
		c0.3-0.3,0.4-0.6,0.4-1v-13L596,216.5L596,216.5z M590,208.3c0.5,0,1,0.2,1.3,0.5s0.5,0.8,0.5,1.3c0,0.5-0.2,1-0.5,1.3
		s-0.8,0.5-1.3,0.5c-0.5,0-0.9-0.2-1.3-0.5c-0.4-0.4-0.5-0.8-0.5-1.3c0-0.5,0.2-0.9,0.5-1.3C589.1,208.5,589.5,208.3,590,208.3z
		 M594.5,208.3c0.5,0,0.9,0.2,1.3,0.5s0.5,0.8,0.5,1.3c0,0.5-0.2,1-0.5,1.3s-0.8,0.5-1.3,0.5c-0.5,0-1-0.2-1.3-0.5s-0.5-0.8-0.5-1.3
		c0-0.5,0.2-0.9,0.5-1.3S594,208.3,594.5,208.3z"/>
</g>
<g class="st6">
	<path class="st5" d="M84.5,263.5v14c0,0.4,0.1,0.8,0.4,1c0.2,0.3,0.5,0.4,0.7,0.4h0.7v2.6h-1.6c-1.1,0-2-0.4-2.7-1.3
		c-1.6,1.1-3.3,1.7-5.2,1.7c-2.6,0-4.6-1-6.1-3c-1.2-1.6-1.8-3.6-1.8-5.9c0-2.7,0.9-4.9,2.7-6.7c1.6-1.6,3.5-2.4,5.8-2.4
		c1.3,0,2.6,0.3,4,0.9l1.6-1.3L84.5,263.5L84.5,263.5z M81.3,267.3c-1.1-0.5-2.2-0.8-3.3-0.8c-1.9,0-3.4,0.7-4.6,2.2
		c-1,1.2-1.4,2.6-1.4,4.3c0,2,0.5,3.5,1.4,4.7c0.9,1,2.2,1.5,3.7,1.5c1.3,0,2.7-0.4,4.2-1.1L81.3,267.3L81.3,267.3z M78.2,256.3
		c0.5,0,0.9,0.2,1.3,0.5c0.4,0.4,0.5,0.8,0.5,1.3c0,0.5-0.2,1-0.5,1.3c-0.4,0.4-0.8,0.5-1.3,0.5c-0.5,0-0.9-0.2-1.3-0.5
		s-0.5-0.8-0.5-1.3c0-0.5,0.2-0.9,0.5-1.3S77.7,256.3,78.2,256.3z M82.6,256.3c0.5,0,1,0.2,1.3,0.5s0.5,0.8,0.5,1.3
		c0,0.5-0.2,1-0.5,1.3s-0.8,0.5-1.3,0.5c-0.5,0-0.9-0.2-1.3-0.5c-0.4-0.4-0.5-0.8-0.5-1.3c0-0.5,0.2-0.9,0.5-1.3
		C81.7,256.5,82.1,256.3,82.6,256.3z"/>
	<path class="st5" d="M95.9,264.5V278c0,0.3,0,0.6-0.1,0.9h2v2.6h-1.4l-1.1-1.3h-0.1c-0.7,0.9-1.5,1.3-2.6,1.3h-6.4v-2.6h5.3
		c0.4,0,0.7-0.1,1-0.4c0.3-0.3,0.4-0.6,0.4-1v-13L95.9,264.5L95.9,264.5z M89.6,285.3c0.5,0,0.9,0.2,1.3,0.5
		c0.4,0.4,0.5,0.8,0.5,1.3c0,0.5-0.2,1-0.5,1.3c-0.4,0.4-0.8,0.5-1.3,0.5c-0.5,0-0.9-0.2-1.3-0.5c-0.4-0.4-0.5-0.8-0.5-1.3
		c0-0.5,0.2-0.9,0.5-1.3C88.6,285.5,89.1,285.3,89.6,285.3z M94,285.3c0.5,0,1,0.2,1.3,0.5c0.4,0.4,0.5,0.8,0.5,1.3
		c0,0.5-0.2,1-0.5,1.3c-0.4,0.4-0.8,0.5-1.3,0.5c-0.5,0-0.9-0.2-1.3-0.5c-0.4-0.4-0.5-0.8-0.5-1.3c0-0.5,0.2-0.9,0.5-1.3
		S93.5,285.3,94,285.3z"/>
	<path class="st5" d="M132.7,264.5V278c0,1-0.3,1.8-1,2.5s-1.4,1-2.4,1h-7.1l-1.2-1.3h-0.1c-0.7,0.9-1.6,1.3-2.6,1.3h-7.1l-1.2-1.3
		h-0.1c-0.7,0.9-1.6,1.3-2.6,1.3h-9.8v-2.6h8.6c0.9,0,1.4-0.5,1.4-1.4v-8.7h3.2v9.3c0,0.3,0,0.6-0.1,0.9h6.6c0.9,0,1.4-0.5,1.4-1.4
		v-10.9h3.2V278c0,0.3,0,0.6-0.1,0.9h6.6c0.9,0,1.4-0.5,1.4-1.4v-13L132.7,264.5L132.7,264.5z"/>
	<path class="st5" d="M140.9,255v22.5c0,0.4,0.1,0.7,0.4,1c0.3,0.3,0.6,0.4,1,0.4h0.5v2.6h-1.7c-0.8,0-1.5-0.3-2.1-0.8
		c-0.8-0.7-1.3-1.6-1.3-2.7v-23L140.9,255L140.9,255z"/>
	<path class="st5" d="M177.7,264.5V278c0,1-0.3,1.8-1,2.5s-1.4,1-2.4,1h-7.1l-1.2-1.3H166c-0.7,0.9-1.6,1.3-2.6,1.3h-7.1l-1.2-1.3
		h-0.1c-0.7,0.9-1.6,1.3-2.6,1.3h-9.8v-2.6h8.6c0.9,0,1.4-0.5,1.4-1.4v-8.7h3.1v9.3c0,0.3,0,0.6-0.1,0.9h6.6c0.9,0,1.4-0.5,1.4-1.4
		v-10.9h3.1V278c0,0.3,0,0.6-0.1,0.9h6.6c0.9,0,1.4-0.5,1.4-1.4v-13L177.7,264.5L177.7,264.5z"/>
	<path class="st5" d="M202.4,255v23c0,0.8-0.3,1.6-0.8,2.2c-0.7,0.9-1.6,1.3-2.6,1.3h-16.2l-1.3-1.6v-1h9.9l-6.4-19.3h3.1l6.4,19.3
		h3.2c0.4,0,0.8-0.2,1.1-0.5c0.2-0.3,0.3-0.6,0.3-0.9V255L202.4,255L202.4,255z M184.2,255.7c-0.5-0.7-0.8-1.5-0.8-2.4
		s0.3-1.7,0.9-2.3s1.3-0.9,2.3-0.9c0.6,0,1.2,0.1,1.8,0.3v1.5c-0.4-0.1-0.9-0.2-1.3-0.2c-1.3,0-1.9,0.6-1.9,2c0,0.5,0.2,0.9,0.5,1.3
		c0.4,0.5,0.9,0.7,1.6,0.7h2.4v0.6l-0.7,0.9h-6.3v-1.5L184.2,255.7L184.2,255.7z"/>
	<path class="st5" d="M210.6,255v26.1l-1.6,1.3h-1.6V255L210.6,255L210.6,255z"/>
	<path class="st5" d="M252.8,264.5V278c0,0.9-0.3,1.6-0.8,2.3c-0.7,0.8-1.5,1.2-2.5,1.2h-21.2c-1.4,0-2.7-0.5-3.7-1.4
		c-1.4-1.2-2.1-2.8-2.1-4.7v-7l1.6-1.3h1.6v8.3c0,1,0.3,1.8,1,2.4c0.7,0.7,1.5,1,2.5,1h19.1c0.9,0,1.4-0.5,1.4-1.4v-13L252.8,264.5
		L252.8,264.5z M235.5,263.5c0.5,0,0.9,0.2,1.3,0.5s0.5,0.8,0.5,1.3c0,0.5-0.2,0.9-0.5,1.3s-0.8,0.5-1.3,0.5c-0.5,0-0.9-0.2-1.3-0.5
		c-0.4-0.4-0.5-0.8-0.5-1.3c0-0.5,0.2-1,0.5-1.3C234.5,263.6,235,263.5,235.5,263.5z M240,263.5c0.5,0,1,0.2,1.3,0.5
		s0.5,0.8,0.5,1.3c0,0.5-0.2,0.9-0.5,1.3s-0.8,0.5-1.3,0.5c-0.5,0-0.9-0.2-1.3-0.5c-0.4-0.4-0.5-0.8-0.5-1.3c0-0.5,0.2-1,0.5-1.3
		S239.5,263.5,240,263.5z"/>
	<path class="st5" d="M261.1,255v22.5c0,0.4,0.1,0.7,0.4,1c0.3,0.3,0.6,0.4,1,0.4h0.5v2.6h-1.7c-0.8,0-1.5-0.3-2.1-0.8
		c-0.8-0.7-1.3-1.6-1.3-2.7v-23L261.1,255L261.1,255z"/>
	<path class="st5" d="M272.5,272.6c3.4-5.7,7.8-8.6,13.2-8.6c3,0,5.4,0.9,7.2,2.8c1.6,1.6,2.4,3.8,2.4,6.3v4.9c0,1-0.4,1.9-1.1,2.6
		c-0.6,0.6-1.4,0.9-2.3,0.9h-29.3v-2.6h6.7v-14.4h3.1V272.6z M292.2,272.7c0-2-0.8-3.5-2.2-4.6c-1.2-0.9-2.8-1.4-4.6-1.4
		c-2,0-3.9,0.6-5.7,1.7c-3,2-5.4,5.4-7.2,10.4h18.3c0.9,0,1.4-0.5,1.4-1.4V272.7z"/>
	<path class="st5" d="M307.8,281.5c-2.8,0-5-0.9-6.5-2.8c-1.3-1.5-1.9-3.5-1.9-6c0-2.8,0.8-5,2.5-6.5c1.5-1.4,3.5-2.1,6-2.1
		c1.9,0,3.5,0.5,4.8,1.4c1.5,1.2,2.3,3,2.3,5.3v8.1h1.2v2.6h-1.2c-0.1,2.6-0.9,4.6-2.3,6.1c-1.1,1.1-2.5,1.9-4.3,2.3
		c-1,0.3-2.1,0.4-3.2,0.4c-0.6,0-1.2,0-1.7,0l-1.2-1.5v-1.2c0.7,0.1,1.5,0.1,2.3,0.1c4.7,0,7.1-2.1,7.3-6.2H307.8z M311.9,270.8
		c0-1.3-0.4-2.3-1.1-3c-0.7-0.7-1.7-1.1-2.9-1.1c-1.6,0-3,0.5-3.9,1.7c-1,1.1-1.4,2.6-1.4,4.6c0,1.8,0.5,3.2,1.4,4.3
		c1,1.1,2.2,1.6,3.7,1.6h4.1L311.9,270.8L311.9,270.8z"/>
	<path class="st5" d="M320.9,265.1c2.3-0.7,4.4-1.1,6.4-1.1c3.1,0,5.4,1,7,2.9c1.4,1.6,2.1,3.8,2.1,6.4v4.7c0,0.3,0,0.6-0.1,0.9h1.3
		v2.6h-0.8l-1-1.3h-0.1c-0.7,0.9-1.5,1.3-2.6,1.3h-17v-2.6h15.8c0.9,0,1.4-0.5,1.4-1.4v-4.3c0-1.9-0.5-3.4-1.5-4.5
		c-1.1-1.2-2.7-1.9-4.9-1.9c-1.3,0-3.3,0.3-5.9,0.8L320.9,265.1L320.9,265.1z"/>
	<path class="st5" d="M345.3,278.9c-1.5-1.7-2.3-3.8-2.3-6.3c0-2.4,0.6-4.4,2-5.9c1.5-1.8,3.5-2.7,6-2.7c2,0,3.7,0.6,5.1,1.8
		c1.9,1.6,2.9,3.9,2.9,6.8c0,2.5-0.8,4.6-2.3,6.3h3.2v2.6h-5.3H354c-1.5,0-2.5-0.1-3.1-0.3h-0.1c-0.6,0.2-1.6,0.3-3.1,0.3h-0.4
		h-10.1v-2.6L345.3,278.9L345.3,278.9z M350.9,266.7c-1.5,0-2.7,0.5-3.5,1.6s-1.3,2.5-1.3,4.4c0,1.7,0.5,3.1,1.4,4.3
		c0.9,1.2,2.1,1.8,3.4,1.9c1.4,0,2.5-0.7,3.4-1.9s1.4-2.6,1.4-4.3c0-1.9-0.4-3.3-1.3-4.4C353.6,267.2,352.4,266.7,350.9,266.7z
		 M351.1,256.3c0.5,0,0.9,0.2,1.3,0.5c0.4,0.4,0.5,0.8,0.5,1.3c0,0.5-0.2,1-0.5,1.3c-0.4,0.4-0.8,0.5-1.3,0.5c-0.5,0-1-0.2-1.3-0.5
		c-0.4-0.4-0.5-0.8-0.5-1.3c0-0.5,0.2-0.9,0.5-1.3C350.1,256.5,350.5,256.3,351.1,256.3z"/>
	<path class="st5" d="M369.3,255v23c0,1-0.3,1.8-1,2.4c-0.7,0.7-1.5,1.1-2.4,1.1h-6.4v-2.6h5.3c0.5,0,0.8-0.2,1.1-0.5
		c0.2-0.3,0.3-0.6,0.3-0.9V255L369.3,255L369.3,255z"/>
	<path class="st5" d="M377.6,255v26.1l-1.6,1.3h-1.5V255L377.6,255L377.6,255z"/>
	<path class="st5" d="M394.6,281.1c-1.3,0.5-2.6,0.7-4,0.7c-2.7,0-4.8-0.9-6.3-2.8c-1.4-1.6-2.1-3.8-2.1-6.3c0-2.6,0.7-4.7,2.2-6.2
		c1.5-1.6,3.6-2.4,6.3-2.4c2,0,3.6,0.5,4.9,1.5c1.5,1.2,2.3,3,2.3,5.2v10.4c0,3.2-1.1,5.5-3.1,7.1c-1,0.8-2.3,1.4-3.7,1.7
		c-1,0.2-2,0.3-3,0.3c-0.6,0-1.2,0-1.7,0l-1.2-1.5v-1.2c0.7,0.1,1.5,0.1,2.3,0.1C392.1,287.7,394.5,285.5,394.6,281.1z M394.6,270.8
		c0-1.5-0.5-2.7-1.6-3.4c-0.6-0.4-1.4-0.6-2.3-0.6c-1.6,0-3,0.5-3.9,1.7c-1,1.1-1.4,2.6-1.4,4.6c0,1.9,0.5,3.4,1.6,4.4
		c1,1,2.3,1.5,3.9,1.5c1.4,0,2.7-0.2,3.8-0.7L394.6,270.8L394.6,270.8z"/>
	<path class="st5" d="M424.2,263.5v14c0,0.4,0.1,0.8,0.4,1c0.2,0.3,0.5,0.4,0.7,0.4h0.7v2.6h-1.5c-1.1,0-2-0.4-2.7-1.3
		c-1.6,1.1-3.3,1.7-5.2,1.7c-2.6,0-4.6-1-6.1-3c-1.2-1.6-1.9-3.6-1.9-5.9c0-2.7,0.9-4.9,2.7-6.7c1.6-1.6,3.5-2.4,5.8-2.4
		c1.3,0,2.6,0.3,4,0.9l1.6-1.3L424.2,263.5L424.2,263.5z M421.1,267.3c-1.1-0.5-2.2-0.8-3.3-0.8c-1.9,0-3.4,0.7-4.5,2.2
		c-1,1.2-1.4,2.6-1.4,4.3c0,2,0.5,3.5,1.4,4.7c0.9,1,2.1,1.5,3.7,1.5c1.3,0,2.7-0.4,4.2-1.1L421.1,267.3L421.1,267.3z M417.9,256.3
		c0.5,0,0.9,0.2,1.3,0.5s0.5,0.8,0.5,1.3c0,0.5-0.2,1-0.5,1.3s-0.8,0.5-1.3,0.5c-0.5,0-0.9-0.2-1.3-0.5c-0.4-0.4-0.5-0.8-0.5-1.3
		c0-0.5,0.2-0.9,0.5-1.3C417,256.5,417.4,256.3,417.9,256.3z M422.4,256.3c0.5,0,1,0.2,1.3,0.5s0.5,0.8,0.5,1.3c0,0.5-0.2,1-0.5,1.3
		s-0.8,0.5-1.3,0.5c-0.5,0-0.9-0.2-1.3-0.5s-0.5-0.8-0.5-1.3c0-0.5,0.2-0.9,0.5-1.3S421.9,256.3,422.4,256.3z"/>
	<path class="st5" d="M435.6,264.5V278c0,0.3,0,0.6-0.1,0.9h2v2.6H436l-1.1-1.3h-0.1c-0.7,0.9-1.5,1.3-2.6,1.3h-6.4v-2.6h5.3
		c0.4,0,0.7-0.1,1-0.4c0.3-0.3,0.4-0.6,0.4-1v-13L435.6,264.5L435.6,264.5z M429.3,285.3c0.5,0,0.9,0.2,1.3,0.5
		c0.4,0.4,0.5,0.8,0.5,1.3c0,0.5-0.2,1-0.5,1.3c-0.4,0.4-0.8,0.5-1.3,0.5c-0.5,0-0.9-0.2-1.3-0.5c-0.4-0.4-0.5-0.8-0.5-1.3
		c0-0.5,0.2-0.9,0.5-1.3C428.4,285.5,428.8,285.3,429.3,285.3z M433.8,285.3c0.5,0,1,0.2,1.3,0.5c0.4,0.4,0.5,0.8,0.5,1.3
		c0,0.5-0.2,1-0.5,1.3c-0.4,0.4-0.8,0.5-1.3,0.5c-0.5,0-0.9-0.2-1.3-0.5c-0.4-0.4-0.5-0.8-0.5-1.3c0-0.5,0.2-0.9,0.5-1.3
		C432.8,285.5,433.3,285.3,433.8,285.3z"/>
	<path class="st5" d="M447,264.5V278c0,0.3,0,0.6-0.1,0.9h2v2.6h-1.4l-1.1-1.3h-0.1c-0.7,0.9-1.5,1.3-2.6,1.3h-6.4v-2.6h5.3
		c0.4,0,0.7-0.1,1-0.4c0.3-0.3,0.4-0.6,0.4-1v-13L447,264.5L447,264.5z M445.2,285.3c0.5,0,1,0.2,1.3,0.5c0.4,0.4,0.5,0.8,0.5,1.3
		c0,0.5-0.2,1-0.5,1.3c-0.4,0.4-0.8,0.5-1.3,0.5c-0.5,0-0.9-0.2-1.3-0.5c-0.4-0.4-0.5-0.8-0.5-1.3c0-0.5,0.2-0.9,0.5-1.3
		C444.2,285.5,444.7,285.3,445.2,285.3z"/>
	<path class="st5" d="M458.4,255v17.6c3.4-5.7,7.8-8.6,13.3-8.6c3,0,5.3,0.9,7.1,2.7c1.6,1.6,2.4,3.8,2.4,6.3v4.9
		c0,0.3,0,0.6-0.1,0.9h1.3v2.6h-0.8l-1.1-1.3h-0.1c-0.7,0.9-1.5,1.3-2.6,1.3h-29.3v-2.6h6.7V255L458.4,255L458.4,255z M478,272.7
		c0-2-0.8-3.6-2.3-4.7c-1.2-0.9-2.7-1.3-4.5-1.3c-2.1,0-4.1,0.6-5.9,1.9c-2.9,2-5.2,5.4-6.9,10.2h18.3c0.9,0,1.4-0.5,1.4-1.4
		L478,272.7L478,272.7z"/>
	<path class="st5" d="M491.9,255v23c0,1-0.3,1.8-1,2.4c-0.7,0.7-1.5,1.1-2.4,1.1h-6.4v-2.6h5.3c0.5,0,0.8-0.2,1.1-0.5
		c0.2-0.3,0.3-0.6,0.3-0.9V255L491.9,255L491.9,255z"/>
	<path class="st5" d="M500.2,255v26.1l-1.6,1.3H497V255L500.2,255L500.2,255z"/>
	<path class="st5" d="M535.8,255v23.9h1.9v2.6h-1.9c-0.1,2.8-1,5-2.7,6.5c-1.8,1.5-4.1,2.3-7.1,2.3h-4.1c-2.9,0-5.3-0.8-7-2.3
		c-1.9-1.6-2.8-3.9-2.8-6.9v-7.7l1.6-1.3h1.5v9c0,2.5,0.7,4.2,1.9,5.2s3.6,1.5,6.8,1.5c3.1,0,5.3-0.4,6.5-1.3c1.5-1,2.2-2.8,2.2-5.4
		V255L535.8,255L535.8,255z"/>
	<path class="st5" d="M547.2,264.5V278c0,0.3,0,0.6-0.1,0.9h2v2.6h-1.4l-1.1-1.3h-0.1c-0.7,0.9-1.5,1.3-2.6,1.3h-6.4v-2.6h5.3
		c0.4,0,0.7-0.1,1-0.4c0.3-0.3,0.4-0.6,0.4-1v-13L547.2,264.5L547.2,264.5z M540.9,285.3c0.5,0,0.9,0.2,1.3,0.5
		c0.4,0.4,0.5,0.8,0.5,1.3c0,0.5-0.2,1-0.5,1.3c-0.4,0.4-0.8,0.5-1.3,0.5c-0.5,0-0.9-0.2-1.3-0.5c-0.4-0.4-0.5-0.8-0.5-1.3
		c0-0.5,0.2-0.9,0.5-1.3C540,285.5,540.4,285.3,540.9,285.3z M545.4,285.3c0.5,0,1,0.2,1.3,0.5c0.4,0.4,0.5,0.8,0.5,1.3
		c0,0.5-0.2,1-0.5,1.3c-0.4,0.4-0.8,0.5-1.3,0.5c-0.5,0-0.9-0.2-1.3-0.5c-0.4-0.4-0.5-0.8-0.5-1.3c0-0.5,0.2-0.9,0.5-1.3
		S544.9,285.3,545.4,285.3z"/>
	<path class="st5" d="M558.6,255v23c0,1-0.3,1.8-1,2.4c-0.7,0.7-1.5,1.1-2.4,1.1h-6.4v-2.6h5.3c0.5,0,0.8-0.2,1.1-0.5
		c0.2-0.3,0.3-0.6,0.3-0.9V255L558.6,255L558.6,255z"/>
	<path class="st5" d="M566.9,255v22.5c0,0.4,0.1,0.7,0.4,1c0.3,0.3,0.6,0.4,1,0.4h0.5v2.6h-1.7c-0.8,0-1.5-0.3-2.1-0.8
		c-0.8-0.7-1.3-1.6-1.3-2.7v-23L566.9,255L566.9,255z"/>
	<path class="st5" d="M573.4,265.1c2.3-0.7,4.4-1.1,6.4-1.1c3.1,0,5.4,1,7,2.9c1.4,1.6,2.1,3.8,2.1,6.4v4.7c0,0.3,0,0.6-0.1,0.9h1.3
		v2.6h-0.8l-1-1.3h-0.1c-0.7,0.9-1.5,1.3-2.6,1.3h-17v-2.6h15.8c0.9,0,1.4-0.5,1.4-1.4v-4.3c0-1.9-0.5-3.4-1.5-4.5
		c-1.1-1.2-2.7-1.9-4.8-1.9c-1.3,0-3.3,0.3-5.9,0.8L573.4,265.1L573.4,265.1z"/>
	<path class="st5" d="M599.6,264.5V278c0,0.3,0,0.6-0.1,0.9h2v2.6H600l-1.1-1.3h-0.1c-0.7,0.9-1.5,1.3-2.6,1.3h-6.4v-2.6h5.3
		c0.4,0,0.7-0.1,1-0.4c0.3-0.3,0.4-0.6,0.4-1v-13L599.6,264.5L599.6,264.5z M593.6,256.3c0.5,0,1,0.2,1.3,0.5
		c0.3,0.4,0.5,0.8,0.5,1.3c0,0.5-0.2,1-0.5,1.3c-0.3,0.4-0.8,0.5-1.3,0.5c-0.5,0-0.9-0.2-1.3-0.5c-0.4-0.4-0.5-0.8-0.5-1.3
		c0-0.5,0.2-0.9,0.5-1.3C592.7,256.5,593.1,256.3,593.6,256.3z M598.1,256.3c0.5,0,0.9,0.2,1.3,0.5s0.5,0.8,0.5,1.3
		c0,0.5-0.2,1-0.5,1.3s-0.8,0.5-1.3,0.5c-0.5,0-1-0.2-1.3-0.5s-0.5-0.8-0.5-1.3c0-0.5,0.2-0.9,0.5-1.3S597.6,256.3,598.1,256.3z"/>
	<path class="st5" d="M611,255v23c0,1-0.3,1.8-1,2.4c-0.7,0.7-1.5,1.1-2.4,1.1h-6.4v-2.6h5.3c0.5,0,0.8-0.2,1.1-0.5
		c0.2-0.3,0.3-0.6,0.3-0.9V255L611,255L611,255z"/>
	<path class="st5" d="M619.2,255v26.1l-1.6,1.3h-1.5V255L619.2,255L619.2,255z"/>
</g>
<g class="st6">
	<path class="st5" d="M80.3,323v6c0,2.4,0.6,4.2,1.9,5.1c1.3,1,3.5,1.5,6.7,1.5c3.1,0,5.2-0.4,6.4-1.1c1.6-0.9,2.4-2.6,2.4-5.1H95
		l-1.3-1.6v-1h8.3v2.6h-1c-0.1,3-1.1,5.3-3.1,6.8c-1.7,1.4-4,2-6.7,2H87c-3.1,0-5.5-0.8-7.3-2.5c-1.7-1.6-2.6-3.8-2.6-6.7v-4.8
		l1.6-1.3L80.3,323L80.3,323z"/>
	<path class="st5" d="M109.1,303v23c0,0.3,0,0.6-0.1,0.9h2v2.6h-1.3l-1.2-1.3h-0.1c-0.7,0.9-1.5,1.3-2.6,1.3h-6.4v-2.6h5.3
		c0.5,0,0.8-0.2,1.1-0.5c0.2-0.3,0.3-0.5,0.3-0.9V303L109.1,303L109.1,303z"/>
	<path class="st5" d="M118.8,326.9c-1.6-1.6-2.4-3.8-2.4-6.4c0-2.8,0.9-4.9,2.7-6.5c1.5-1.3,3.5-2,5.9-2c1.3,0,2.7,0.2,4.1,0.6v2.5
		c-1.5-0.4-2.7-0.5-3.8-0.5c-1.8,0-3.3,0.6-4.3,1.7s-1.5,2.7-1.5,4.6c0,1.6,0.5,3,1.6,4.3c1,1.1,2.2,1.7,3.5,1.7h7.5v1l-1.3,1.6
		h-20.2v-2.6L118.8,326.9L118.8,326.9z"/>
	<path class="st5" d="M166.8,303v23.9h1.9v2.6h-1.9c-0.1,2.8-1,5-2.7,6.5c-1.8,1.5-4.1,2.3-7.1,2.3h-4.1c-2.9,0-5.3-0.8-7-2.3
		c-1.9-1.6-2.8-3.9-2.8-6.9v-7.7l1.6-1.3h1.6v9c0,2.5,0.6,4.2,1.9,5.2c1.3,1,3.6,1.5,6.8,1.5c3.1,0,5.3-0.4,6.5-1.3
		c1.5-1,2.2-2.8,2.2-5.4V303L166.8,303L166.8,303z"/>
	<path class="st5" d="M177.5,312.9c2.6-1.2,5.4-1.8,8.2-1.8c6.5,0,9.7,3.7,9.7,11.1v3.9c0,0.3,0,0.6-0.1,0.9h1.3v2.6h-0.8l-1-1.3
		h-0.1c-0.2,0.3-0.4,0.5-0.7,0.7c-0.6,0.4-1.2,0.6-1.9,0.6h-8.9c-1.4,0-2.4-0.1-2.9-0.3h-0.1c-0.5,0.2-1.5,0.3-2.9,0.3h-8.9v-2.6
		h7.2c-0.6-0.6-1-1.4-1.3-2.3c-0.3-0.9-0.5-1.9-0.5-3c0-1.9,0.4-3.4,1.2-4.5c0.6-0.9,1.5-1.6,2.6-2L177.5,312.9L177.5,312.9z
		 M184,321.5c0-1.5-0.3-2.6-1-3.5c-0.7-0.9-1.6-1.3-2.8-1.3s-2.1,0.4-2.8,1.3s-1,2-1,3.5c0,1.5,0.4,2.7,1.1,3.6
		c0.7,1,1.6,1.5,2.7,1.5c1.1,0,2-0.6,2.7-1.5C183.6,324.2,184,323,184,321.5z M192.3,322.6c0-3.2-0.6-5.4-1.7-6.8
		c-1.2-1.4-3-2.1-5.6-2.1c-1.6,0-3.2,0.2-4.7,0.7c2.4,0,4.1,0.9,5.2,2.6c0.8,1.2,1.2,2.7,1.2,4.5c0,0.9-0.1,1.8-0.4,2.7
		c-0.3,1-0.8,1.9-1.4,2.6h6c0.4,0,0.8-0.2,1.1-0.5c0.2-0.3,0.3-0.5,0.3-0.9L192.3,322.6L192.3,322.6z"/>
	<path class="st5" d="M231.5,312.5V326c0,0.3,0,0.6-0.1,0.9h2v2.6h-1.5l-1-1.3h-0.1c-0.7,0.9-1.6,1.3-2.6,1.3h-7.3l-1-1.3h-0.1
		c-0.7,0.9-1.6,1.3-2.6,1.3h-7.3l-1-1.3h-0.1c-0.7,0.9-1.6,1.3-2.6,1.3h-9.8v-2.6h8.6c0.9,0,1.4-0.5,1.4-1.4v-8.7h3.1v9.3
		c0,0.3,0,0.6-0.1,0.9h6.6c0.9,0,1.4-0.5,1.4-1.4v-10.9h3.1V326c0,0.3,0,0.6-0.1,0.9h6.6c0.9,0,1.4-0.5,1.4-1.4v-13L231.5,312.5
		L231.5,312.5z"/>
	<path class="st5" d="M242.9,312.5V326c0,0.3,0,0.6-0.1,0.9h2v2.6h-1.4l-1.1-1.3h-0.1c-0.7,0.9-1.5,1.3-2.6,1.3h-6.4v-2.6h5.3
		c0.4,0,0.7-0.1,1-0.4c0.3-0.3,0.4-0.6,0.4-1v-13L242.9,312.5L242.9,312.5z M241.3,304.3c0.5,0,1,0.2,1.3,0.5
		c0.4,0.4,0.5,0.8,0.5,1.3c0,0.5-0.2,1-0.5,1.3c-0.4,0.4-0.8,0.5-1.3,0.5c-0.5,0-0.9-0.2-1.3-0.5c-0.4-0.4-0.5-0.8-0.5-1.3
		c0-0.5,0.2-0.9,0.5-1.3C240.4,304.5,240.8,304.3,241.3,304.3z"/>
	<path class="st5" d="M254.3,303v23c0,1-0.3,1.8-1,2.4c-0.7,0.7-1.5,1.1-2.4,1.1h-6.4v-2.6h5.3c0.5,0,0.8-0.2,1.1-0.5
		c0.2-0.3,0.3-0.6,0.3-0.9V303H254.3z"/>
	<path class="st5" d="M281.3,311.5v14c0,0.4,0.1,0.8,0.4,1c0.2,0.3,0.5,0.4,0.7,0.4h0.7v2.6h-1.5c-1.1,0-2-0.4-2.7-1.3
		c-1.6,1.1-3.3,1.7-5.2,1.7c-2.6,0-4.6-1-6.1-3c-1.2-1.6-1.9-3.6-1.9-5.9c0-2.7,0.9-4.9,2.7-6.7c1.6-1.6,3.5-2.4,5.8-2.4
		c1.3,0,2.6,0.3,4,0.9l1.6-1.3L281.3,311.5L281.3,311.5z M278.1,315.3c-1.1-0.5-2.2-0.8-3.3-0.8c-1.9,0-3.4,0.7-4.5,2.2
		c-1,1.2-1.4,2.6-1.4,4.3c0,2,0.5,3.5,1.4,4.7c0.9,1,2.1,1.5,3.7,1.5c1.3,0,2.7-0.4,4.2-1.1L278.1,315.3L278.1,315.3z M275,304.3
		c0.5,0,0.9,0.2,1.3,0.5s0.5,0.8,0.5,1.3c0,0.5-0.2,1-0.5,1.3s-0.8,0.5-1.3,0.5s-0.9-0.2-1.3-0.5s-0.5-0.8-0.5-1.3
		c0-0.5,0.2-0.9,0.5-1.3S274.5,304.3,275,304.3z M279.4,304.3c0.5,0,1,0.2,1.3,0.5c0.4,0.4,0.5,0.8,0.5,1.3c0,0.5-0.2,1-0.5,1.3
		c-0.4,0.4-0.8,0.5-1.3,0.5c-0.5,0-0.9-0.2-1.3-0.5s-0.5-0.8-0.5-1.3c0-0.5,0.2-0.9,0.5-1.3S278.9,304.3,279.4,304.3z"/>
	<path class="st5" d="M291.2,326.9c-0.9-0.9-1.6-1.9-2.1-3.2c-0.4-1-0.5-2.1-0.5-3.1c0-2.6,0.8-4.7,2.4-6.3c1.5-1.5,3.7-2.3,6.3-2.3
		c2,0,3.6,0.5,4.9,1.5c1.4,1.2,2.1,2.9,2.2,5.2v7.2c0,1-0.3,1.8-1,2.5c-0.6,0.7-1.4,1-2.3,1h-18.1v-2.6L291.2,326.9L291.2,326.9z
		 M301.1,318.8c0-1.4-0.4-2.4-1.2-3.2c-0.6-0.6-1.5-0.9-2.6-0.9c-2,0-3.5,0.7-4.5,2.1c-0.7,1-1,2.3-1,3.9c0,1.7,0.6,3.1,1.6,4.3
		c1.1,1.3,2.6,1.9,4.4,1.9h2c0.9,0,1.4-0.5,1.4-1.4L301.1,318.8L301.1,318.8z M295.1,304.3c0.5,0,0.9,0.2,1.3,0.5s0.5,0.8,0.5,1.3
		c0,0.5-0.2,1-0.5,1.3s-0.8,0.5-1.3,0.5c-0.5,0-1-0.2-1.3-0.5s-0.5-0.8-0.5-1.3c0-0.5,0.2-0.9,0.5-1.3S294.6,304.3,295.1,304.3z
		 M299.6,304.3c0.5,0,1,0.2,1.3,0.5c0.3,0.4,0.5,0.8,0.5,1.3c0,0.5-0.2,1-0.5,1.3c-0.4,0.4-0.8,0.5-1.3,0.5c-0.5,0-0.9-0.2-1.3-0.5
		c-0.4-0.4-0.5-0.8-0.5-1.3c0-0.5,0.2-0.9,0.5-1.3C298.6,304.5,299.1,304.3,299.6,304.3z"/>
	<path class="st5" d="M311.5,312.2c0.9-0.1,1.8-0.2,2.9-0.2c2.7,0,5,0.8,6.6,2.5c1.5,1.5,2.3,3.5,2.3,5.8v5.7c0,0.3,0,0.6-0.1,0.9h1
		v2.6h-0.6l-1-1.3h-0.1c-0.2,0.3-0.4,0.5-0.7,0.7c-0.6,0.4-1.2,0.6-1.9,0.6h-12.1v-2.6h11c0.9,0,1.4-0.5,1.4-1.4v-4.7
		c0-1.8-0.5-3.2-1.6-4.4c-1.1-1.2-2.9-1.8-5.3-1.8c-0.7,0-1.3,0-1.7,0.1V312.2z"/>
	<path class="st5" d="M333.7,303v23c0,1-0.3,1.8-1,2.4c-0.7,0.7-1.5,1.1-2.4,1.1h-6.4v-2.6h5.3c0.5,0,0.8-0.2,1.1-0.5
		c0.2-0.3,0.3-0.6,0.3-0.9V303H333.7z"/>
	<path class="st5" d="M342,303v26.1l-1.6,1.3h-1.5V303L342,303L342,303z"/>
	<path class="st5" d="M377.5,312.5v14.4h1.9v2.6h-1.9c-0.1,2.9-1.1,5.2-3,6.7c-1.8,1.4-4,2.1-6.8,2.1h-4.1c-2.7,0-5-0.6-6.7-2
		c-2.1-1.6-3.1-4-3.1-7.2v-7.7l1.6-1.3h1.5v9c0,2.5,0.6,4.2,1.9,5.2s3.6,1.5,6.8,1.5c3.1,0,5.3-0.4,6.5-1.3c1.5-1,2.2-2.8,2.2-5.4
		v-16.6L377.5,312.5L377.5,312.5z M365.2,312c0.5,0,0.9,0.2,1.3,0.5c0.4,0.4,0.5,0.8,0.5,1.3c0,0.5-0.2,1-0.5,1.3
		c-0.4,0.4-0.8,0.5-1.3,0.5s-0.9-0.2-1.3-0.5c-0.4-0.4-0.5-0.8-0.5-1.3c0-0.5,0.2-0.9,0.5-1.3S364.7,312,365.2,312z"/>
	<path class="st5" d="M385.9,318.8c0-2.5,0.9-4.4,2.7-5.5c1.2-0.8,2.7-1.1,4.6-1.1c2.3,0,4.3,0.8,5.9,2.4c1.6,1.6,2.4,3.9,2.4,6.7
		c0,2.7-0.8,5-2.4,6.8c-1.5,1.7-3.4,2.6-5.6,2.6c-2.1,0-3.9-0.8-5.2-2.4c-0.7,0.9-1.5,1.3-2.7,1.3h-6.4v-2.6h5.3
		c0.4,0,0.7-0.1,1-0.4s0.4-0.6,0.4-1L385.9,318.8L385.9,318.8z M389,326c1.3,1.3,2.7,2,4.3,2c1.5,0,2.7-0.6,3.6-1.8s1.4-2.8,1.4-4.8
		c0-2.2-0.5-3.9-1.6-5.1c-0.9-1-2.1-1.5-3.6-1.5c-1.1,0-2.1,0.3-2.8,1c-0.8,0.8-1.2,1.8-1.2,3.1L389,326L389,326z"/>
	<path class="st5" d="M415.7,329.1c0,2.4,0.6,4.1,1.9,5.1c1.3,1,3.6,1.5,6.8,1.5c2.8,0,4.8-0.3,6-0.8c1.8-0.8,2.7-2.1,2.7-4
		c0-1.3-0.3-2.2-1-2.9s-2-1.2-4-1.8c-2.5-0.7-4.2-1.5-5.2-2.4c-1.2-1.1-1.7-2.6-1.7-4.7c0-2.5,0.8-4.4,2.3-5.6c1.3-1,3-1.5,5.1-1.5
		c1.4,0,2.9,0.2,4.4,0.7v2.4c-1.6-0.4-3-0.6-4-0.6c-3.2,0-4.7,1.5-4.7,4.6c0,1.2,0.4,2.1,1,2.7s2,1.2,4,1.8c2.4,0.7,4.2,1.6,5.1,2.5
		c1.1,1.1,1.7,2.7,1.7,4.7c0,2.7-1.1,4.7-3.4,6c-1.7,0.9-3.8,1.4-6.3,1.4h-4.1c-3.1,0-5.5-0.8-7.3-2.5c-1.7-1.6-2.5-3.8-2.5-6.7
		v-4.8l1.6-1.3h1.5L415.7,329.1L415.7,329.1z"/>
	<path class="st5" d="M448.3,329.5c-2.8,0-5-0.9-6.5-2.8c-1.3-1.5-1.9-3.5-1.9-6c0-2.8,0.8-5,2.5-6.5c1.5-1.4,3.5-2.1,6-2.1
		c1.9,0,3.5,0.5,4.8,1.4c1.5,1.2,2.3,3,2.3,5.3v8.1h1.2v2.6h-1.2c-0.1,2.6-0.9,4.6-2.3,6.1c-1.1,1.1-2.5,1.9-4.3,2.3
		c-1,0.3-2.1,0.4-3.2,0.4c-0.6,0-1.2,0-1.7,0l-1.2-1.5v-1.2c0.7,0.1,1.5,0.1,2.3,0.1c4.7,0,7.1-2.1,7.3-6.2H448.3z M452.3,318.8
		c0-1.3-0.4-2.3-1.1-3c-0.7-0.7-1.7-1.1-2.9-1.1c-1.6,0-3,0.5-3.9,1.7c-1,1.1-1.4,2.6-1.4,4.6c0,1.8,0.5,3.2,1.4,4.3
		c1,1.1,2.2,1.6,3.7,1.6h4.1L452.3,318.8L452.3,318.8z"/>
	<path class="st5" d="M466.2,312.5V326c0,0.3,0,0.6-0.1,0.9h2v2.6h-1.4l-1.1-1.3h-0.1c-0.7,0.9-1.5,1.3-2.6,1.3h-6.4v-2.6h5.3
		c0.4,0,0.7-0.1,1-0.4c0.3-0.3,0.4-0.6,0.4-1v-13L466.2,312.5L466.2,312.5z M460.2,304.3c0.5,0,1,0.2,1.3,0.5
		c0.3,0.4,0.5,0.8,0.5,1.3c0,0.5-0.2,1-0.5,1.3c-0.4,0.4-0.8,0.5-1.3,0.5c-0.5,0-0.9-0.2-1.3-0.5c-0.4-0.4-0.5-0.8-0.5-1.3
		c0-0.5,0.2-0.9,0.5-1.3C459.3,304.5,459.7,304.3,460.2,304.3z M464.7,304.3c0.5,0,0.9,0.2,1.3,0.5s0.5,0.8,0.5,1.3
		c0,0.5-0.2,1-0.5,1.3s-0.8,0.5-1.3,0.5c-0.5,0-1-0.2-1.3-0.5s-0.5-0.8-0.5-1.3c0-0.5,0.2-0.9,0.5-1.3S464.2,304.3,464.7,304.3z"/>
	<path class="st5" d="M503,312.5V326c0,0.3,0,0.6-0.1,0.9h2v2.6h-1.5l-1-1.3h-0.1c-0.7,0.9-1.5,1.3-2.6,1.3h-7.3l-1-1.3h-0.1
		c-0.7,0.9-1.5,1.3-2.6,1.3h-7.3l-1-1.3h-0.1c-0.7,0.9-1.5,1.3-2.6,1.3h-9.8v-2.6h8.6c0.9,0,1.4-0.5,1.4-1.4v-8.7h3.1v9.3
		c0,0.3,0,0.6-0.1,0.9h6.5c0.9,0,1.4-0.5,1.4-1.4v-10.9h3.1V326c0,0.3,0,0.6-0.1,0.9h6.6c0.9,0,1.4-0.5,1.4-1.4v-13L503,312.5
		L503,312.5z"/>
	<path class="st5" d="M511.2,318.8c0-2.5,0.9-4.4,2.7-5.5c1.2-0.8,2.7-1.1,4.6-1.1c2.3,0,4.3,0.8,5.9,2.4s2.4,3.9,2.4,6.7
		c0,2.7-0.8,5-2.4,6.8c-1.5,1.7-3.3,2.6-5.6,2.6c-2.1,0-3.8-0.8-5.2-2.4c-0.7,0.9-1.5,1.3-2.7,1.3h-6.4v-2.6h5.3
		c0.4,0,0.7-0.1,1-0.4s0.4-0.6,0.4-1L511.2,318.8L511.2,318.8z M514.4,326c1.3,1.3,2.7,2,4.3,2c1.5,0,2.7-0.6,3.6-1.8
		s1.4-2.8,1.4-4.8c0-2.2-0.5-3.9-1.6-5.1c-0.9-1-2.1-1.5-3.6-1.5c-1.1,0-2.1,0.3-2.8,1c-0.8,0.8-1.2,1.8-1.2,3.1L514.4,326
		L514.4,326z"/>
	<path class="st5" d="M541,323v6c0,2.4,0.6,4.2,1.9,5.1c1.3,1,3.5,1.5,6.7,1.5c3.1,0,5.2-0.4,6.4-1.1c1.5-0.9,2.4-2.6,2.4-5.1h-2.8
		l-1.3-1.6v-1h8.3v2.6h-1c-0.1,3-1.1,5.3-3.1,6.8c-1.7,1.4-4,2-6.7,2h-4.1c-3.1,0-5.5-0.8-7.3-2.5c-1.7-1.6-2.5-3.8-2.5-6.7v-4.8
		l1.6-1.3L541,323L541,323z"/>
	<path class="st5" d="M569.7,303v23c0,0.3,0,0.6-0.1,0.9h2v2.6h-1.3l-1.2-1.3H569c-0.7,0.9-1.5,1.3-2.6,1.3h-6.4v-2.6h5.3
		c0.5,0,0.8-0.2,1.1-0.5c0.2-0.3,0.3-0.5,0.3-0.9V303L569.7,303L569.7,303z"/>
	<path class="st5" d="M579.4,326.9c-1.6-1.6-2.4-3.8-2.4-6.4c0-2.8,0.9-4.9,2.7-6.5c1.5-1.3,3.5-2,5.9-2c1.3,0,2.7,0.2,4.1,0.6v2.5
		c-1.5-0.4-2.7-0.5-3.8-0.5c-1.8,0-3.3,0.6-4.3,1.7s-1.5,2.7-1.5,4.6c0,1.6,0.5,3,1.6,4.3c1,1.1,2.2,1.7,3.5,1.7h7.5v1l-1.3,1.6
		h-20.2v-2.6L579.4,326.9L579.4,326.9z"/>
	<path class="st5" d="M596.2,298.7c-0.5-0.7-0.8-1.5-0.8-2.4s0.3-1.7,0.8-2.3c0.6-0.6,1.3-0.9,2.3-0.9c0.6,0,1.2,0.1,1.8,0.3v1.5
		c-0.4-0.1-0.9-0.2-1.3-0.2c-1.3,0-1.9,0.6-1.9,2c0,0.5,0.2,0.9,0.5,1.3c0.4,0.5,0.9,0.7,1.6,0.7h2.4v0.6l-0.7,0.9h-6.2v-1.5H596.2z
		 M600,303v22.5c0,0.4,0.1,0.7,0.4,1c0.3,0.3,0.6,0.4,1,0.4h0.5v2.6h-1.7c-0.8,0-1.5-0.3-2.1-0.8c-0.8-0.7-1.3-1.6-1.3-2.7v-23H600z
		"/>
	<path class="st5" d="M611.5,312.5V326c0,0.9-0.3,1.7-0.9,2.4c-0.7,0.8-1.5,1.1-2.5,1.1h-6.4v-2.6h5.3c0.4,0,0.8-0.1,1-0.4
		c0.3-0.3,0.4-0.6,0.4-1v-13H611.5z M609,333.3c0.5,0,0.9,0.2,1.3,0.5c0.4,0.4,0.5,0.8,0.5,1.3c0,0.5-0.2,1-0.5,1.3
		c-0.4,0.4-0.8,0.5-1.3,0.5s-0.9-0.2-1.3-0.5c-0.4-0.4-0.5-0.8-0.5-1.3c0-0.5,0.2-0.9,0.5-1.3C608,333.5,608.5,333.3,609,333.3z"/>
</g>
<g class="st6">
	<path class="st5" d="M123.5,351v23.9h1.9v2.6h-1.9c-0.1,2.8-1,5-2.7,6.5c-1.8,1.5-4.1,2.3-7.1,2.3h-4.1c-2.9,0-5.3-0.8-7-2.3
		c-1.9-1.6-2.8-3.9-2.8-6.9v-7.7l1.6-1.3h1.6v9c0,2.5,0.7,4.2,1.9,5.2s3.6,1.5,6.8,1.5c3.1,0,5.3-0.4,6.5-1.3c1.5-1,2.2-2.8,2.2-5.4
		V351L123.5,351L123.5,351z"/>
	<path class="st5" d="M131.8,366.8c0-2.5,0.9-4.4,2.7-5.5c1.2-0.8,2.7-1.1,4.6-1.1c2.3,0,4.3,0.8,5.9,2.4s2.4,3.9,2.4,6.7
		c0,2.7-0.8,5-2.4,6.8c-1.5,1.7-3.4,2.6-5.6,2.6c-2.1,0-3.9-0.8-5.2-2.4c-0.7,0.9-1.6,1.3-2.7,1.3h-6.4v-2.6h5.3
		c0.4,0,0.7-0.1,1-0.4s0.4-0.6,0.4-1L131.8,366.8L131.8,366.8z M134.9,374c1.3,1.3,2.7,2,4.3,2c1.5,0,2.7-0.6,3.6-1.8
		s1.4-2.8,1.4-4.8c0-2.2-0.5-3.9-1.6-5.1c-0.9-1-2.1-1.5-3.6-1.5c-1.1,0-2.1,0.3-2.8,1c-0.8,0.8-1.2,1.8-1.2,3.1L134.9,374
		L134.9,374z"/>
	<path class="st5" d="M154.7,351v22.5c0,0.4,0.1,0.7,0.4,1c0.3,0.3,0.6,0.4,1,0.4h0.5v2.6h-1.7c-0.8,0-1.5-0.3-2.1-0.8
		c-0.8-0.7-1.3-1.6-1.3-2.7v-23H154.7z"/>
	<path class="st5" d="M173.1,350.4v2.9l-9.3,5.5c3.9,1,6.9,3,9.1,5.8c2,2.6,3,5.5,3,8.9c0,0.6,0,1-0.1,1.4h1.3v2.6h-0.7l-1.1-1.3
		h-0.1c-0.7,0.9-1.6,1.3-2.6,1.3h-16.2v-2.6h15c1,0,1.4-0.5,1.4-1.5c-0.1-2.6-0.9-4.8-2.3-6.8c-2-2.9-5.1-4.6-9.5-5.2
		c-0.1,0-0.2-0.1-0.2-0.3v-3.7L173.1,350.4z"/>
	<path class="st5" d="M186.6,360.5V374c0,0.3,0,0.6-0.1,0.9h2v2.6H187l-1.1-1.3h-0.1c-0.7,0.9-1.5,1.3-2.6,1.3h-6.4v-2.6h5.3
		c0.4,0,0.7-0.1,1-0.4c0.3-0.3,0.4-0.6,0.4-1v-13L186.6,360.5L186.6,360.5z M180.6,352.3c0.5,0,0.9,0.2,1.3,0.5
		c0.4,0.4,0.5,0.8,0.5,1.3c0,0.5-0.2,1-0.5,1.3c-0.4,0.4-0.8,0.5-1.3,0.5c-0.5,0-0.9-0.2-1.3-0.5c-0.4-0.4-0.5-0.8-0.5-1.3
		c0-0.5,0.2-0.9,0.5-1.3C179.7,352.5,180.1,352.3,180.6,352.3z M185.1,352.3c0.5,0,0.9,0.2,1.3,0.5c0.4,0.4,0.5,0.8,0.5,1.3
		c0,0.5-0.2,1-0.5,1.3c-0.4,0.4-0.8,0.5-1.3,0.5c-0.5,0-1-0.2-1.3-0.5s-0.5-0.8-0.5-1.3c0-0.5,0.2-0.9,0.5-1.3
		S184.6,352.3,185.1,352.3z"/>
	<path class="st5" d="M194.8,366.8c0-2.5,0.9-4.4,2.7-5.5c1.2-0.8,2.7-1.1,4.6-1.1c2.3,0,4.3,0.8,5.9,2.4s2.4,3.9,2.4,6.7
		c0,2.7-0.8,5-2.4,6.8c-1.5,1.7-3.4,2.6-5.6,2.6c-2.1,0-3.9-0.8-5.2-2.4c-0.7,0.9-1.6,1.3-2.7,1.3h-6.4v-2.6h5.3
		c0.4,0,0.7-0.1,1-0.4s0.4-0.6,0.4-1L194.8,366.8L194.8,366.8z M198,374c1.3,1.3,2.7,2,4.3,2c1.5,0,2.7-0.6,3.6-1.8s1.4-2.8,1.4-4.8
		c0-2.2-0.5-3.9-1.6-5.1c-0.9-1-2.1-1.5-3.6-1.5c-1.1,0-2.1,0.3-2.8,1c-0.8,0.8-1.2,1.8-1.2,3.1L198,374L198,374z"/>
	<path class="st5" d="M225.6,361.1c1.8-0.7,3.7-1.1,5.9-1.1c3.1,0,5.4,1,7,2.9c1.4,1.6,2.1,3.8,2.1,6.4v4.7c0,1-0.3,1.8-1,2.5
		c-0.6,0.7-1.4,1-2.3,1H230c-2.1,0-3.6,0.6-4.7,1.8c-0.8,0.8-1.2,2-1.2,3.5c0.1,4,2.5,6.1,7.3,6.1c1.5,0,3.1-0.2,4.9-0.6v1l-1.2,1.5
		c-1.4,0.5-2.8,0.7-4.3,0.7c-2.2,0-4.1-0.4-5.7-1.3c-2.7-1.5-4.1-3.9-4.1-7.4c0.1-2.3,0.6-4,1.8-5.3c1.6-1.8,4.2-2.6,7.7-2.6h5.5
		c0.9,0,1.4-0.5,1.4-1.4v-4.3c0-2-0.4-3.5-1.3-4.5c-1.1-1.2-2.7-1.9-5-1.9c-1.4,0-3.2,0.3-5.4,0.8L225.6,361.1L225.6,361.1z
		 M230.9,381.3c0.5,0,0.9,0.2,1.3,0.5c0.4,0.4,0.5,0.8,0.5,1.3c0,0.5-0.2,1-0.5,1.3c-0.4,0.4-0.8,0.5-1.3,0.5c-0.5,0-1-0.2-1.3-0.5
		c-0.4-0.4-0.5-0.8-0.5-1.3c0-0.5,0.2-0.9,0.5-1.3C230,381.5,230.4,381.3,230.9,381.3z"/>
	<path class="st5" d="M264.6,351v23c0,0.4,0,0.6-0.1,0.9h2v2.6h-1.4l-1.1-1.3h-0.1c-0.4,0.4-0.7,0.7-1.2,1s-0.9,0.3-1.4,0.3h-16.2
		l-1.3-1.6v-1h9.9l-6.4-19.3h3.1l6.4,19.3h3.2c0.4,0,0.8-0.1,1-0.4c0.2-0.3,0.3-0.6,0.3-1V351L264.6,351L264.6,351z"/>
	<path class="st5" d="M274.3,374.9c-1.6-1.6-2.4-3.8-2.4-6.4c0-2.8,0.9-4.9,2.7-6.5c1.5-1.3,3.5-2,5.9-2c1.3,0,2.7,0.2,4.1,0.6v2.5
		c-1.5-0.4-2.7-0.5-3.8-0.5c-1.8,0-3.3,0.6-4.3,1.7s-1.5,2.7-1.5,4.6c0,1.6,0.5,3,1.6,4.3c1,1.1,2.2,1.7,3.5,1.7h7.5v1l-1.3,1.6
		h-20.2v-2.6L274.3,374.9L274.3,374.9z"/>
	<path class="st5" d="M301.7,371v6c0,2.4,0.6,4.2,1.9,5.1c1.3,1,3.5,1.5,6.7,1.5c3.1,0,5.2-0.4,6.4-1.1c1.5-0.9,2.4-2.6,2.4-5.1
		h-2.8l-1.3-1.6v-1h8.3v2.6h-1c-0.1,3-1.1,5.3-3.1,6.8c-1.7,1.4-4,2-6.7,2h-4.1c-3.1,0-5.5-0.8-7.3-2.5c-1.7-1.6-2.5-3.8-2.5-6.7
		v-4.8l1.6-1.3L301.7,371L301.7,371z"/>
	<path class="st5" d="M330.4,351v23c0,0.3,0,0.6-0.1,0.9h2v2.6H331l-1.2-1.3h-0.1c-0.7,0.9-1.5,1.3-2.6,1.3h-6.4v-2.6h5.3
		c0.5,0,0.8-0.2,1.1-0.5c0.2-0.3,0.3-0.5,0.3-0.9V351L330.4,351L330.4,351z"/>
	<path class="st5" d="M340.1,374.9c-1.6-1.6-2.4-3.8-2.4-6.4c0-2.8,0.9-4.9,2.7-6.5c1.5-1.3,3.5-2,5.9-2c1.3,0,2.7,0.2,4.1,0.6v2.5
		c-1.5-0.4-2.7-0.5-3.8-0.5c-1.8,0-3.3,0.6-4.3,1.7s-1.5,2.7-1.5,4.6c0,1.6,0.5,3,1.6,4.3c1,1.1,2.2,1.7,3.5,1.7h7.5v1l-1.3,1.6H332
		v-2.6L340.1,374.9L340.1,374.9z"/>
	<path class="st5" d="M388.2,351v26.2c0,3-0.9,5.2-2.7,6.8c-1.8,1.5-4.1,2.3-7.1,2.3h-4.1c-2.9,0-5.3-0.8-7-2.3
		c-1.9-1.6-2.8-3.9-2.8-6.9v-7.7l1.6-1.3h1.5v9c0,2.5,0.6,4.2,1.9,5.2s3.6,1.5,6.8,1.5c3.1,0,5.3-0.4,6.5-1.3c1.5-1,2.2-2.8,2.2-5.4
		V351L388.2,351L388.2,351z"/>
	<path class="st5" d="M401.1,377.5c-2.8,0-5-0.9-6.5-2.8c-1.3-1.5-1.9-3.5-1.9-6c0-2.8,0.8-5,2.5-6.5c1.5-1.4,3.5-2.1,6-2.1
		c1.9,0,3.5,0.5,4.8,1.4c1.5,1.2,2.3,3,2.3,5.3v8.1h1.2v2.6h-1.2c-0.1,2.6-0.9,4.6-2.3,6.1c-1.1,1.1-2.5,1.9-4.3,2.3
		c-1,0.3-2.1,0.4-3.2,0.4c-0.6,0-1.2,0-1.7,0l-1.2-1.5v-1.2c0.7,0.1,1.5,0.1,2.3,0.1c4.7,0,7.1-2.1,7.3-6.2H401.1z M405.2,366.8
		c0-1.3-0.4-2.3-1.1-3c-0.7-0.7-1.7-1.1-2.9-1.1c-1.6,0-3,0.5-3.9,1.7c-1,1.1-1.4,2.6-1.4,4.6c0,1.8,0.5,3.2,1.4,4.3
		c1,1.1,2.2,1.6,3.7,1.6h4.1L405.2,366.8L405.2,366.8z"/>
	<path class="st5" d="M419,368.6c3.4-5.7,7.9-8.6,13.4-8.6c2.9,0,5.3,0.9,7.1,2.7c1.6,1.6,2.4,3.8,2.4,6.3v4.9c0,0.3,0,0.6-0.1,0.9
		h1.3v2.6h-0.8l-1-1.3h-0.1c-0.7,0.9-1.5,1.3-2.6,1.3h-29.3v-2.6h6.7l0-14.4h3.1L419,368.6z M438.7,368.7c0-2-0.8-3.5-2.2-4.6
		c-1.2-0.9-2.7-1.4-4.7-1.4s-3.7,0.5-5.4,1.6c-3.1,2-5.6,5.5-7.5,10.5h18.3c0.9,0,1.4-0.5,1.4-1.4L438.7,368.7L438.7,368.7z"/>
	<path class="st5" d="M447.7,361.1c2.3-0.7,4.4-1.1,6.4-1.1c3.1,0,5.4,1,7,2.9c1.4,1.6,2.1,3.8,2.1,6.4v4.7c0,0.3,0,0.6-0.1,0.9h1.3
		v2.6h-0.8l-1-1.3h-0.1c-0.7,0.9-1.5,1.3-2.6,1.3h-17v-2.6h15.8c0.9,0,1.4-0.5,1.4-1.4v-4.3c0-1.9-0.5-3.4-1.5-4.5
		c-1.1-1.2-2.7-1.9-4.9-1.9c-1.3,0-3.3,0.3-5.9,0.8L447.7,361.1L447.7,361.1z"/>
	<path class="st5" d="M473.9,351v23c0,1-0.3,1.8-1,2.4c-0.7,0.7-1.5,1.1-2.4,1.1H464v-2.6h5.3c0.5,0,0.8-0.2,1.1-0.5
		c0.2-0.3,0.3-0.6,0.3-0.9V351H473.9z"/>
	<path class="st5" d="M482.1,351v26.1l-1.6,1.3H479V351L482.1,351L482.1,351z"/>
	<path class="st5" d="M497.2,351v22.5c0,0.4,0.1,0.7,0.4,1c0.3,0.3,0.6,0.4,1,0.4h0.5v2.6h-1.7c-0.8,0-1.5-0.3-2.1-0.8
		c-0.8-0.7-1.3-1.6-1.3-2.7v-23H497.2z"/>
	<path class="st5" d="M508.6,360.5V374c0,0.3,0,0.6-0.1,0.9h2v2.6H509l-1.1-1.3h-0.1c-0.7,0.9-1.5,1.3-2.6,1.3h-6.4v-2.6h5.3
		c0.4,0,0.7-0.1,1-0.4c0.3-0.3,0.4-0.6,0.4-1v-13L508.6,360.5L508.6,360.5z M507,352.3c0.5,0,1,0.2,1.3,0.5s0.5,0.8,0.5,1.3
		c0,0.5-0.2,1-0.5,1.3s-0.8,0.5-1.3,0.5c-0.5,0-0.9-0.2-1.3-0.5s-0.5-0.8-0.5-1.3c0-0.5,0.2-0.9,0.5-1.3S506.5,352.3,507,352.3z"/>
	<path class="st5" d="M520,360.5V374c0,0.9-0.3,1.7-0.9,2.4c-0.7,0.8-1.5,1.1-2.5,1.1h-6.4v-2.6h5.3c0.4,0,0.8-0.1,1-0.4
		c0.3-0.3,0.4-0.6,0.4-1v-13H520z M515.8,354.3c-0.5-0.6-0.7-1.4-0.7-2.3c0-1,0.3-1.8,0.8-2.4s1.3-0.9,2.3-0.9
		c0.6,0,1.2,0.1,1.8,0.3v1.5c-0.5-0.1-0.9-0.2-1.3-0.2c-1.3,0-1.9,0.6-1.9,2c0,0.5,0.2,0.9,0.4,1.3c0.4,0.5,0.9,0.7,1.6,0.7h2.4v0.6
		l-0.7,0.9h-6.2v-1.5H515.8z"/>
	<path class="st5" d="M544.7,351v23c0,0.4,0,0.6-0.2,0.9h2v2.6h-1.4l-1.1-1.3h-0.1c-0.3,0.4-0.7,0.7-1.2,1s-0.9,0.3-1.4,0.3h-16.2
		l-1.3-1.6v-1h9.9l-6.4-19.3h3.2l6.4,19.3h3.2c0.4,0,0.8-0.1,1-0.4c0.2-0.3,0.3-0.6,0.3-1V351L544.7,351L544.7,351z"/>
	<path class="st5" d="M553.5,374.9c-1-1.6-1.5-3.5-1.5-5.7c0-3,0.8-5.3,2.5-6.9c1.5-1.4,3.5-2.2,6-2.2c1.8,0,3.2,0.4,4.4,1.1
		c1.8,1.2,2.7,3,2.7,5.5v6.7c0,0.4,0.1,0.6,0.3,0.9c0.2,0.3,0.5,0.5,0.9,0.5h0.1v2.6h-0.9c-1.1,0-2-0.4-2.7-1.3
		c-1.3,1.6-3,2.4-5.1,2.4c-2.1,0-4-0.8-5.6-2.4h-0.1l-1,1.3h-7.2v-2.6L553.5,374.9L553.5,374.9z M564.4,366.8c0-1.3-0.4-2.3-1.2-3.1
		c-0.7-0.7-1.6-1-2.8-1c-1.6,0-2.8,0.6-3.8,1.8s-1.4,2.7-1.4,4.6c0,2,0.5,3.7,1.5,5c1,1.3,2.2,1.9,3.6,1.9c1.4,0,2.8-0.6,4.1-2
		L564.4,366.8L564.4,366.8z"/>
	<path class="st5" d="M576.6,374.9c-1.6-1.6-2.4-3.8-2.4-6.4c0-2.8,0.9-4.9,2.7-6.5c1.5-1.3,3.5-2,5.9-2c1.3,0,2.7,0.2,4.1,0.6v2.5
		c-1.5-0.4-2.7-0.5-3.8-0.5c-1.8,0-3.3,0.6-4.3,1.7s-1.5,2.7-1.5,4.6c0,1.6,0.5,3,1.6,4.3c1,1.1,2.2,1.7,3.5,1.7h7.5v1l-1.3,1.6
		h-20.2v-2.6L576.6,374.9L576.6,374.9z"/>
</g>
<g class="st6">
	<path class="st5" d="M264.1,407.5v11.6c0,2-0.6,3.6-1.7,4.7c-1.3,1.3-3.2,2-5.7,2c-2.2,0-4-0.6-5.4-1.7c-1.9-1.5-2.8-3.8-2.8-6.9
		c0-2.8,0.9-5.1,2.6-6.9c1.6-1.6,3.6-2.5,5.9-2.5c1.3,0,2.6,0.3,4,0.9l1.6-1.3L264.1,407.5L264.1,407.5z M260.9,411.3
		c-1.1-0.5-2.2-0.8-3.3-0.8c-1.9,0-3.5,0.8-4.6,2.3c-0.9,1.2-1.4,2.7-1.4,4.4c0,1.9,0.4,3.4,1.3,4.4c0.9,1,2.1,1.5,3.7,1.5
		c1.5,0,2.6-0.4,3.3-1.1c0.7-0.7,1-1.7,1-3V411.3z M257.8,400.3c0.5,0,0.9,0.2,1.3,0.5c0.4,0.4,0.5,0.8,0.5,1.3c0,0.5-0.2,1-0.5,1.3
		c-0.4,0.4-0.8,0.5-1.3,0.5c-0.5,0-0.9-0.2-1.3-0.5s-0.5-0.8-0.5-1.3c0-0.5,0.2-0.9,0.5-1.3S257.3,400.3,257.8,400.3z M262.2,400.3
		c0.5,0,1,0.2,1.3,0.5c0.4,0.4,0.5,0.8,0.5,1.3c0,0.5-0.2,1-0.5,1.3c-0.4,0.4-0.8,0.5-1.3,0.5c-0.5,0-0.9-0.2-1.3-0.5
		c-0.4-0.4-0.5-0.8-0.5-1.3c0-0.5,0.2-0.9,0.5-1.3C261.3,400.5,261.7,400.3,262.2,400.3z"/>
	<path class="st5" d="M276.7,408.5v16.7c0,3-0.9,5.2-2.7,6.8c-1.3,1.2-3.1,2-5.2,2.2c-0.6,0.1-1.2,0.1-1.9,0.1c-0.6,0-1.2,0-1.7,0
		l-1.2-1.5v-1.2c0.7,0.1,1.5,0.1,2.3,0.1c4.8,0,7.3-2.2,7.3-6.7v-16.6H276.7z M275.1,400.3c0.5,0,0.9,0.2,1.3,0.5
		c0.4,0.4,0.5,0.8,0.5,1.3c0,0.5-0.2,1-0.5,1.3c-0.4,0.4-0.8,0.5-1.3,0.5c-0.5,0-0.9-0.2-1.3-0.5c-0.4-0.4-0.5-0.8-0.5-1.3
		c0-0.5,0.2-0.9,0.5-1.3C274.2,400.5,274.6,400.3,275.1,400.3z"/>
	<path class="st5" d="M285.3,399v22.5c0,0.4,0.1,0.7,0.4,1c0.3,0.3,0.6,0.4,1,0.4h0.5v2.6h-1.7c-0.8,0-1.5-0.3-2.1-0.8
		c-0.8-0.7-1.3-1.6-1.3-2.7v-23H285.3z"/>
	<path class="st5" d="M296.7,408.5V422c0,0.3,0,0.6-0.1,0.9h2v2.6h-1.4l-1.1-1.3h-0.1c-0.7,0.9-1.5,1.3-2.6,1.3h-6.4v-2.6h5.3
		c0.4,0,0.7-0.1,1-0.4c0.3-0.3,0.4-0.6,0.4-1v-13L296.7,408.5L296.7,408.5z M290.7,400.3c0.5,0,1,0.2,1.3,0.5
		c0.4,0.4,0.5,0.8,0.5,1.3c0,0.5-0.2,1-0.5,1.3c-0.4,0.4-0.8,0.5-1.3,0.5c-0.5,0-0.9-0.2-1.3-0.5c-0.4-0.4-0.5-0.8-0.5-1.3
		c0-0.5,0.2-0.9,0.5-1.3C289.8,400.5,290.2,400.3,290.7,400.3z M295.2,400.3c0.5,0,0.9,0.2,1.3,0.5c0.4,0.4,0.5,0.8,0.5,1.3
		c0,0.5-0.2,1-0.5,1.3c-0.4,0.4-0.8,0.5-1.3,0.5c-0.5,0-1-0.2-1.3-0.5s-0.5-0.8-0.5-1.3c0-0.5,0.2-0.9,0.5-1.3
		S294.7,400.3,295.2,400.3z"/>
	<path class="st5" d="M305.6,422.9c-1-1.6-1.5-3.5-1.5-5.7c0-3,0.8-5.3,2.5-6.9c1.5-1.4,3.5-2.2,6-2.2c1.8,0,3.2,0.4,4.4,1.1
		c1.8,1.2,2.7,3,2.7,5.5v6.7c0,0.4,0.1,0.6,0.3,0.9c0.2,0.3,0.5,0.5,0.9,0.5h0.1v2.6h-0.9c-1.1,0-2-0.4-2.7-1.3
		c-1.3,1.6-3,2.4-5.1,2.4c-2.1,0-4-0.8-5.6-2.4h-0.1l-1,1.3h-7.2v-2.6L305.6,422.9L305.6,422.9z M316.4,414.8c0-1.3-0.4-2.3-1.2-3.1
		c-0.7-0.7-1.6-1-2.8-1c-1.6,0-2.9,0.6-3.8,1.8s-1.4,2.7-1.4,4.6c0,2,0.5,3.7,1.5,5c1,1.3,2.2,1.9,3.6,1.9c1.4,0,2.8-0.6,4.1-2
		L316.4,414.8L316.4,414.8z"/>
	<path class="st5" d="M327.2,414.8c0-2.5,0.9-4.4,2.7-5.5c1.2-0.8,2.7-1.1,4.6-1.1c2.3,0,4.3,0.8,5.9,2.4c1.6,1.6,2.4,3.9,2.4,6.7
		c0,2.7-0.8,5-2.4,6.8c-1.5,1.7-3.4,2.6-5.6,2.6c-2.1,0-3.9-0.8-5.2-2.4c-0.7,0.9-1.5,1.3-2.7,1.3h-6.4v-2.6h5.3
		c0.4,0,0.7-0.1,1-0.4s0.4-0.6,0.4-1L327.2,414.8L327.2,414.8z M330.3,422c1.3,1.3,2.7,2,4.3,2c1.5,0,2.7-0.6,3.6-1.8
		s1.4-2.8,1.4-4.8c0-2.2-0.5-3.9-1.6-5.1c-0.9-1-2.1-1.5-3.6-1.5c-1.1,0-2.1,0.3-2.8,1c-0.8,0.8-1.2,1.8-1.2,3.1L330.3,422
		L330.3,422z"/>
	<path class="st5" d="M368.9,407.5v11.6c0,2-0.6,3.6-1.7,4.7c-1.3,1.3-3.2,2-5.7,2c-2.2,0-4-0.6-5.4-1.7c-1.9-1.5-2.8-3.8-2.8-6.9
		c0-2.8,0.9-5.1,2.5-6.9c1.6-1.6,3.5-2.5,5.9-2.5c1.3,0,2.6,0.3,4,0.9l1.6-1.3L368.9,407.5L368.9,407.5z M365.7,411.3
		c-1.1-0.5-2.2-0.8-3.3-0.8c-2,0-3.5,0.8-4.6,2.3c-0.9,1.2-1.4,2.7-1.4,4.4c0,1.9,0.4,3.4,1.3,4.4s2.1,1.5,3.7,1.5
		c1.5,0,2.6-0.4,3.3-1.1c0.7-0.7,1-1.7,1-3V411.3z M362.5,400.3c0.5,0,0.9,0.2,1.3,0.5c0.4,0.4,0.5,0.8,0.5,1.3c0,0.5-0.2,1-0.5,1.3
		c-0.4,0.4-0.8,0.5-1.3,0.5c-0.5,0-0.9-0.2-1.3-0.5s-0.5-0.8-0.5-1.3c0-0.5,0.2-0.9,0.5-1.3S362,400.3,362.5,400.3z M367,400.3
		c0.5,0,1,0.2,1.3,0.5s0.5,0.8,0.5,1.3c0,0.5-0.2,1-0.5,1.3s-0.8,0.5-1.3,0.5c-0.5,0-0.9-0.2-1.3-0.5c-0.4-0.4-0.5-0.8-0.5-1.3
		c0-0.5,0.2-0.9,0.5-1.3C366.1,400.5,366.5,400.3,367,400.3z"/>
	<path class="st5" d="M376.1,408.2c0.9-0.1,1.8-0.2,2.9-0.2c2.7,0,5,0.8,6.6,2.5c1.5,1.5,2.3,3.5,2.3,5.8v5.7c0,1-0.3,1.8-0.9,2.4
		c-0.6,0.7-1.4,1.1-2.4,1.1h-12.2v-2.6h11c0.9,0,1.4-0.5,1.4-1.4v-4.7c0-1.8-0.5-3.2-1.6-4.4c-1.1-1.2-2.9-1.8-5.3-1.8
		c-0.7,0-1.3,0-1.7,0.1L376.1,408.2L376.1,408.2z"/>
	<path class="st5" d="M400.4,425.5c-2.8,0-5-0.9-6.5-2.8c-1.3-1.5-1.9-3.5-1.9-6c0-2.8,0.8-5,2.5-6.5c1.5-1.4,3.5-2.1,6-2.1
		c1.9,0,3.5,0.5,4.8,1.4c1.5,1.2,2.3,3,2.3,5.3v8.1h1.2v2.6h-1.2c-0.1,2.6-0.9,4.6-2.3,6.1c-1.1,1.1-2.5,1.9-4.3,2.3
		c-1,0.3-2.1,0.4-3.2,0.4c-0.6,0-1.2,0-1.7,0l-1.2-1.5v-1.2c0.7,0.1,1.5,0.1,2.3,0.1c4.7,0,7.1-2.1,7.3-6.2H400.4z M404.5,414.8
		c0-1.3-0.4-2.3-1.1-3c-0.7-0.7-1.7-1.1-2.9-1.1c-1.6,0-3,0.5-3.9,1.7c-1,1.1-1.4,2.6-1.4,4.6c0,1.8,0.5,3.2,1.4,4.3
		c1,1.1,2.2,1.6,3.7,1.6h4.1L404.5,414.8L404.5,414.8z"/>
	<path class="st5" d="M413.5,409.1c2.3-0.7,4.4-1.1,6.4-1.1c3.1,0,5.4,1,7,2.9c1.4,1.6,2.1,3.8,2.1,6.4v4.7c0,0.3,0,0.6-0.1,0.9h1.3
		v2.6h-0.8l-1-1.3h-0.1c-0.7,0.9-1.5,1.3-2.6,1.3h-17v-2.6h15.8c0.9,0,1.4-0.5,1.4-1.4v-4.3c0-1.9-0.5-3.4-1.5-4.5
		c-1.1-1.2-2.7-1.9-4.9-1.9c-1.3,0-3.3,0.3-5.9,0.8L413.5,409.1L413.5,409.1z M417.9,429.3c0.5,0,1,0.2,1.3,0.5
		c0.4,0.4,0.5,0.8,0.5,1.3c0,0.5-0.2,1-0.5,1.3c-0.4,0.4-0.8,0.5-1.3,0.5c-0.5,0-0.9-0.2-1.3-0.5c-0.4-0.4-0.5-0.8-0.5-1.3
		c0-0.5,0.2-0.9,0.5-1.3C417,429.5,417.4,429.3,417.9,429.3z"/>
	<path class="st5" d="M439.6,408.5V422c0,0.9-0.3,1.7-0.9,2.4c-0.7,0.8-1.5,1.1-2.5,1.1h-6.4v-2.6h5.3c0.4,0,0.8-0.1,1-0.4
		c0.3-0.3,0.4-0.6,0.4-1v-13H439.6z M437.1,429.3c0.5,0,0.9,0.2,1.3,0.5c0.4,0.4,0.5,0.8,0.5,1.3c0,0.5-0.2,1-0.5,1.3
		c-0.4,0.4-0.8,0.5-1.3,0.5s-0.9-0.2-1.3-0.5c-0.4-0.4-0.5-0.8-0.5-1.3c0-0.5,0.2-0.9,0.5-1.3C436.2,429.5,436.6,429.3,437.1,429.3z
		"/>
</g>
</svg>
