<?xml version="1.0" encoding="utf-8"?>
<!-- Generator: Adobe Illustrator 24.1.2, SVG Export Plug-In . SVG Version: 6.00 Build 0)  -->
<svg version="1.1" id="Layer_1" xmlns="http://www.w3.org/2000/svg" xmlns:xlink="http://www.w3.org/1999/xlink" x="0px" y="0px"
	 viewBox="0 0 120 100" style="enable-background:new 0 0 120 100;" xml:space="preserve">
<style type="text/css">
	.st0{fill:#FFFFFF;}
</style>
<g id="Group_76_1_" transform="translate(0 0)">
	<path id="Path_477" class="st0" d="M66.53,98.38c-1.11,0-2.02-0.9-2.02-2.01c0-0.13,0.01-0.27,0.04-0.4l2.85-14.25
		c0.08-0.39,0.27-0.75,0.55-1.03l31.36-31.36c2.36-2.35,6.19-2.35,8.55,0l5.7,5.7c2.36,2.36,2.36,6.19,0,8.55L82.21,94.94
		c-0.28,0.28-0.64,0.47-1.03,0.55l-14.25,2.85C66.79,98.37,66.66,98.38,66.53,98.38z M71.24,83.1l-2.14,10.69l10.69-2.14
		l30.93-30.93c0.79-0.79,0.79-2.06,0-2.85l-5.7-5.7c-0.79-0.79-2.06-0.79-2.85,0L71.24,83.1z M80.79,93.51L80.79,93.51z"/>
	<path id="Path_478_1_" class="st0" d="M56.88,86.29H28.66c-5.56,0-10.07-4.51-10.08-10.08V23.79c0-5.56,4.51-10.07,10.08-10.08
		h8.06c1.11,0,2.02,0.9,2.02,2.01s-0.9,2.02-2.02,2.02c0,0,0,0,0,0h-8.06c-3.34,0-6.05,2.71-6.05,6.05v52.41
		c0,3.34,2.71,6.04,6.05,6.05h28.22c1.11,0,2.02,0.9,2.02,2.01S58,86.28,56.88,86.29C56.88,86.29,56.88,86.29,56.88,86.29
		L56.88,86.29z"/>
	<path id="Path_479_1_" class="st0" d="M85.1,50c-1.11,0-2.02-0.9-2.02-2.02V23.79c0-3.34-2.71-6.04-6.05-6.05h-8.06
		c-1.11,0-2.02-0.9-2.02-2.02c0-1.11,0.9-2.02,2.02-2.02c0,0,0,0,0,0h8.06c5.56,0,10.07,4.51,10.08,10.08v24.19
		C87.12,49.1,86.22,50,85.1,50z"/>
	<path id="Path_480_1_" class="st0" d="M64.95,25.81H40.76c-3.34,0-6.04-2.71-6.05-6.05V11.7c0-1.11,0.9-2.02,2.02-2.02h6.25
		c0.97-4.69,5.09-8.06,9.88-8.06c4.79,0.01,8.91,3.37,9.88,8.06h6.25c1.11,0,2.02,0.9,2.02,2.02v8.06
		C70.99,23.1,68.28,25.81,64.95,25.81z M38.74,13.71v6.05c0,1.11,0.9,2.01,2.02,2.02h24.19c1.11,0,2.01-0.9,2.02-2.02v-6.05h-6.05
		c-1.11,0-2.02-0.9-2.02-2.02c0-3.34-2.71-6.04-6.05-6.05c-3.34,0-6.04,2.71-6.05,6.05c0,1.11-0.9,2.02-2.02,2.02L38.74,13.71z"/>
	<path id="Path_481_1_" class="st0" d="M73.01,37.91H32.69c-1.11,0-2.02-0.9-2.02-2.01s0.9-2.02,2.01-2.02c0,0,0,0,0,0h40.32
		c1.11,0,2.02,0.9,2.02,2.01S74.13,37.9,73.01,37.91C73.01,37.91,73.01,37.91,73.01,37.91z"/>
	<path id="Path_482_1_" class="st0" d="M73.01,50H32.69c-1.11,0-2.02-0.9-2.02-2.01s0.9-2.02,2.01-2.02c0,0,0,0,0,0h40.32
		c1.11,0,2.02,0.9,2.02,2.01S74.13,50,73.01,50C73.01,50,73.01,50,73.01,50z"/>
	<path id="Path_483_1_" class="st0" d="M73.01,62.1H32.69c-1.11,0-2.02-0.9-2.02-2.01s0.9-2.02,2.01-2.02c0,0,0,0,0,0h40.32
		c1.11,0,2.02,0.9,2.02,2.01S74.13,62.09,73.01,62.1C73.01,62.1,73.01,62.1,73.01,62.1z"/>
</g>
</svg>
