<?xml version="1.0" encoding="utf-8"?>
<!-- Generator: Adobe Illustrator 24.1.2, SVG Export Plug-In . SVG Version: 6.00 Build 0)  -->
<svg version="1.1" id="Layer_1" xmlns="http://www.w3.org/2000/svg" xmlns:xlink="http://www.w3.org/1999/xlink" x="0px" y="0px"
	 viewBox="0 0 115 115" style="enable-background:new 0 0 115 115;" xml:space="preserve">
<style type="text/css">
	.st0{fill:#FFFFFF;}
</style>
<g id="Group_94" transform="translate(980.253 104.181)">
	<g id="Group_89" transform="translate(-47.449 -77.275)">
		<g id="Group_88" transform="translate(0 0)">
			<path id="Path_513" class="st0" d="M-841.27,29.31h-5.97c2.48-5.63,2.21-10.19,1.27-13.27c-1.97-6.71-8.08-11.36-15.08-11.46
				c-2.22,0.02-4.42,0.42-6.5,1.21c-2.65,0.93-5.17,2.19-7.51,3.75c-2.33-1.57-4.85-2.84-7.51-3.75c-2.08-0.78-4.28-1.18-6.5-1.21
				c-7,0.1-13.11,4.75-15.08,11.46c-0.93,3.28-1.27,8.24,1.88,14.48h-7.24c-0.59,0-1.07,0.48-1.07,1.07c0,0.59,0.48,1.07,1.07,1.07
				h8.51c0.35,0.63,0.76,1.24,1.21,1.81c6.97,10.05,22.12,20.98,24.86,21.65v0.07c0.05,0,0.1-0.03,0.13-0.07h0.2v-0.07
				c2.35-1.14,16.89-10.52,24.53-21.65c0.7-0.96,1.33-1.97,1.88-3.02h7.04c0.58,0.01,1.06-0.46,1.07-1.05c0-0.01,0-0.02,0-0.03
				C-840.13,29.7-840.66,29.26-841.27,29.31z M-852,33.26c-7.1,10.39-20.17,18.77-22.99,20.58c-2.88-1.81-15.88-10.25-23.05-20.57
				l-0.4-0.6h9.85c0.42,0.01,0.81-0.22,1.01-0.6l4.49-8.85l7.04,18.03c0.17,0.4,0.57,0.67,1.01,0.67h0.07
				c0.48-0.01,0.89-0.34,1.01-0.8l6.17-21.11l3.28,10.66c0.13,0.39,0.47,0.67,0.87,0.74c0.42,0.05,0.83-0.13,1.07-0.47l2.61-3.82
				l2.21,3.75c0.19,0.33,0.55,0.54,0.94,0.54h6.03C-851.19,32.06-851.59,32.66-852,33.26z M-849.58,29.31h-6.57l-2.75-4.69
				c-0.19-0.33-0.55-0.54-0.94-0.54c-0.38-0.03-0.74,0.15-0.94,0.47l-2.28,3.35l-3.69-12c-0.17-0.45-0.59-0.76-1.07-0.8
				c-0.49,0.01-0.92,0.33-1.07,0.8l-6.23,21.52l-6.77-17.29c-0.14-0.4-0.52-0.67-0.94-0.67c-0.43-0.03-0.83,0.21-1.01,0.6
				l-5.29,10.39h-10.66c-2.68-4.89-3.42-9.58-2.21-13.81c1.69-5.79,6.97-9.79,13-9.85c1.97,0.04,3.91,0.4,5.76,1.07
				c2.68,0.96,5.23,2.27,7.57,3.89c0.38,0.33,0.96,0.33,1.34,0c2.32-1.66,4.87-2.97,7.57-3.89c1.84-0.71,3.8-1.07,5.77-1.07
				c6.02,0.08,11.29,4.08,13,9.85C-846.84,20.53-847.44,24.82-849.58,29.31z"/>
		</g>
	</g>
	<g id="Group_93" transform="translate(-57 -104.181)">
		<g id="Group_92" transform="translate(0 0)">
			<g id="Group_91">
				<g id="Group_90">
					<path id="Path_514" class="st0" d="M-827.71,12.21l-31.51-6.93c-4.3-0.94-8.76-0.94-13.06,0l-31.51,6.93
						c-3.95,0.89-6.76,4.38-6.78,8.43v53.6c0,3.27,0.82,6.49,2.39,9.36c3.93,7.17,13.73,20.06,35.22,25.87
						c2.35,0.64,4.77,0.96,7.21,0.96c2.43,0,4.86-0.32,7.21-0.95c11.96-3.23,21.72-8.99,28.99-17.13c0.61-0.68,0.55-1.73-0.13-2.34
						c0,0,0,0,0,0c-0.68-0.61-1.73-0.55-2.34,0.13c0,0,0,0,0,0c-6.84,7.64-16.05,13.07-27.38,16.13c-4.16,1.12-8.53,1.12-12.69,0
						c-20.3-5.49-29.5-17.55-33.17-24.26c-1.3-2.38-1.98-5.05-1.98-7.77v-53.6c0.01-2.49,1.74-4.64,4.17-5.19l31.51-6.93
						c3.83-0.84,7.8-0.84,11.63,0l31.51,6.93c2.43,0.55,4.16,2.7,4.17,5.19v53.6c0,2.7-0.68,5.37-1.97,7.74
						c-0.4,0.73-0.83,1.47-1.29,2.2c-0.49,0.77-0.26,1.8,0.52,2.29c0,0,0,0,0,0c0.77,0.49,1.8,0.26,2.29-0.52
						c0.5-0.79,0.97-1.59,1.4-2.38c1.56-2.86,2.38-6.07,2.38-9.33v-53.6C-820.95,16.6-823.77,13.1-827.71,12.21L-827.71,12.21z"/>
					<path id="Path_515" class="st0" d="M-832.93,20.23l-27.42-6.03c-3.56-0.78-7.25-0.78-10.82,0l-27.42,6.03
						c-2.42,0.55-4.14,2.69-4.15,5.17v10.08c0,0.92,0.74,1.66,1.66,1.66c0,0,0,0,0,0c0.92,0,1.66-0.74,1.66-1.66l0,0V25.39
						c0-0.92,0.65-1.72,1.55-1.92l27.41-6.03c3.09-0.68,6.3-0.68,9.39,0l27.42,6.03c0.9,0.2,1.54,1,1.55,1.92v46.08
						c0,2.18-0.55,4.33-1.6,6.24c-2.99,5.44-10.46,15.22-26.95,19.68c-3.35,0.9-6.88,0.9-10.23,0
						c-16.51-4.46-23.98-14.26-26.96-19.71c-1.04-1.9-1.59-4.04-1.59-6.21V43.18c0-0.92-0.74-1.66-1.66-1.66c0,0,0,0,0,0
						c-0.91,0-1.65,0.74-1.65,1.66v28.29c0,2.73,0.69,5.41,2,7.81c3.23,5.91,11.3,16.53,29,21.31c3.92,1.06,8.04,1.06,11.96,0
						c17.67-4.77,25.74-15.38,28.99-21.28c1.32-2.4,2.01-5.1,2.01-7.83V25.39C-828.79,22.91-830.51,20.77-832.93,20.23z"/>
				</g>
			</g>
		</g>
	</g>
</g>
</svg>
