<?xml version="1.0" encoding="utf-8"?>
<!-- Generator: Adobe Illustrator 24.1.2, SVG Export Plug-In . SVG Version: 6.00 Build 0)  -->
<svg version="1.1" id="Layer_1" xmlns="http://www.w3.org/2000/svg" xmlns:xlink="http://www.w3.org/1999/xlink" x="0px" y="0px"
	 viewBox="0 0 40 30" style="enable-background:new 0 0 40 30;" xml:space="preserve">
<style type="text/css">
	.st0{fill:#FFFFFF;}
</style>
<g id="english" transform="translate(0 -76)">
	<g id="Group_98" transform="translate(0 76)">
		<g id="Group_97" transform="translate(0 0)">
			<path id="Path_523" class="st0" d="M23.75,9.42c-0.59,0-1.19,0.21-1.19,0.71v5.17l-2.46-4.7c-0.58-1.11-0.9-1.19-1.75-1.19
				c-0.59,0-1.19,0.23-1.19,0.73v9.66c0,0.49,0.59,0.73,1.19,0.73s1.19-0.24,1.19-0.73v-5.17l2.89,5.26
				c0.27,0.46,0.79,0.71,1.32,0.64c0.59,0,1.19-0.24,1.19-0.73v-9.68C24.94,9.63,24.35,9.42,23.75,9.42z"/>
			<path id="Path_524" class="st0" d="M15.42,11.49c0.46,0,0.71-0.49,0.71-1.05c0-0.49-0.21-1.02-0.71-1.02H10
				c-0.52,0-1.03,0.24-1.03,0.73v9.66c0,0.49,0.52,0.73,1.03,0.73h5.42c0.5,0,0.71-0.53,0.71-1.02c0-0.56-0.26-1.05-0.71-1.05h-4.08
				v-2.59h2.28c0.5,0,0.71-0.49,0.71-0.9c0-0.49-0.26-0.93-0.71-0.93h-2.28v-2.57L15.42,11.49z"/>
			<path id="Path_525" class="st0" d="M33.87,15l5.48-11.53c0.36-0.76,0.04-1.67-0.72-2.03c-0.2-0.1-0.43-0.15-0.66-0.15H2.02
				c-0.84,0-1.52,0.68-1.52,1.52c0,0,0,0,0,0v24.38c0,0.84,0.68,1.52,1.52,1.52c0,0,0,0,0,0h35.95c0.84,0,1.52-0.68,1.52-1.52
				c0-0.23-0.05-0.45-0.15-0.65L33.87,15z M3.55,25.66V4.34h32.02l-4.76,10.01c-0.2,0.41-0.2,0.89,0,1.31l4.76,10.01H3.55z"/>
		</g>
	</g>
</g>
</svg>
