<?xml version="1.0" encoding="utf-8"?>
<!-- Generator: Adobe Illustrator 24.1.2, SVG Export Plug-In . SVG Version: 6.00 Build 0)  -->
<svg version="1.1" id="Layer_1" xmlns="http://www.w3.org/2000/svg" xmlns:xlink="http://www.w3.org/1999/xlink" x="0px" y="0px"
	 viewBox="0 0 115 115" style="enable-background:new 0 0 115 115;" xml:space="preserve">
<style type="text/css">
	.st0{fill:#FFFFFF;}
</style>
<g id="Group_95" transform="translate(-430.893 -719.947)">
	<path id="Path_517" class="st0" d="M472.54,750.16v11.42h-11.43c-4.45-0.01-8.06-3.61-8.06-8.06V742.1h11.43
		C468.92,742.12,472.51,745.72,472.54,750.16 M464.47,732.03h-21.49v5.04v16.46c0.01,10.01,8.12,18.12,18.13,18.13h21.49v-5.03
		v-5.03v-11.42C482.59,740.15,474.48,732.05,464.47,732.03"/>
	<path id="Path_518" class="st0" d="M455.42,795.67c1.5-1.52,3.55-2.37,5.69-2.37h11.43v11.42c-0.01,4.45-3.61,8.06-8.06,8.06
		h-11.43v-11.42C453.04,799.23,453.9,797.18,455.42,795.67 M448.3,788.55c-3.41,3.39-5.33,8-5.32,12.81v11.42v5.03v5.03h21.49
		c10.01-0.01,18.12-8.12,18.13-18.13v-16.46v-5.03h-21.49C456.31,783.22,451.69,785.14,448.3,788.55"/>
	<path id="Path_519" class="st0" d="M506.63,810.42c-1.52-1.5-2.37-3.55-2.37-5.69v-11.43h11.42c4.45,0.01,8.06,3.61,8.06,8.06
		v11.43h-11.42C510.18,812.8,508.13,811.94,506.63,810.42 M499.5,817.55c3.39,3.41,8,5.33,12.81,5.32h11.43h5.03h5.03v-21.49
		c-0.01-10.01-8.12-18.12-18.13-18.13h-16.46h-5.03v21.48c-0.01,4.81,1.91,9.42,5.32,12.81"/>
	<path id="Path_520" class="st0" d="M515.67,761.59h-11.42v-11.43c0.01-4.45,3.61-8.06,8.06-8.06h11.42v11.43
		C523.72,757.97,520.12,761.56,515.67,761.59 M533.81,753.52v-21.49h-5.03h-16.46c-10.01,0.01-18.12,8.12-18.13,18.13v21.49h5.03
		h5.03h11.42C525.68,771.64,533.79,763.53,533.81,753.52"/>
</g>
</svg>
