<?xml version="1.0" encoding="utf-8"?>
<!-- Generator: Adobe Illustrator 24.1.2, SVG Export Plug-In . SVG Version: 6.00 Build 0)  -->
<svg version="1.1" id="Layer_1" xmlns="http://www.w3.org/2000/svg" xmlns:xlink="http://www.w3.org/1999/xlink" x="0px" y="0px"
	 viewBox="0 0 115 115" style="enable-background:new 0 0 115 115;" xml:space="preserve">
<style type="text/css">
	.st0{fill:#FFFFFF;}
</style>
<path id="Path_516" class="st0" d="M5.75,94.29v13.42c-0.03,1.02-0.89,1.82-1.91,1.79c-0.97-0.03-1.76-0.81-1.79-1.79V94.29
	c0.03-1.02,0.89-1.82,1.91-1.79C4.93,92.53,5.72,93.32,5.75,94.29z M32.55,63.21c-0.02,1-0.84,1.81-1.85,1.81
	c-3.91-0.09-7.5-2.21-9.46-5.6h-3.16c-6.81,0.01-12.32,5.52-12.33,12.33v12.51h10.57v-2.69c0.03-1.02,0.89-1.82,1.91-1.79
	c0.97,0.03,1.76,0.81,1.79,1.79v26.14c-0.03,1.02-0.89,1.82-1.91,1.79c-0.97-0.03-1.76-0.81-1.79-1.79V87.96H3.83
	c-1.02,0-1.85-0.83-1.85-1.85c0-0.17,0.02-0.33,0.07-0.49V71.74c0.01-8.85,7.18-16.02,16.03-16.03h2.85l1.35-4.08
	c-4.85-2.9-7.82-8.13-7.83-13.78V17.26c0.01-6.49,5.27-11.75,11.76-11.76h25.34c1.02,0,1.85,0.83,1.85,1.85v0v5.35
	c-0.01,8.94-7.25,16.18-16.19,16.19H18.15v8.96c0,6.81,5.52,12.33,12.33,12.33c0.37,0,0.75-0.02,1.12-0.05
	c6.37-0.65,11.21-6.01,11.21-12.41v-3.59c-0.03-1.02,0.77-1.88,1.79-1.91s1.88,0.77,1.91,1.79c0,0.04,0,0.08,0,0.12v3.59
	c0,5.32-2.6,10.31-6.97,13.34l1.76,5.83c0.31,0.97-0.22,2.02-1.2,2.33s-2.02-0.22-2.33-1.2c-0.01-0.02-0.01-0.04-0.02-0.06
	l-1.55-5.13c-3.37,1.29-7.08,1.4-10.53,0.33l-1.38,4.15c1.27,2.4,3.73,3.93,6.44,4.01C31.76,61.34,32.57,62.19,32.55,63.21z
	 M18.15,25.19h19.06c6.9-0.01,12.48-5.6,12.49-12.49v-3.5H26.21c-4.45,0-8.05,3.61-8.06,8.06V25.19z M102.95,56.82
	c-0.93-0.42-2.03,0-2.45,0.93c-0.42,0.93,0,2.03,0.93,2.45c0.05,0.02,0.1,0.04,0.15,0.06c4.69,1.87,7.75,6.41,7.74,11.46v4.31
	c-0.03,1.02,0.77,1.88,1.79,1.91c1.02,0.03,1.88-0.77,1.91-1.79c0-0.04,0-0.08,0-0.12v-4.31C113.04,65.15,109.05,59.25,102.95,56.82
	L102.95,56.82z M93.17,59.23c-0.82,0-1.54-0.54-1.77-1.32l-1.55-5.14c-3.38,1.28-7.1,1.39-10.55,0.31l-1.38,4.17
	c1.27,2.41,3.74,3.94,6.46,4.02c1.02,0.04,1.81,0.91,1.77,1.93c-0.04,0.98-0.84,1.75-1.81,1.77c-4.43-0.1-8.38-2.79-10.1-6.88
	c-0.17-0.41-0.19-0.87-0.05-1.3l1.73-5.23c-4.87-2.94-7.85-8.22-7.84-13.92V30.5c0-1.02,0.83-1.85,1.85-1.85c0.01,0,0.02,0,0.02,0
	c8.02,0.11,16-1.14,23.61-3.69c2.62-0.88,5.46,0.53,6.34,3.15c0.17,0.51,0.26,1.05,0.26,1.59v8.07c-0.01,5.29-2.61,10.24-6.97,13.24
	l1.75,5.82c0.29,0.98-0.26,2.01-1.24,2.31C93.53,59.2,93.35,59.22,93.17,59.23L93.17,59.23z M96.46,37.78v-8.07
	c0-0.42-0.2-0.81-0.54-1.06c-0.86-0.62-0.97-0.04-6.26,1.33c-5.85,1.51-11.85,2.3-17.89,2.37v5.29
	c-0.01,6.41,4.84,11.78,11.22,12.43c6.79,0.62,12.8-4.38,13.42-11.18C96.44,38.52,96.46,38.15,96.46,37.78L96.46,37.78z
	 M66.14,90.78l1.68,5.26c0.33,0.97-0.19,2.02-1.16,2.35c-0.97,0.33-2.02-0.19-2.35-1.16c-0.01-0.02-0.01-0.04-0.02-0.06l-1.55-4.86
	c-3.4,1.1-7.06,1.1-10.46,0.01l-1.36,4.18c1.21,2.45,3.67,4.02,6.39,4.1c1.02,0.01,1.84,0.85,1.83,1.87s-0.85,1.84-1.87,1.83
	c-3.99-0.09-7.62-2.32-9.5-5.84h-3.69c-4.08,0.01-7.39,3.32-7.4,7.4v1.85c-0.03,1.02-0.89,1.82-1.91,1.79
	c-0.97-0.03-1.76-0.81-1.79-1.79v-1.85c0.01-6.13,4.97-11.09,11.1-11.1h3.51l1.29-3.96c-8.17-4.75-10.94-15.22-6.19-23.39
	c3.82-6.56,11.5-9.83,18.87-8.02V28.65c0-12.73,10.32-23.05,23.05-23.05s23.05,10.32,23.05,23.05v19c-0.03,1.02-0.89,1.82-1.91,1.79
	c-0.97-0.03-1.76-0.81-1.79-1.79v-19c0-10.68-8.66-19.34-19.35-19.34c-10.68,0-19.34,8.66-19.34,19.34v32.12
	c8.42,4.29,11.77,14.59,7.48,23.02C71.26,86.7,68.96,89.13,66.14,90.78z M70.91,76.02c0-7.41-6.01-13.42-13.42-13.42
	s-13.42,6.01-13.42,13.42s6.01,13.42,13.42,13.42l0,0C64.9,89.42,70.91,83.42,70.91,76.02z M75.93,95.95
	c-0.92-0.44-2.03-0.06-2.47,0.86c-0.43,0.89-0.08,1.97,0.8,2.44c2.49,1.26,4.06,3.81,4.06,6.61v1.85c0.03,1.02,0.89,1.82,1.91,1.79
	c0.97-0.03,1.76-0.81,1.79-1.79v-1.85C82.03,101.67,79.67,97.84,75.93,95.95L75.93,95.95z M111.16,84.25H98.67v-2.68
	c-0.03-1.02-0.89-1.82-1.91-1.79c-0.97,0.03-1.76,0.81-1.79,1.79v26.14c0.03,1.02,0.89,1.82,1.91,1.79
	c0.97-0.03,1.76-0.81,1.79-1.79V87.96h10.64v19.75c0.03,1.02,0.89,1.82,1.91,1.79c0.97-0.03,1.76-0.81,1.79-1.79v-21.6
	C113.01,85.09,112.19,84.26,111.16,84.25L111.16,84.25z"/>
</svg>
