<?xml version="1.0" encoding="utf-8"?>
<!-- Generator: Adobe Illustrator 24.1.2, SVG Export Plug-In . SVG Version: 6.00 Build 0)  -->
<svg version="1.1" id="Layer_1" xmlns="http://www.w3.org/2000/svg" xmlns:xlink="http://www.w3.org/1999/xlink" x="0px" y="0px"
	 viewBox="0 0 125 125" style="enable-background:new 0 0 125 125;" xml:space="preserve">
<style type="text/css">
	.st0{fill:#FFFFFF;}
</style>
<g id="Group_130" transform="translate(0 2)">
	<g id="Group_125" transform="translate(28.55 99.959)">
		<path id="Path_533" class="st0" d="M5.68,2.74C5.18,2.73,4.7,2.92,4.34,3.26C3.99,3.61,3.79,4.09,3.8,4.59
			c0,0.5,0.19,0.98,0.54,1.34C4.7,6.27,5.18,6.46,5.67,6.47C6.7,6.45,7.53,5.62,7.55,4.59c0-0.5-0.2-0.98-0.56-1.33
			C6.64,2.92,6.17,2.73,5.68,2.74"/>
	</g>
	<g id="Group_126" transform="translate(0 45.034)">
		<path id="Path_534" class="st0" d="M41.44,2.74c-0.37,0-0.74,0.04-1.1,0.12l-0.41,0.08c-1.79,0.29-3.53,0.85-5.16,1.65
			c-6.16,3.43-9.2,8.61-9.06,15.38c0.11,2.39-0.01,4.79-0.37,7.16c-0.58,3.21-2.55,5.91-4.72,8.87
			c-4.54,6.07-9.58,11.74-15.08,16.95c-1.63,1.38-2.19,3.66-1.39,5.64l0.43,0.66c0.21,0.21,9.19,9.22,12.16,12.2l0.93,0.94l0.6,0.41
			c0.63,0.27,1.31,0.42,1.99,0.43c1.45-0.06,2.82-0.7,3.78-1.79c1.94-1.95,3.88-3.89,5.87-5.79c0.75-0.72,0.77-1.91,0.05-2.65
			s-1.91-0.77-2.65-0.05l0,0c-2,1.92-3.97,3.88-5.92,5.85c-0.53,0.53-0.88,0.68-1.16,0.68c-0.07,0-0.13-0.01-0.2-0.03l-0.64-0.65
			c-2.66-2.67-10.17-10.2-11.84-11.87c-0.07-0.36,0.03-0.73,0.6-1.29c5.68-5.39,10.89-11.25,15.57-17.53
			c2.25-3.07,4.58-6.25,5.31-10.32c0.41-2.61,0.55-5.26,0.43-7.9c-0.11-5.35,2.22-9.29,7.14-12.03c1.3-0.61,2.68-1.04,4.1-1.26
			l0.42-0.09l0.53,0.01c0.22,0.23,0.36,0.53,0.39,0.85l0.13,0.69c0.19,1.19,0.5,2.35,0.93,3.47c1.96,4.92,6.5,8.33,11.77,8.84
			c1.44,0.19,1.44,0.19,1.69,1.63c1.11,6.09,5.95,10.81,12.07,11.76l0.9,0.16c0.78,0.17,0.89,0.35,0.77,1.15
			c-0.63,4.45-3.4,8.31-7.42,10.32c-1.61,0.73-3.36,1.11-5.13,1.13l-0.74,0.06c-0.63,0.06-1.27,0.11-1.91,0.16
			c-2.14,0.1-4.27,0.38-6.37,0.84c-3.76,0.94-6.77,3.17-9.67,5.32l-0.39,0.28c-0.82,0.64-0.97,1.82-0.33,2.63
			c0.62,0.79,1.75,0.96,2.57,0.38l0.38-0.28c2.73-2.03,5.32-3.94,8.35-4.69c1.89-0.41,3.81-0.66,5.74-0.75
			c0.66-0.05,1.32-0.1,1.97-0.16l0.71-0.06c2.3-0.04,4.56-0.58,6.63-1.59c5.03-2.57,8.51-7.43,9.31-13.03
			c0.57-2.37-0.9-4.75-3.27-5.32c-0.12-0.03-0.25-0.05-0.37-0.07c-0.39-0.09-0.8-0.16-1.2-0.22c-4.52-0.71-8.1-4.2-8.91-8.7
			c-0.54-3.1-1.78-4.28-4.9-4.7c-3.96-0.31-7.38-2.87-8.8-6.58c-0.33-0.88-0.56-1.79-0.71-2.72L45.7,6.64
			c-0.19-1.31-0.92-2.49-2.01-3.24c-0.68-0.44-1.47-0.67-2.27-0.66"/>
	</g>
	<g id="Group_127" transform="translate(46.986)">
		<path id="Path_535" class="st0" d="M63.25,2.74c-0.5,0-0.98,0.2-1.33,0.55c-0.73,0.73-0.74,1.91-0.01,2.65l8.53,8.55
			c0.07,0.36-0.04,0.75-0.69,1.37C64.14,21.2,58.98,27,54.34,33.21l-0.13,0.19c-2.23,3.05-4.54,6.2-5.25,10.24
			c-0.43,2.66-0.56,5.35-0.4,8.03c0.27,6.72-5.03,11.92-10.31,13.06c-0.95,0.2-1.93,0.31-2.9,0.31c-4.94,0-9.47-2.72-11.78-7.08
			c-0.52-1.09-0.92-2.24-1.19-3.43l-0.19-0.7c-0.26-1.31-1.37-2.28-2.7-2.38c-3.42-0.3-6.57-1.97-8.73-4.63
			c-3.24-3.67-4.14-8.85-2.32-13.4c1.2-3.21,3.57-5.85,6.63-7.39c1.71-0.78,3.58-1.18,5.46-1.17l0.37-0.03
			c0.62-0.04,1.23-0.08,1.85-0.12c1.55-0.09,3.16-0.19,4.76-0.44c4.24-0.66,7.68-3.1,10.45-5.06c4.55-3.29,8.85-6.92,12.85-10.86
			c0.71-0.75,0.68-1.94-0.07-2.65c-0.7-0.67-1.8-0.69-2.53-0.05c-3.87,3.81-8.02,7.32-12.41,10.5c-3.11,2.2-5.74,3.92-8.86,4.41
			c-1.42,0.23-2.87,0.31-4.41,0.4c-0.63,0.04-1.27,0.08-1.9,0.13l-0.37,0.03c-2.43,0.02-4.82,0.58-7,1.64
			c-3.85,1.99-6.82,5.35-8.33,9.42C2.69,37.95,3.82,44.49,7.86,49.2c2.68,3.32,6.55,5.46,10.79,5.94l0.11,0.38
			c0.34,1.46,0.85,2.88,1.51,4.22c2.96,5.58,8.76,9.06,15.07,9.06c1.25,0,2.49-0.14,3.71-0.4c6.7-1.44,13.64-7.85,13.27-16.88
			c-0.14-2.42-0.02-4.84,0.35-7.23c0.55-3.18,2.51-5.85,4.58-8.68l0.14-0.19c4.52-6.04,9.54-11.68,15.01-16.87
			c1.69-1.39,2.28-3.71,1.47-5.73l-0.42-0.65l-8.85-8.88C64.23,2.93,63.75,2.73,63.25,2.74"/>
	</g>
	<g id="Group_128" transform="translate(33.277 57.889)">
		<path id="Path_536" class="st0" d="M5.67,2.74c-1.03,0-1.87,0.84-1.88,1.87c0,0,0,0,0,0.01c0,3.7,2.23,10.7,10.7,10.7
			c1.04,0,1.88-0.84,1.88-1.88s-0.84-1.88-1.88-1.88c-6.67,0-6.94-6.22-6.95-6.95C7.55,3.58,6.71,2.74,5.67,2.74
			C5.68,2.74,5.68,2.74,5.67,2.74"/>
	</g>
	<g id="Group_129" transform="translate(71.614 47.297)">
		<path id="Path_537" class="st0" d="M16.68,2.74c-0.54,0-1.04,0.23-1.4,0.63c-1.07,1.34-2.68,2.14-4.4,2.17
			C9.41,5.49,8,4.98,6.85,4.08C6.51,3.81,6.1,3.67,5.67,3.67c-1.04,0-1.88,0.84-1.88,1.87c0,0.57,0.25,1.11,0.7,1.46
			c1.84,1.46,4.11,2.27,6.45,2.31c2.77-0.04,5.38-1.3,7.13-3.45c0.69-0.77,0.63-1.96-0.14-2.65C17.58,2.91,17.13,2.74,16.68,2.74"/>
	</g>
</g>
</svg>
