<?xml version="1.0" encoding="utf-8"?>
<!-- Generator: Adobe Illustrator 24.1.2, SVG Export Plug-In . SVG Version: 6.00 Build 0)  -->
<svg version="1.1" id="Layer_1" xmlns="http://www.w3.org/2000/svg" xmlns:xlink="http://www.w3.org/1999/xlink" x="0px" y="0px"
	 viewBox="0 0 125 125" style="enable-background:new 0 0 125 125;" xml:space="preserve">
<style type="text/css">
	.st0{fill:#FFFFFF;}
</style>
<g id="Group_117" transform="translate(1034)">
	<path id="Path_526" class="st0" d="M-979.25,122.15c-11.61,0.02-21.05-9.38-21.07-20.99c0-0.01,0-0.02,0-0.03V74.68
		c0-3.41-1.76-6.59-4.67-8.38c-0.75-0.47-1.55-0.84-2.4-1.09c-9.26-4.7-15.09-14.21-15.08-24.59V18.53
		c0.01-6.1,3.86-11.54,9.62-13.57c1.39-0.49,2.85-0.77,4.32-0.82c3.06-2.21,7.33-1.51,9.54,1.55c2.21,3.06,1.51,7.33-1.55,9.54
		c-1.17,0.84-2.57,1.29-4.01,1.29c-1.4,0.01-2.77-0.42-3.92-1.23c-1.62,0.22-2.83,1.6-2.84,3.23v22.09
		c0,7.54,5.11,14.12,12.42,15.99c2.72,0.69,5.57,0.69,8.28,0.01c7.31-1.87,12.42-8.46,12.42-16v-22.4c-0.14-1.5-1.29-2.71-2.78-2.92
		c-3.09,2.18-7.35,1.44-9.53-1.64c-2.18-3.09-1.44-7.35,1.64-9.53c1.16-0.82,2.54-1.25,3.95-1.25c1.43,0.01,2.82,0.45,3.99,1.28
		c5.9,0.23,11.07,4.03,13.05,9.59c0.55,1.54,0.83,3.16,0.83,4.8v22.09c-0.01,7.87-3.37,15.36-9.24,20.6
		c-1.71,1.54-3.6,2.85-5.65,3.91c-0.91,0.28-1.79,0.67-2.6,1.17c-2.9,1.8-4.66,4.97-4.65,8.38v26.45c0.06,5.48,4.54,9.88,10.02,9.82
		c5.4-0.05,9.77-4.42,9.82-9.82V78.1c0-7.03,3.51-13.59,9.36-17.49c7.12-4.63,16.3-4.63,23.42,0c5.85,3.89,9.37,10.46,9.36,17.49
		l0.01,13.51c6,3.08,8.37,10.44,5.28,16.44c-3.08,6-10.44,8.37-16.44,5.28c-6-3.08-8.37-10.44-5.28-16.44
		c0.06-0.11,0.12-0.23,0.18-0.34c1.18-2.11,2.96-3.83,5.11-4.94V78.1c-0.01-5.48-4.46-9.92-9.94-9.91c-5.47,0.01-9.9,4.44-9.91,9.91
		l-0.01,23.03c-0.01,11.61-9.43,21.02-21.04,21.02C-979.23,122.15-979.24,122.15-979.25,122.15z M-1004.55,5.16
		c-1.04,0-2.05,0.36-2.86,1.02l-0.31,0.24l-0.4,0.01c-1.35,0.01-2.68,0.24-3.96,0.69c-3.46,1.21-6.18,3.93-7.4,7.38
		c-0.46,1.29-0.7,2.66-0.7,4.03v22.09c0.01,9.45,5.27,18.11,13.65,22.47c0.97,0.29,1.9,0.71,2.76,1.26
		c3.57,2.21,5.75,6.12,5.74,10.33v26.45c0,6.26,3.13,12.11,8.34,15.57c6.35,4.12,14.52,4.12,20.86,0c5.22-3.46,8.35-9.31,8.34-15.57
		l0.06-24.18c0.65-6.72,6.61-11.64,13.33-10.99c6.26,0.6,11.04,5.85,11.05,12.14v14.98l-0.69,0.3c-1.99,0.88-3.64,2.38-4.71,4.28
		c-2.65,4.77-0.93,10.79,3.84,13.44c0.28,0.16,0.57,0.3,0.86,0.43c2.54,1.09,5.41,1.09,7.95,0c5.01-2.18,7.3-8.01,5.12-13.02
		c-1-2.3-2.83-4.13-5.13-5.12l-0.68-0.3V78.1c0-6.27-3.14-12.11-8.36-15.58c-6.34-4.13-14.53-4.13-20.87,0
		c-5.22,3.47-8.35,9.32-8.35,15.58v23.03c0,6.75-5.47,12.21-12.21,12.21c-6.75,0-12.21-5.47-12.21-12.21V74.68
		c0-5.38,3.53-10.12,8.68-11.67c8.25-4.44,13.41-13.03,13.46-22.4V18.53c0-1.37-0.24-2.73-0.7-4.02c-1.71-4.79-6.22-8.02-11.31-8.07
		l-0.4-0.01l-0.3-0.24c-1.94-1.58-4.8-1.28-6.38,0.66c-1.58,1.94-1.28,4.8,0.66,6.38c1.66,1.35,4.05,1.35,5.71,0l0.31-0.26h0.4
		c2.86,0.08,5.2,2.31,5.42,5.16v22.48c0,8.59-5.82,16.08-14.14,18.22c-3.09,0.78-6.33,0.78-9.43-0.01
		c-7.9-2.02-13.6-8.92-14.1-17.06h-0.03l-0.01-1.15l0.13-23.23c0.55-2.52,2.75-4.35,5.34-4.41l0.42-0.01l0.33,0.27
		c1.95,1.58,4.81,1.29,6.39-0.66c1.58-1.95,1.29-4.81-0.66-6.39C-1002.48,5.51-1003.5,5.15-1004.55,5.16L-1004.55,5.16z
		 M-932.75,108.02c-3.07-0.01-5.56-2.5-5.55-5.58c0.01-3.07,2.5-5.56,5.58-5.55c3.07,0.01,5.55,2.5,5.55,5.57
		c-0.01,3.07-2.5,5.56-5.57,5.56L-932.75,108.02z M-932.75,99.18c-1.81,0.01-3.26,1.48-3.25,3.29c0.01,1.81,1.48,3.26,3.29,3.25
		c1.8-0.01,3.25-1.47,3.25-3.27c0-1.81-1.47-3.27-3.28-3.27H-932.75z"/>
</g>
</svg>
