<?xml version="1.0" encoding="utf-8"?>
<!-- Generator: Adobe Illustrator 24.3.0, SVG Export Plug-In . SVG Version: 6.00 Build 0)  -->
<svg version="1.1" id="Layer_1" xmlns="http://www.w3.org/2000/svg" xmlns:xlink="http://www.w3.org/1999/xlink" x="0px" y="0px"
	 viewBox="0 0 125 125" style="enable-background:new 0 0 125 125;" xml:space="preserve">
<style type="text/css">
	.st0{fill:#FFFFFF;}
</style>
<g>
	<path class="st0" d="M103.3,61.3c-8.2-7.9-8.2-10.8-7.3-13.9c0.3-1.2,0.7-2.4,0.7-4.1c0-14.5-14-29.4-37.6-29.4
		c-19.1,0-38.9,12.5-38.9,33.3c0,11.1,4.2,17.8,8,23.7l1.1,1.8c2.8,4.4,5,7.8,5,13.2c0,2.2-0.9,6.2-2.6,11.1
		c-0.4,1.1-0.3,2.3,0.3,3.3c0.6,1,1.5,1.8,2.7,2l14.3,3.3c14,3.3,21.1,4.9,23.8,5.7c0.2,0.1,0.5,0.1,0.7,0.1c0.6,0,1.2-0.2,1.6-0.6
		c0.7-0.6,0.9-1.5,0.8-2.3c-0.4-2.2-0.5-5.2,1.4-7.3c1.8-2,5.1-2.9,9.9-2.7c3,0.2,5.2-0.6,6.4-2.2c1.2-1.7,1.3-4.1,0-7.3
		c-0.5-1.3-0.3-1.7-0.3-1.7c0.1-0.1,0.8-0.3,1.1-0.4c1.1-0.3,3.4-0.9,3.4-3.4c0-1.7-1.2-2.6-2-3.1c-0.3-0.2-0.5-0.4-0.6-0.5
		c0.2-0.1,0.4-0.2,0.6-0.3c0.9-0.5,2.2-1.2,2.5-2.7c0.2-1.1-0.1-2.2-1.2-3.7c-0.5-0.7-0.8-1.1-0.8-1.7c0-0.7,0.4-1,2.9-1.5
		c2.1-0.5,4.8-1,5.5-3.7C105.1,64.3,104.6,62.6,103.3,61.3z M101.4,65.4c-0.2,0.7-1.4,1-3.1,1.3c-2.2,0.5-5.5,1.2-5.5,4.7
		c0,1.7,0.9,2.8,1.6,3.8C94.9,75.7,95,76,95,76c-0.1,0.2-0.7,0.5-1,0.6c-0.9,0.5-2.3,1.3-2.3,3c0,1.8,1.3,2.7,2.1,3.3
		c0.2,0.2,0.6,0.3,0.6,0.3s-0.5,0.2-0.9,0.3c-1,0.3-2.5,0.6-3.2,2c-0.6,1.1-0.5,2.5,0.2,4.5c1,2.6,0.6,3.7,0.3,4.1
		c-0.5,0.7-0.9,0.9-5.1,0.9c-10,0-19-5.9-19.1-6c-0.7-0.5-1.8-0.3-2.3,0.4c-0.5,0.7-0.3,1.8,0.4,2.3C65,92,70,95.3,76.9,97.1
		c-0.8,0.5-1.5,1.1-2.1,1.7c-2.2,2.5-2.6,5.7-2.4,8.3c0,0.3-0.2,0.5-0.5,0.4c-3.5-0.9-10.4-2.5-22.2-5.3l-14.3-3.3
		c-0.2-0.1-0.4-0.2-0.6-0.4c-0.1-0.1-0.2-0.4-0.1-0.6c1.3-3.7,2.8-8.8,2.8-12.2c0-6.3-2.7-10.5-5.5-14.9L31,69
		c-3.7-5.8-7.5-11.8-7.5-21.9C23.5,28.2,41.6,17,59.1,17c21.5,0,34.3,13.3,34.3,26.2c0,1.2-0.3,2.2-0.6,3.3
		c-1.3,4.8-0.4,8.8,8.1,17.1C101.3,63.9,101.7,64.4,101.4,65.4z"/>
	<g>
		<path class="st0" d="M80.5,31c-2.1-4-6.4-6.5-11-6.5c-1.6,0-3.3,0.3-4.8,0.9c-2.5-2.3-5.7-3.6-9.2-3.6c-3.7,0-7.4,1.6-9.9,4.3
			c-7.2,0.1-13,5.9-13,13c0,0.7,0.1,1.4,0.2,2c-2.8,1.9-4.5,5-4.5,8.4c0,5.3,3.6,9.3,8.9,10.1c-0.3,2,0,3.7,1.1,5
			c1.4,1.7,4,2.4,7.6,2.2l-1.5,8.5c-0.2,0.9,0.1,1.7,0.6,2.4c0.6,0.7,1.4,1.1,2.3,1.1h4.4c1.4,0,2.7-1,3.1-2.4
			c3-11,7.6-14.7,9.7-15.9c11.3-0.2,16-6.9,17.3-10.5c4-1.3,6.8-5,6.8-9.3C88.6,35.9,85.1,31.9,80.5,31z M51.7,75.5h-4l1.6-9.2
			c0.9-0.2,1.9-0.4,2.8-0.6c0.9-0.2,1.4-1.1,1.1-2c-0.2-0.9-1.1-1.4-2-1.1c-1.2,0.4-2.4,0.6-3.5,0.7l-0.1,0c-3.5,0.6-6,0.3-6.9-0.8
			c-0.6-0.8-0.5-2.1-0.1-3.3c1.6-1,3.1-1.7,4.4-2.3c1.7,0.5,2.6,1.4,3,2.1c0.3,0.5,0.8,0.8,1.4,0.8c0.3,0,0.6-0.1,0.8-0.2
			c0.8-0.5,1-1.5,0.6-2.2c-0.3-0.5-0.8-1.1-1.4-1.7c4-0.4,6.6,1.1,9,2.6c0.6,0.4,1.3,0.7,1.9,1C57.5,61.9,54.1,66.6,51.7,75.5z
			 M80.1,47.1l-1,0.2l-0.2,1c0,0-0.6,2.2-2.6,4.4c-0.5-3.9-2.9-6.1-4.1-7c-0.7-0.5-1.2-0.7-1.3-0.8c-0.8-0.4-1.8,0-2.1,0.8
			c-0.4,0.8,0,1.8,0.8,2.1c0.1,0,0.3,0.2,0.7,0.5c1.3,0.9,3.2,3,2.8,6.8c-2.1,1.2-5,2-8.9,2c-1.1,0-2.4-0.8-3.9-1.7
			c-1.1-0.7-2.3-1.4-3.7-2c-0.9-1.1-1.4-2.2-1.4-3.2c0.1-1.7,1.4-3,1.4-3c0.7-0.6,0.7-1.6,0.1-2.3C56,44.4,55,44.4,54.3,45
			c-0.2,0.2-2.4,2.2-2.5,5.2c0,0.8,0.1,1.5,0.3,2.3c-3.4-0.3-7.6,0.6-13.3,4c-4.4-0.2-7.3-2.9-7.3-7c0-2.5,1.4-4.8,3.6-6.1
			c0.7-0.1,1.4-0.2,2-0.3c1,0.9,1.5,1.7,1.5,2.5c0,1.2-1.1,2.4-1.6,2.7c-0.7,0.5-0.9,1.6-0.3,2.3c0.3,0.4,0.8,0.7,1.3,0.7
			c0.3,0,0.7-0.1,1-0.3c0.3-0.2,2.9-2.3,2.9-5.3c0-0.8-0.2-1.5-0.5-2.2c3.1,1,3.9,3.2,4,3.4c0.2,0.7,0.9,1.2,1.6,1.2
			c0.1,0,0.3,0,0.4-0.1c0.9-0.2,1.4-1.1,1.1-2c0-0.1-2.3-7.4-12.6-6c0-0.3-0.1-0.6-0.1-0.9c0-4.9,3.7-8.9,8.4-9.6
			c-0.7,5.1,2.3,8.3,2.4,8.5c0.3,0.3,0.8,0.5,1.2,0.5c0.4,0,0.8-0.1,1.1-0.4c0.7-0.6,0.7-1.6,0.1-2.3c0,0-2.5-2.8-1.3-7.2
			c1.9-2.2,4.8-3.5,7.7-3.5c2.9,0,5.7,1.2,7.6,3.4l0.8,1l1.1-0.6c1.3-0.7,2.8-1.1,4.4-1.1c2.9,0,5.5,1.3,7.2,3.5
			c-4.4,1.3-6.2,5.5-6.5,7.9c-0.1,0.9,0.5,1.7,1.4,1.8c0.1,0,0.1,0,0.2,0c0.8,0,1.5-0.6,1.6-1.4c0.1-0.6,0.8-5.4,5.8-5.4
			c3.1,0.3,5.4,2.6,5.9,5.5c-2.4,0.8-4.1-0.6-4.3-0.8c-0.7-0.6-1.7-0.5-2.3,0.1c-0.6,0.7-0.5,1.7,0.1,2.3c0.1,0.1,2.1,1.9,5.1,1.9
			c0.3,0,0.7,0,1-0.1C84,45.1,82.3,46.6,80.1,47.1z"/>
		<path class="st0" d="M57.5,36.8c0.3-1.1,0.5-2.5,0-3.8c-0.3-1-1.2-2.3-3.2-3c-0.8-0.3-1.8,0.2-2.1,1c-0.3,0.9,0.2,1.8,1,2.1
			c1,0.3,1.2,0.8,1.2,1c0.4,1-0.4,2.7-0.7,3.2c-0.3,0.5-0.3,1.2,0,1.7c0.3,0.5,0.9,0.9,1.5,0.8c0,0,4.2-0.1,5.8,2.3
			c1.1,1.6,1,4-0.4,7.3c-0.3,0.8,0.1,1.8,0.9,2.1c0.2,0.1,0.4,0.1,0.6,0.1c0.6,0,1.2-0.4,1.5-1c1.8-4.4,1.8-7.9,0-10.4
			C62.1,38.1,59.4,37.2,57.5,36.8z"/>
	</g>
</g>
</svg>
