<?xml version="1.0" encoding="utf-8"?>
<!-- Generator: Adobe Illustrator 24.3.0, SVG Export Plug-In . SVG Version: 6.00 Build 0)  -->
<svg version="1.1" id="Layer_1" xmlns="http://www.w3.org/2000/svg" xmlns:xlink="http://www.w3.org/1999/xlink" x="0px" y="0px"
	 viewBox="0 0 125 125" style="enable-background:new 0 0 125 125;" xml:space="preserve">
<style type="text/css">
	.st0{fill:#FFFFFF;}
</style>
<g>
	<path class="st0" d="M27.5,57.9L26.3,53l2-0.5l1.2,4.9L27.5,57.9z M36.5,86.8c0.1,0.5-0.2,1.1-0.7,1.2c-0.5,0.1-1.1-0.2-1.2-0.7
		l-0.5-2l2-0.5L36.5,86.8z M35.6,78.8l-3.9,0.9L27,60.1l3.9-0.9L35.6,78.8z M32.1,81.7l3.9-0.9l0.5,2l-3.9,0.9L32.1,81.7z
		 M25.4,49.1l2-0.5l0.5,2l-2,0.5L25.4,49.1z M29.1,31.3c-1.2-0.8-2.7-1.1-4.1-0.8l-2,0.5c-2.7,0.6-4.4,3.4-3.7,6.1l0.9,3.9
		c0.5,2,2.1,3.4,4,3.8l0.6,2.4l-1,0.2c-0.5,0.1-0.9,0.7-0.7,1.2l0.9,3.9l1.4,5.9c-0.5,0.1-0.9,0.7-0.7,1.2l5.2,21.5l0.9,3.9
		c0.1,0.5,0.7,0.9,1.2,0.7l0.5,2c0.4,1.6,2,2.6,3.6,2.2c1.6-0.4,2.6-2,2.2-3.6l-0.5-2c0.5-0.1,0.9-0.7,0.7-1.2l-0.9-3.9l-5.2-21.6
		c-0.1-0.5-0.7-0.9-1.2-0.7L30,51.1L29,47.2c-0.1-0.5-0.7-0.9-1.2-0.7l-1,0.2l-0.5-2c0.5-0.1,0.9-0.7,0.7-1.2
		c-0.1-0.5-0.7-0.9-1.2-0.7c-1.6,0.4-3.3-0.6-3.6-2.2l-0.9-3.9c-0.4-1.6,0.6-3.3,2.2-3.6l2-0.5c0.8-0.2,1.7,0,2.4,0.5
		c0.5,0.3,1.1,0.2,1.4-0.2C29.7,32.2,29.6,31.6,29.1,31.3"/>
	<path class="st0" d="M111.9,50.6c-3.7-1.1-5.9-5-4.8-8.8c1.1-3.7,5-5.9,8.8-4.8c3.7,1.1,5.9,5,4.8,8.8
		C119.5,49.5,115.6,51.7,111.9,50.6 M112.3,52.8l-0.6,1.9l-1.9-0.6l0.6-1.9L112.3,52.8z M107.8,60.9l1.4-4.8l1.9,0.6l-1.4,4.8
		L107.8,60.9z M101.1,90.4c-0.2,0.5-0.7,0.8-1.3,0.7c-0.5-0.2-0.8-0.7-0.7-1.2l0.6-1.9l1.9,0.6L101.1,90.4z M105.5,79.1l-3.9-1.1
		l2.3-7.7l3.9,1.1L105.5,79.1z M103.2,86.9l-3.9-1.1l1.7-5.8l3.9,1.1L103.2,86.9z M108.4,69.5l-3.9-1.1l1.7-5.8l3.9,1.1L108.4,69.5z
		 M116.5,35.1c-4.8-1.4-9.8,1.3-11.3,6.1c-1.1,3.8,0.4,7.7,3.4,9.9l-1,3.4l-1.7,5.8c-0.5-0.2-1.1,0.1-1.3,0.7l-2.3,7.7l-2.9,9.7
		l-2.3,7.7c-0.2,0.5,0.1,1.1,0.7,1.3l-0.6,1.9c-0.5,1.6,0.4,3.3,2,3.8c1.6,0.5,3.3-0.4,3.8-2l0.6-1.9c0.5,0.2,1.1-0.1,1.3-0.7
		l2.3-7.7L110,71l2.3-7.7c0.2-0.5-0.1-1.1-0.7-1.3l1.7-5.8l1-3.4c3.7-0.2,7.1-2.7,8.2-6.5C124,41.6,121.3,36.5,116.5,35.1"/>
	<path class="st0" d="M112.7,47.7c-2.1-0.6-3.4-2.9-2.7-5c0.6-2.1,2.9-3.4,5-2.7c2.1,0.6,3.3,2.9,2.7,5
		C117.1,47.1,114.9,48.3,112.7,47.7 M115.6,38c-3.2-0.9-6.6,0.9-7.5,4.1c-0.9,3.2,0.9,6.6,4.1,7.5c3.2,0.9,6.6-0.9,7.5-4.1
		C120.6,42.3,118.8,39,115.6,38"/>
	<path class="st0" d="M21.9,91.5l-2,0.5l-2.3-9.8l2-0.5L21.9,91.5z M14.8,74.5l1-0.2c0.5-0.1,0.9-0.7,0.8-1.2
		c-0.1-0.5-0.7-0.9-1.2-0.8l-1,0.2l-0.9-3.9l1-0.2c0.5-0.1,0.9-0.7,0.8-1.2c-0.1-0.5-0.7-0.9-1.2-0.8l-1,0.2l-0.9-3.9l1-0.2
		c0.5-0.1,0.9-0.7,0.8-1.2c-0.1-0.5-0.7-0.9-1.2-0.8l-1,0.2l-0.9-3.9l1-0.2c0.5-0.1,0.9-0.7,0.8-1.2c-0.1-0.5-0.7-0.9-1.2-0.8
		l-1,0.2l-0.9-3.9l3.9-0.9l6.8,29.4l-3.9,0.9L14.8,74.5z M10.2,46.6l0.4-0.1l0.9,1.9l-1.4,0.3L10.2,46.6z M24,78.6l-2,0.5l-7-30.4
		c-0.1-0.5-0.7-0.9-1.2-0.8l-0.2,0l-1.5-3c-0.2-0.4-0.7-0.6-1.1-0.5l-1.1-4.9c-0.1-0.3-0.3-0.5-0.5-0.7L3.5,36
		c-0.5-0.2-1.1,0-1.3,0.5c-0.2,0.5,0,1.1,0.5,1.3L8,40.4l1,4.4c-0.5,0.1-0.8,0.5-0.8,1l-0.1,3.4l-0.2,0c-0.5,0.1-0.9,0.7-0.8,1.2
		l7,30.4l-2,0.5c-0.5,0.1-0.9,0.7-0.8,1.2c0.1,0.5,0.7,0.9,1.2,0.8l2.9-0.7l2.3,9.8l-1,0.2c-0.5,0.1-0.9,0.7-0.8,1.2
		c0.1,0.5,0.7,0.9,1.2,0.8l2-0.5l3.9-0.9l2-0.5c0.5-0.1,0.9-0.7,0.8-1.2c-0.1-0.5-0.7-0.9-1.2-0.8l-1,0.2l-2.3-9.8l2.9-0.7
		c0.5-0.1,0.9-0.7,0.8-1.2S24.6,78.5,24,78.6"/>
	<path class="st0" d="M91.3,63.4c-0.1,0.1-0.1,0.2-0.2,0.4c-1.6,8.5-3.3,16.8-4.2,21c-0.2,1.1-1.1,1.9-2.2,2.2
		c-0.2,0.1-0.4,0.1-0.5,0.1c0,0-0.1,0-0.2,0l-4.6,0c0,0-0.1,0-0.2,0c0,0-0.1,0-0.1,0c-0.1,0-0.3,0-0.5-0.1c-1-0.2-1.9-1-2.1-1.9
		L73,72.6c-0.3-1.3-1.5-2.2-2.9-2.2s-2.6,0.9-2.9,2.2l-3.4,12.5c-0.3,1-1.1,1.7-2.2,2c-0.2,0.1-0.4,0.1-0.5,0.1c0,0-0.1,0-0.2,0
		l-4.6,0c0,0-0.1,0-0.2,0c0,0-0.1,0-0.1,0c-0.2,0-0.3,0-0.6-0.1c-1.1-0.3-2-1.1-2.2-2.2c-0.9-4.2-2.6-12.5-4.2-21
		c0-0.1-0.1-0.3-0.2-0.4c-2.7-3.7-4.8-10.1-4.8-14.9c0-7.8,2.1-12.4,6.5-14.6c1.6-0.9,5.6-0.9,8.2-0.8c0.5,0,0.9,0,1.3,0
		c3,0,5.4,0.7,7.7,2.2c0.3,0.2,0.6,0.4,0.9,0.6c-2.8,2.9-4.5,7-4.5,11.7c0,0.5,0.4,1,1,1s1-0.4,1-1c0-8.2,6-14.5,14-14.5
		c0.4,0,0.8,0,1.3,0c2.6,0,6.6-0.1,8.3,0.9c4.4,2.2,6.5,6.8,6.5,14.6C96.1,53.4,94,59.8,91.3,63.4 M90.6,32.3
		c-2.1-1.2-6.2-1.1-9.3-1.1c-0.5,0-0.9,0-1.2,0c-3.4,0-6.2,0.8-8.8,2.5c0,0-0.1,0.1-0.1,0.1C71.1,33.9,71,34,70.9,34
		c-0.1,0.1-0.3,0.2-0.5,0.3l-0.1,0.1c-0.1,0-0.1,0.1-0.2,0.2c-0.4-0.3-0.8-0.6-1.2-0.9c-2.6-1.7-5.4-2.6-8.8-2.6c-0.4,0-0.8,0-1.2,0
		c-3,0-7.2-0.1-9.2,1.1c-5.1,2.5-7.5,7.8-7.5,16.3c0,5.1,2.2,11.8,5.1,15.8c1.6,8.5,3.3,16.7,4.2,20.8c0.4,1.8,1.8,3.2,3.6,3.7
		c0.4,0.1,0.8,0.2,1.2,0.2h0c0,0,0.1,0,0.1,0H61c0.1,0,0.1,0,0.1,0c0.3,0,0.7,0,1.1-0.1c1.7-0.4,3.1-1.7,3.6-3.3l3.4-12.5
		c0.2-0.7,0.8-0.7,1-0.7s0.8,0.1,1,0.7l3.4,12.6c0.5,1.6,1.9,2.9,3.6,3.3c0.4,0.1,0.7,0.2,1.1,0.2h0c0,0,0.1,0,0.1,0H84
		c0,0,0.1,0,0.1,0c0,0,0,0,0.1,0c0.4,0,0.8-0.1,1.1-0.2c1.9-0.5,3.3-1.9,3.6-3.7c0.9-4.2,2.6-12.4,4.2-20.8c2.9-4,5.1-10.7,5.1-15.8
		C98.1,40.1,95.6,34.8,90.6,32.3"/>
	<path class="st0" d="M65.1,52.1c-0.6,0-1,0.5-1,1v3.1c0,0.6,0.4,1,1,1c0.6,0,1-0.5,1-1v-3.1C66.1,52.6,65.7,52.1,65.1,52.1"/>
	<path class="st0" d="M87.4,48.5c-0.2,0.1-0.3,0.2-0.4,0.4l-0.9,1.6l-0.9-1.6c-0.1-0.2-0.2-0.3-0.4-0.4l-1.6-0.9l1.6-0.9
		c0.2-0.1,0.3-0.2,0.4-0.4l0.9-1.6l0.9,1.6c0.1,0.2,0.2,0.3,0.4,0.4l1.6,0.9L87.4,48.5z M91.6,46.8l-3-1.6L87,42.3
		c-0.3-0.6-1.4-0.6-1.8,0l-1.6,2.9l-3,1.6c-0.3,0.2-0.5,0.5-0.5,0.8c0,0.4,0.2,0.7,0.5,0.8l3,1.6l1.6,2.9c0.2,0.3,0.5,0.5,0.9,0.5
		c0.4,0,0.7-0.2,0.9-0.5l1.6-2.9l3-1.6c0.3-0.2,0.5-0.5,0.5-0.8C92.1,47.3,91.9,46.9,91.6,46.8"/>
</g>
</svg>
