<?xml version="1.0" encoding="utf-8"?>
<!-- Generator: Adobe Illustrator 24.3.0, SVG Export Plug-In . SVG Version: 6.00 Build 0)  -->
<svg version="1.1" id="Layer_1" xmlns="http://www.w3.org/2000/svg" xmlns:xlink="http://www.w3.org/1999/xlink" x="0px" y="0px"
	 viewBox="0 0 125 125" style="enable-background:new 0 0 125 125;" xml:space="preserve">
<style type="text/css">
	.st0{fill:#FFFFFF;}
</style>
<path class="st0" d="M94.6,33.6c-2.1,0.5-3.7,1.9-4.4,4c-0.4,1.2-0.3,2.4-0.1,3.5c-9.8-1.7-15.5,3.7-17.5,9.2
	c-0.4,1-0.6,2.2-0.8,3.3c-0.3-0.3-0.5-0.6-0.6-0.8c-0.5-2.8-2.1-4.1-3.3-4.8c-2.3-1.2-4.9-0.6-6.6,0.3c-1.6,0.8-2.7,1.9-3.5,3.1
	c-0.6-0.7-1.2-1.3-2-1.9c-0.5-5.3-3.3-9.6-7.7-12.1c-5.5-3-13.1-3-18.9,0.2c-4.7,2.6-8.1,6.7-9.8,11.7c-1.6,5.1-1.1,10.5,1.4,15.1
	c3.5,6.4,10.3,10.4,17.7,10.4c0.7,6.5,3.9,12.1,9.4,16.3c6.7,5.1,15.8,7.2,23.7,7.2c3.1,0,6.1-0.3,8.6-1c13.5-3.4,20.7-15,20.8-24.7
	c0.1-6.3-2.6-11.7-7.5-15.2c1.1-0.3,2.1-0.8,3.2-1.5c2,0.7,4.2,0.4,6-0.8c1.9-1.2,2.9-3.3,2.7-5.6c-0.2-2.8-1.7-11.8-4.8-14.5
	C99.3,33.7,96.8,33.1,94.6,33.6z M62,64.5c0,0.1-0.1,0.1-0.1,0.2c-1.1-0.6-2.2-1.1-3.1-1.3c0.7-1,1.2-2,1.5-3.1
	c0.2,0.1,0.4,0.1,0.5,0.2C61.4,61.2,62.3,62.7,62,64.5z M101,52.6c-1.1,0.7-2.5,0.8-3.7,0.2c-0.6-0.3-1.2-0.2-1.7,0.2
	c-2.8,2.2-6,2-7.9,1.6c-0.5-0.2-1.1-0.4-1.7-0.5c-0.8-0.2-1.7,0.2-2,1c-0.3,0.8,0.1,1.7,0.9,2c0.1,0,0.7,0.3,1.8,0.6
	c7.2,2.5,11.3,8,11.2,15.1c-0.1,8.5-6.5,18.6-18.4,21.6c-8.2,2.1-21,0.8-29.6-5.7c-5.2-3.9-8-9.1-8.2-15.4c0-0.4-0.2-0.8-0.5-1.1
	c-0.3-0.3-0.7-0.5-1.2-0.4c-6.7,0.5-13.1-3-16.3-8.7c-2.1-3.8-2.5-8.3-1.1-12.5c1.4-4.2,4.3-7.7,8.2-9.9c4.8-2.6,11.3-2.7,15.8-0.2
	c2.6,1.4,5.7,4.3,6.1,10.2c0,0.5,0.3,0.9,0.6,1.2c2.9,2.2,4.3,4.7,4.1,7.1c-0.2,2.4-2.2,4.6-5.5,6.2c-0.8,0.4-1.1,1.4-0.7,2.2
	c0.4,0.8,1.4,1.1,2.2,0.7c1-0.5,1.9-1,2.7-1.6c0.6,0,2.1,0.1,4.2,1.2c-0.6,0.5-1.3,1.1-2.2,1.6c-0.8,0.4-1.1,1.4-0.6,2.2
	c0.4,0.8,1.4,1.1,2.2,0.6c3.3-1.8,5.2-4.1,5.7-6.8c0.7-3.9-2-7-2.1-7.1l-0.5-0.5l-0.6-0.1c-0.1,0-1.3-0.2-1.7-2.3
	c-0.4-1.9,1.2-3.2,2.6-4c1-0.5,2.5-0.8,3.7-0.3c0.9,0.5,1.4,1.4,1.6,2.9l0.1,0.5l0.4,0.4c0.1,0.1,5.4,5.6,4.5,12.1
	c-0.6,4.5-4.1,8.6-10.3,12.2c-0.8,0.4-1,1.4-0.6,2.2c0.3,0.5,0.8,0.8,1.4,0.8c0.3,0,0.5-0.1,0.8-0.2c6.9-4,10.8-8.7,11.8-14.1
	c1.4,1.5,3.2,2.9,5.4,3.8c0.8,0.4,1.8,0,2.1-0.8c0.4-0.8,0-1.8-0.8-2.1c-7.2-3.2-9.3-11.2-7.1-17.2c2.3-6.3,8.3-8.8,16.1-6.6
	c0.6,0.2,1.5,0,1.9-0.5c0.8-0.8,0.4-1.8,0.1-2.6c-0.3-0.8-0.8-2-0.4-2.9c0.4-1.1,1.1-1.7,2.1-2c1.2-0.3,2.5,0.2,3.2,0.8
	c1.9,1.6,3.6,8.6,3.8,12.3C102.4,51.3,101.6,52.1,101,52.6z"/>
<path class="st0" d="M118.3,84l-7.3-53.3c-0.5-3.4-2.2-6.3-4.9-8.3c-2.7-2-5.9-2.7-9.2-2.2c-8.2,1.4-21,3.1-34.8,3.1
	s-26.6-1.7-34.8-3.1c-3.3-0.6-6.5,0.2-9.2,2.2c-2.7,2-4.5,4.9-4.9,8.3L5.7,84c-1.1,8.2,4,15.8,11.9,17.7c10.2,2.5,26.1,5.4,44.4,5.4
	s34.2-3,44.4-5.4C114.3,99.7,119.4,92.1,118.3,84z M105.6,98.5c-10,2.4-25.7,5.3-43.6,5.3s-33.6-2.9-43.6-5.3
	C12.1,97,8,90.9,8.9,84.4l7.3-53.3c0.3-2.5,1.6-4.7,3.6-6.1c1.5-1.1,3.3-1.7,5.2-1.7c0.5,0,1,0,1.5,0.1c8.4,1.5,21.3,3.2,35.4,3.2
	s27-1.7,35.4-3.2c2.4-0.4,4.8,0.1,6.7,1.6c2,1.5,3.3,3.6,3.6,6.1l7.3,53.3C116,90.9,111.9,97,105.6,98.5z"/>
</svg>
