<?xml version="1.0" encoding="utf-8"?>
<!-- Generator: Adobe Illustrator 24.1.2, SVG Export Plug-In . SVG Version: 6.00 Build 0)  -->
<svg version="1.1" id="Layer_1" xmlns="http://www.w3.org/2000/svg" xmlns:xlink="http://www.w3.org/1999/xlink" x="0px" y="0px"
	 viewBox="0 0 125 125" style="enable-background:new 0 0 125 125;" xml:space="preserve">
<style type="text/css">
	.st0{fill:#FFFFFF;}
</style>
<g id="Group_142" transform="translate(692 303)">
	<g id="Group_131">
		<path id="Path_538" class="st0" d="M-633.74-209.91l-0.28-4.2c3.35-0.38,6.61-1.32,9.65-2.77c0.16-0.61,0.16-1.24-0.01-1.85
			c-0.65-1.92-0.84-3.96-0.55-5.96c0.12-0.75,0.62-1.39,1.33-1.66c3.87-1.56,7.72-3.74,8.33-4.51c0.1-0.17,0.08-0.38-0.04-0.53
			c-0.39-0.46-1.02-1.07-1.74-1.77c-4.05-3.95-11.58-11.29-11.58-24.27c0-15.1-10.99-40.67-52.18-40.67v-4.21
			c44.7,0,56.63,28.21,56.63,44.88c0,11.27,6.46,17.57,10.32,21.34c0.8,0.78,1.5,1.46,2.02,2.07c1.34,1.55,1.46,3.81,0.28,5.48
			c-1.38,1.99-6.62,4.46-9.05,5.52c-0.06,0.91,0.06,1.83,0.34,2.69c0.76,1.77,0.78,5.87-1.88,7.09
			C-625.79-211.45-629.71-210.33-633.74-209.91"/>
	</g>
	<g id="Group_132" transform="translate(11.716 87.84)">
		<path id="Path_539" class="st0" d="M-656.26-276.99c-9.45,0-21.96-6.1-24.56-14.26l4.26-1.22c1.99,6.24,12.73,11.27,20.3,11.27
			c3.84,0.1,7.65-0.78,11.06-2.54c0.02-0.87,0.03-2.26-0.03-4.09c-0.1-2.93,2.08-5.38,3.93-6.91c0.45-0.37,0.66-0.97,0.52-1.54
			c-0.22-1.06-0.84-2-1.73-2.62l2.62-3.4c1.75,1.21,2.98,3.02,3.45,5.09c0.49,2.09-0.26,4.28-1.92,5.64
			c-1.57,1.3-2.45,2.61-2.41,3.6c0.12,3.45,0,5.42,0,5.5l-0.06,0.92l-0.76,0.58C-641.81-280.81-646.86-277-656.26-276.99"/>
	</g>
	<g id="Group_133" transform="translate(17.184 107.439)">
		<path id="Path_540" class="st0" d="M-676.37-286.83h-4.45c0-7.09,6.23-15.14,6.5-15.48l3.57,2.5
			C-670.8-299.74-676.37-292.53-676.37-286.83"/>
	</g>
	<g id="Group_134" transform="translate(69.095 103.823)">
		<path id="Path_541" class="st0" d="M-678.58-298.13c-0.59,0-1.15-0.21-1.59-0.61c-0.41-0.39-0.65-0.93-0.65-1.5
			c0.01-0.56,0.24-1.1,0.65-1.48c0.9-0.79,2.25-0.79,3.15,0c0.41,0.38,0.65,0.92,0.66,1.48c-0.01,0.57-0.24,1.11-0.66,1.5
			C-677.44-298.35-678-298.13-678.58-298.13"/>
	</g>
	<g id="Group_135" transform="translate(82.996 95.031)">
		<path id="Path_542" class="st0" d="M-678.6-298.09c-0.14,0-0.29-0.02-0.43-0.04c-0.14-0.03-0.28-0.07-0.41-0.12
			c-0.14-0.05-0.27-0.11-0.39-0.19c-0.12-0.07-0.23-0.16-0.33-0.27c-0.11-0.09-0.2-0.2-0.28-0.31c-0.08-0.12-0.15-0.24-0.21-0.37
			c-0.05-0.13-0.09-0.26-0.12-0.39c-0.03-0.14-0.05-0.27-0.04-0.41c0-0.57,0.24-1.11,0.66-1.49c0.1-0.1,0.21-0.19,0.33-0.27
			c0.12-0.08,0.25-0.14,0.39-0.19c0.13-0.06,0.27-0.1,0.41-0.13c0.72-0.13,1.47,0.08,2.01,0.58c0.41,0.39,0.64,0.93,0.65,1.49
			c0,0.14-0.01,0.28-0.04,0.41c-0.03,0.13-0.07,0.26-0.12,0.39c-0.06,0.13-0.13,0.25-0.21,0.37c-0.08,0.11-0.17,0.22-0.27,0.31
			C-677.45-298.32-678.01-298.1-678.6-298.09"/>
	</g>
	<g id="Group_136" transform="translate(92.253 106.113)">
		<path id="Path_543" class="st0" d="M-678.59-298.13c-0.58,0-1.14-0.22-1.57-0.62c-0.11-0.09-0.2-0.2-0.28-0.31
			c-0.08-0.12-0.14-0.24-0.2-0.37c-0.12-0.25-0.18-0.52-0.18-0.8c0-0.14,0.02-0.28,0.04-0.42c0.04-0.13,0.08-0.27,0.13-0.39
			c0.06-0.13,0.12-0.25,0.2-0.37c0.08-0.11,0.18-0.22,0.28-0.31c0.9-0.78,2.24-0.78,3.15,0c0.82,0.76,0.87,2.03,0.12,2.86
			c-0.04,0.04-0.08,0.08-0.12,0.12C-677.44-298.35-678.01-298.13-678.59-298.13"/>
	</g>
	<g id="Group_137" transform="translate(98.187 96.439)">
		<path id="Path_544" class="st0" d="M-678.59-298.1c-0.59,0.01-1.15-0.22-1.58-0.62c-0.41-0.38-0.64-0.92-0.65-1.48
			c0-0.14,0.01-0.27,0.04-0.41c0.03-0.14,0.07-0.27,0.12-0.4c0.06-0.13,0.12-0.25,0.2-0.36c0.09-0.11,0.18-0.22,0.28-0.32
			c0.11-0.1,0.22-0.18,0.34-0.26c0.12-0.08,0.24-0.15,0.38-0.2c0.14-0.06,0.28-0.1,0.42-0.12c0.72-0.14,1.46,0.07,2,0.57
			c0.1,0.1,0.2,0.21,0.28,0.32c0.08,0.11,0.14,0.23,0.2,0.36c0.05,0.13,0.1,0.26,0.13,0.4c0.02,0.13,0.04,0.27,0.04,0.41
			c-0.01,0.56-0.24,1.1-0.66,1.48C-677.45-298.33-678.01-298.1-678.59-298.1"/>
	</g>
	<g id="Group_138" transform="translate(88.655 119.41)">
		<path id="Path_545" class="st0" d="M-678.59-298.1c-0.15,0-0.3-0.01-0.45-0.04c-0.28-0.05-0.56-0.16-0.8-0.32
			c-0.12-0.07-0.23-0.16-0.33-0.25c-0.1-0.1-0.2-0.21-0.28-0.33c-0.08-0.11-0.15-0.23-0.2-0.36c-0.06-0.13-0.1-0.26-0.13-0.4
			c-0.02-0.14-0.04-0.27-0.03-0.41c0-0.14,0.01-0.27,0.03-0.41c0.03-0.13,0.08-0.27,0.13-0.39c0.06-0.13,0.12-0.25,0.2-0.37
			c0.08-0.11,0.18-0.22,0.28-0.31c0.1-0.1,0.21-0.19,0.33-0.27c0.13-0.07,0.26-0.13,0.39-0.19c0.13-0.05,0.27-0.09,0.41-0.13
			c0.29-0.05,0.59-0.05,0.88,0c0.14,0.03,0.28,0.08,0.41,0.13c0.13,0.05,0.26,0.11,0.38,0.19c0.12,0.08,0.24,0.16,0.34,0.27
			c0.1,0.1,0.2,0.2,0.28,0.31c0.08,0.12,0.14,0.24,0.2,0.37c0.06,0.13,0.1,0.26,0.12,0.39c0.03,0.13,0.05,0.27,0.05,0.41
			c0,0.14-0.02,0.28-0.05,0.41c-0.02,0.14-0.06,0.27-0.12,0.4c-0.06,0.13-0.12,0.24-0.2,0.36c-0.09,0.12-0.18,0.23-0.28,0.33
			c-0.11,0.1-0.22,0.18-0.34,0.25c-0.12,0.08-0.24,0.15-0.38,0.2C-678.02-298.16-678.3-298.1-678.59-298.1"/>
	</g>
	<g id="Group_139" transform="translate(88.646 79.809)">
		<path id="Path_546" class="st0" d="M-678.58-298.13c-0.59,0-1.15-0.22-1.58-0.62c-0.82-0.75-0.88-2.02-0.13-2.84
			c0.04-0.05,0.09-0.09,0.13-0.13c0.9-0.78,2.24-0.78,3.14,0c0.82,0.76,0.87,2.05,0.1,2.87c-0.03,0.04-0.07,0.07-0.1,0.1
			C-677.44-298.35-678-298.13-678.58-298.13"/>
	</g>
	<g id="Group_140" transform="translate(65.493 77.596)">
		<path id="Path_547" class="st0" d="M-651.82-286.37c-15.24,0-28.38-12.39-28.99-12.98l3.16-2.96
			c0.15,0.14,15.12,14.22,30.02,11.33l0.89,4.12C-648.42-286.53-650.12-286.37-651.82-286.37"/>
	</g>
	<g id="Group_141" transform="translate(66.425 87.428)">
		<path id="Path_548" class="st0" d="M-665.21-269.94l-4.37-0.78c3.42-16.97-11.09-28.19-11.24-28.3l2.78-3.29
			C-677.36-301.79-661.3-289.37-665.21-269.94"/>
	</g>
</g>
</svg>
