<?xml version="1.0" encoding="utf-8"?>
<!-- Generator: Adobe Illustrator 24.1.2, SVG Export Plug-In . SVG Version: 6.00 Build 0)  -->
<svg version="1.1" id="Layer_1" xmlns="http://www.w3.org/2000/svg" xmlns:xlink="http://www.w3.org/1999/xlink" x="0px" y="0px"
	 viewBox="0 0 125 125" style="enable-background:new 0 0 125 125;" xml:space="preserve">
<style type="text/css">
	.st0{fill:#FFFFFF;}
</style>
<g id="Group_123" transform="translate(691 16)">
	<g id="Group_118">
		<path id="Path_527" class="st0" d="M-671.99,54.81c-1.04-5.49-1.04-11.12,0-16.61c-4.59,2.8-6.04,8.78-3.24,13.37
			C-674.42,52.89-673.31,54.01-671.99,54.81 M-628.51,86.88c22.3,0.01,40.38-18.06,40.39-40.35c0.01-14.92-8.22-28.63-21.38-35.65
			c-1.93,4.11-8,14.39-22.39,20.14c-0.23,0.09-0.48,0.14-0.73,0.14c-1.07,0-1.94-0.87-1.94-1.94c0-0.8,0.49-1.51,1.22-1.8
			c13.08-5.23,18.65-14.71,20.32-18.21c-4.52-1.88-9.35-2.92-14.24-3.07c-2.82,5.63-7.47,10.13-13.18,12.76
			c-0.25,0.11-0.52,0.17-0.8,0.17c-1.07,0-1.94-0.87-1.94-1.94c0-0.76,0.45-1.45,1.14-1.76c4.24-1.97,7.81-5.14,10.28-9.12
			c-22.23,1.81-38.78,21.29-36.97,43.52C-667.04,70.73-649.53,86.88-628.51,86.88 M-585.03,54.8c4.59-2.79,6.04-8.78,3.24-13.36
			c-0.81-1.32-1.92-2.44-3.24-3.24C-583.98,43.68-583.98,49.32-585.03,54.8 M-670.8,33.46c7.2-23.36,31.98-36.46,55.34-29.26
			c13.99,4.31,24.95,15.27,29.26,29.26c7.2,2.15,11.3,9.73,9.16,16.93c-1.31,4.4-4.75,7.84-9.16,9.16
			c-7.2,23.36-31.98,36.46-55.34,29.26c-13.99-4.31-24.94-15.27-29.26-29.26c-7.2-2.15-11.3-9.73-9.16-16.93
			C-678.64,38.21-675.2,34.77-670.8,33.46"/>
	</g>
	<g id="Group_119" transform="translate(60.226 41.883)">
		<path id="Path_528" class="st0" d="M-672.12,2.24c4.65,0.01,8.41,3.77,8.42,8.42c0,1.07-0.87,1.94-1.94,1.94
			c-1.07,0-1.94-0.87-1.94-1.94l0,0c0-2.5-2.03-4.53-4.54-4.53c-2.5,0-4.53,2.03-4.53,4.53c0,1.07-0.87,1.94-1.94,1.94
			c-1.07,0-1.94-0.87-1.94-1.94l0,0C-680.53,6.01-676.76,2.25-672.12,2.24"/>
	</g>
	<g id="Group_120" transform="translate(26.986 41.883)">
		<path id="Path_529" class="st0" d="M-672.11,2.24c4.65,0.01,8.41,3.77,8.42,8.42c0,1.07-0.87,1.94-1.94,1.94
			c-1.07,0-1.94-0.87-1.94-1.94c0-2.5-2.03-4.54-4.54-4.54c-2.5,0-4.54,2.03-4.54,4.54c0,1.07-0.87,1.94-1.94,1.94
			c-1.07,0-1.94-0.87-1.94-1.94l0,0C-680.53,6.02-676.76,2.25-672.11,2.24"/>
	</g>
	<g id="Group_121" transform="translate(39.569 62.8)">
		<path id="Path_530" class="st0" d="M-679.96,2.81c0.76-0.76,1.99-0.76,2.75,0c4.95,4.94,12.95,4.94,17.9,0
			c0.76-0.76,1.99-0.76,2.75,0s0.76,1.99,0,2.75l0,0c-6.46,6.46-16.93,6.46-23.39,0c0,0,0,0,0,0
			C-680.72,4.8-680.72,3.57-679.96,2.81"/>
	</g>
	<g id="Group_122" transform="translate(47.488 53.109)">
		<path id="Path_531" class="st0" d="M-678.59,2.24h5.18c1.07,0,1.94,0.87,1.94,1.94c0,1.07-0.87,1.94-1.94,1.94h-5.18
			c-1.07,0-1.94-0.87-1.94-1.94C-680.53,3.11-679.66,2.24-678.59,2.24"/>
	</g>
</g>
</svg>
