<?xml version="1.0" encoding="utf-8"?>
<!-- Generator: Adobe Illustrator 24.3.0, SVG Export Plug-In . SVG Version: 6.00 Build 0)  -->
<svg version="1.1" id="Layer_1" xmlns="http://www.w3.org/2000/svg" xmlns:xlink="http://www.w3.org/1999/xlink" x="0px" y="0px"
	 viewBox="0 0 125 125" style="enable-background:new 0 0 125 125;" xml:space="preserve">
<style type="text/css">
	.st0{fill:#FFFFFF;}
</style>
<g>
	<path class="st0" d="M31.3,64.4V25.8c0-1,0.8-1.9,1.8-1.9h22.1c1,0,1.8,0.8,1.8,1.9v31.9c0,1-0.8,2.1-1.8,2.3l-22.2,5.7
		C32.1,66.1,31.3,65.5,31.3,64.4 M22.3,18c-1.6,0-2.9,1.3-2.9,3c0,1.7,1.3,3,2.9,3c0,0,0.8,0,1.6,0c0.9,0,1.6,0.8,1.6,1.9v62.6
		c0,10.5,8.4,19.1,18.8,19.1S63,98.9,63,88.4V25.8c0-1,0.7-1.9,1.6-1.9c0.8,0,1.5,0,1.6,0c1.6,0,2.9-1.3,2.9-3c0-1.6-1.3-3-2.9-3
		H22.3z"/>
	<path class="st0" d="M89.9,89.5c0.2-0.2,0.6-0.2,0.8,0c1.4,1.4,5.9,6.5,5.9,11.6c0,3.3-2.8,6-6.3,6c-3.5,0-6.3-2.7-6.3-6
		C84,96,88.5,90.9,89.9,89.5"/>
	<polygon class="st0" points="81.4,26.6 81.4,26.6 81.4,26.6 	"/>
	<path class="st0" d="M87.5,83.1c0.5,1,1.7,1.8,2.8,1.8h0.5c1.1,0,2.3-0.8,2.7-1.8L98.4,72c0.4-1,0.8-2.7,0.8-3.8v-2.3V45.9
		c0-1.1-0.9-2-2-2H83.3c-1.1,0-2,0.9-2,2v20.1v2.3c0,1.1,0.4,2.8,0.8,3.8L87.5,83.1z"/>
	<path class="st0" d="M100.7,33.8c-0.9,0-1.6-0.9-1.6-2v-5.2c0-5-4-9-8.9-9c-4.9,0-8.9,4-8.9,9v0v5.2c0,1.1-0.7,2-1.6,2h-1.6
		c-1.9,0-3.4,1.5-3.4,3.4c0,1.9,1.5,3.4,3.4,3.4h3.1h17.8h3.1c1.9,0,3.4-1.5,3.4-3.4c0-1.9-1.5-3.4-3.4-3.4H100.7z"/>
</g>
</svg>
